<svg xmlns="http://www.w3.org/2000/svg" viewBox="0 0 198.647 198.648"><defs><clipPath id="clip-path"><path fill="none" d="M0 0h198.648v198.648H0z"/></clipPath><style>.cls-4{fill:#0b242b}.cls-5{fill:#f8a667}</style></defs><g id="Layer_2" data-name="Layer 2"><g clip-path="url(#clip-path)" opacity=".9" id="Layer_1-2" data-name="Layer 1"><path class="cls-4" d="M198.648 99.324A99.323 99.323 0 1199.323 0a99.324 99.324 0 0199.325 99.324"/><path class="cls-4" d="M2.03 106.465v-13.2c.153-.932.376-1.858.449-2.795a93.15 93.15 0 014.829-22.793 95.536 95.536 0 0129.472-42.8A94.653 94.653 0 0186.016 2.988c2.166-.299 4.33-.616 6.494-.924h12.96a8.355 8.355 0 00.998.247c3.25.398 6.527.634 9.748 1.197 21.099 3.688 39.164 13.112 53.841 28.803 9.835 10.517 17.489 22.405 22.05 36.132 6.639 19.981 6.312 40.09.524 60.16-4.887 16.947-14.313 31.091-27.421 42.816-17.819 15.94-38.383 25.19-62.567 25.572a3.459 3.459 0 00-.773.193h-1.92a7.266 7.266 0 00-.9-.195c-5.243-.49-10.532-.685-15.724-1.5-23.852-3.743-43.435-15.043-58.813-33.664a95.31 95.31 0 01-21.588-48.986c-.282-2.127-.596-4.25-.895-6.374M184.4 125.43c.715-1.98.003-2.98-2.004-2.814-1.826.15-3.653.287-5.477.458-.848.079-1.689.225-2.533.34l.002.3c.643.127 1.283.27 1.929.377q4.055.667 8.113 1.316c-.454.457-.828 1.087-1.376 1.338-1.466.67-3.007 1.179-4.663 1.807l5.404 5.015c.387-2.553.756-4.826 1.05-7.108.041-.318-.288-.685-.445-1.03M96.235 73.653l-.433-.152c.232-.698.432-1.408.701-2.092 1.333-3.378 2.708-6.74 4.019-10.127.74-1.91.4-2.83-1.471-3.657a4.17 4.17 0 01-2.677-4.243 9.452 9.452 0 00-2.187-5.767 24.758 24.758 0 00-1.115 2.774 20.898 20.898 0 01-6.331 9.98 16.923 16.923 0 00-2.603 3.244c-1.376 2.144-2.496 4.46-3.948 6.548-3.582 5.15-7.364 10.162-10.926 15.326a55.858 55.858 0 01-9.45 10.637 16.847 16.847 0 01-2.234 1.402l-.252-.301c.225-.348.433-.71.678-1.044q4.995-6.822 9.996-13.64c1.379-1.89 1.118-2.67-1.063-3.372-.114-.036-.234-.055-.348-.091a5.7 5.7 0 01-4.092-3.695c-.139-.415-.764-.756-1.237-.92-.157-.055-.582.527-.817.864a21.2 21.2 0 01-1.935 2.828c-1.508 1.539-3.171 2.927-4.779 4.367a5.147 5.147 0 01-.686.447l-.252-.234c.318-.521.601-1.067.96-1.558 1.227-1.677 2.557-3.285 3.69-5.022a4.06 4.06 0 00.822-2.651c-.469-2.135-1.302-4.191-2.063-6.5C50.635 73.99 45.13 80.59 41.39 88.426a67.84 67.84 0 01-2.881 5.386c-1.142 1.924-2.413 3.772-3.628 5.653l-.304-.164c-.026-2.835 1.135-5.374 2.278-8.191-1.736 1.516-3.267 2.833-4.775 4.177a15.165 15.165 0 00-4.123 5.523 7.705 7.705 0 01-1.404 2.299c-1.306 1.4-2.712 2.713-4.125 4.009a11.217 11.217 0 00-3.945 6.533 3.659 3.659 0 01-.835 1.536c-1.53 1.933-3.141 3.802-4.643 5.755a3.801 3.801 0 00-.071 4.579c1.029 1.794 1.866 3.698 2.809 5.542 1.018 1.989 1.943 4.039 3.125 5.926 1.28 2.045 2.81 3.933 4.275 5.95l3.873-3.058-.164-.277-3.509.213a3.84 3.84 0 012.248-3.251 9.984 9.984 0 005.038-6.124c.174-.56.43-1.092.644-1.628 1.557.5 2.004 1.054 1.943 2.676a10 10 0 003.465 8.084 24.295 24.295 0 012.266 2.813c-1.743 1.05-3.354.249-5.259.02.511.561.719.953 1.043 1.121 2.371 1.236 4.722 2.525 7.168 3.596a3.307 3.307 0 004.248-1.903c-2.164-.077-4.642 1.48-6.364-1.26 3.333-1.804 6.99-3.097 9.399-6.561-.596.159-.978.245-1.349.363-2.205.707-4.407 1.426-6.613 2.13a1.593 1.593 0 01-2.211-.96c.854-.37 1.718-.676 2.518-1.104a48.073 48.073 0 005.297-3.002c2.639-1.88 4.609-4.242 4.132-7.828a.564.564 0 01.024-.354 4.43 4.43 0 011.004-1.232c.167-.11.775.266 1.049.55a8.344 8.344 0 012.295 4.527 4.163 4.163 0 003.238 3.592 9.21 9.21 0 012.025.726c1.217.687 2.372 1.483 3.718 2.34a15.855 15.855 0 01-8.577 1.168 5.214 5.214 0 001.378 1.731 12.441 12.441 0 0011.957 1.52c1.467-.529 2.08-1.633 2.983-2.982-2.306.51-4.109 1.942-6.468 1.342a21.32 21.32 0 011.37-1.696c1.993-2.014 3.978-4.04 6.042-5.978a7.666 7.666 0 002.499-4.895c.128-1.133.3-2.259.45-3.367 1.967.07 2.746.638 3.296 2.549a9.377 9.377 0 006.956 6.762c1.174.336 2.318.779 3.547 1.197-1.292 2.333-4.575 1.935-5.568 4.464l4.382 3.099c-1.412.681-2.677 1.293-4.076 1.97.588.515 1.032.975 1.544 1.34 1.415 1.01 2.152.924 3.299-.376a261.776 261.776 0 003.444-3.999c1.069-1.263 2.12-2.542 3.179-3.814l-.256-.358-6.106 3.076-.193-.3c1.803-2.884 4.506-5.183 5.891-8.616-1.006.377-1.76.66-2.514.941l-.23-.274c.616-1.09 1.204-2.196 1.856-3.264 1.242-2.038 2.298-4.129 2.195-6.607-.031-.745.347-1.007 1.035-.95a2.341 2.341 0 012.198 1.894 11.297 11.297 0 005.629 6.849 21.784 21.784 0 013.352 2.3c1.139.998 2.101 2.197 3.141 3.308l-.245.376-6.369-1.571a1.008 1.008 0 00.416.636c1.376 1.03 2.808 1.996 4.105 3.118a2.06 2.06 0 01.658 1.695 1.376 1.376 0 01-1.905.73 30.215 30.215 0 01-2.465-.915c-.773-.333-1.511-.745-2.264-1.122q-.141.185-.28.371c.649.585 1.206 1.46 1.965 1.7 2.348.743 4.766 1.273 7.173 1.813a1.895 1.895 0 001.472-.236c1.27-1.154 2.432-2.426 3.634-3.654a12.59 12.59 0 00-2.639 1.218c-.839.47-1.681.931-2.781-.076a36.79 36.79 0 0010.54-14.21 3.824 3.824 0 012.397 3.417c.775 5.56 4.119 9.432 8.39 12.744l4.875-4.215c-1.277-.615-2.445-1.128-3.565-1.73-1.286-.69-1.375-1.313-.271-2.269 1.239-1.07 2.573-2.029 3.852-3.054a6.872 6.872 0 002.572-3.518c.381-1.392.949-1.624 2.239-.936a5.88 5.88 0 012.595 3.47 6.024 6.024 0 004.467 3.932c1.479.383 2.9.987 4.451 1.53a6.443 6.443 0 01-.481.625 6.64 6.64 0 01-7.269 1.698 5.226 5.226 0 00-1.064-.144l-.188.558a53.926 53.926 0 004.98 2.386c1.558.572 3.264.732 4.865 1.205 1.278.378 1.415.834.457 1.727-1.129 1.053-2.435 1.916-3.688 2.88a5.55 5.55 0 001.96-.374 12.042 12.042 0 002.428-2.069c2.429-2.587 4.514-5.385 5.281-8.972a11.258 11.258 0 01.919-2.057 7.124 7.124 0 011.541 1.174 24.727 24.727 0 012.407 3.812 5.406 5.406 0 004.623 3.471c1.338.135 2.661.424 4.16.672l-2.047 2.667c1.377.527 2.591 1.027 3.829 1.456 1.282.445 1.833.23 2.422-.994.746-1.545 1.471-3.105 2.11-4.696a3.85 3.85 0 00-.927-4.625c-3.133-2.732-6.36-5.356-9.549-8.023-.686-.574-1.236-.332-1.731.286-.85 1.06-1.699 2.122-2.562 3.171a5.218 5.218 0 01-.615.551 3.815 3.815 0 01.205-1.73c.384-1.136.77-2.272 1.212-3.385a4.749 4.749 0 00-.219-4.156 49.598 49.598 0 01-1.729-3.685 10.026 10.026 0 00-4.737-5.054c-1.298-.694-1.72-.6-2.664.516q-2.398 2.84-4.826 5.656a8.003 8.003 0 01-.641.606l-.269-.168c.24-.56.457-1.133.726-1.679 1.712-3.479 3.475-6.949 4.004-10.848a3.518 3.518 0 00-.479-2.568c-1.72-1.81-3.672-3.398-5.566-5.097a17.688 17.688 0 01-1.328 2.43 13.897 13.897 0 01-1.974 1.918c-.604.522-1.264.98-1.908 1.452a23.884 23.884 0 00-6.533 6.61 9.976 9.976 0 01-1.874 1.746c-.078-.353-.154-.483-.121-.573 1.503-4.009 3.173-7.854 7.336-9.953a7.926 7.926 0 004.311-5.752 9.508 9.508 0 00-1.174-6.115 6.543 6.543 0 01-.948-3.36 18.854 18.854 0 00-.998-8.255c-1.208 1.145-2.351 2.188-3.448 3.277a47.105 47.105 0 01-10.233 8.254 4.43 4.43 0 00-1.393 1.286 19.73 19.73 0 01-6.943 5.96 16.488 16.488 0 00-5.643 4.924c-1.018 1.385-2.005 2.792-3.02 4.18q-4.53 6.196-9.075 12.38a6.268 6.268 0 01-3.67 2.578c.352-.612.565-1.036.827-1.427 3.906-5.848 7.838-11.68 11.711-17.55a5.769 5.769 0 001.259-2.895c-.071-2.712-.49-5.415-.773-8.12l-.415-.016c-.242.303-.493.6-.725.91-1.031 1.375-2.045 2.764-3.097 4.123-.151.196-.478.256-.724.378a1.88 1.88 0 01-.138-.712c.289-1.284.566-2.576.953-3.833.577-1.868 1.352-3.682 1.816-5.575a3.1 3.1 0 00-.447-2.42 45.202 45.202 0 00-3.871-3.649c-1.378 2.543-2.554 5.078-4.064 7.395-1.49 2.286-2.891 4.741-5.512 6.081a3.017 3.017 0 01.438-1.187c1.61-2.669 3.166-5.372 4.86-7.987a13.333 13.333 0 001.6-11.029 18.584 18.584 0 00-5.881-9.112l-4.785 8.07m53.284-5.076c-1.514-.19-2.758-.44-4.009-.487a14.408 14.408 0 01-9.646-3.97c-2.053-1.94-4.082-3.932-4.738-6.896a19.974 19.974 0 014.12-17.552c.581-.732 1.145-1.479 1.895-2.45a10.528 10.528 0 00-1.132.164c-9.307 2.714-15.012 9.944-15.549 19.625-.212 3.818.486 7.29 3.217 10.185 5.825 6.174 17.871 7.39 24.69 2.44a15.318 15.318 0 001.152-1.06m6.866-27.906c.032-3.315-.942-5.084-2.569-6.527a7.322 7.322 0 00-9.36-.414 7.183 7.183 0 00-1.815 8.88c1.775 3.155 3.575 4.067 7.111 3.604 3.969-.52 6.622-3.167 6.633-5.543M33.242 75.742c.872-1.517 1.641-2.868 2.422-4.212.922-1.585.851-2.124-.645-3.563-1.193 1.985-2.392 3.908-3.515 5.874-.957 1.677-.994 1.729-2.922 1.407s-3.858-.649-5.792-.935a1.116 1.116 0 00-1.36 1.027 1.2 1.2 0 00.808 1.523 8.935 8.935 0 001.15.33c1.823.424 3.648.84 5.546 1.276-.875 2.136-1.753 4.187-2.54 6.272a1.647 1.647 0 00.082 1.417 1.863 1.863 0 001.523.356c.391-.1.758-.65.956-1.082 1.026-2.24 1.994-4.505 2.972-6.737 2.51.218 4.831 1.574 7.264.354-.497-2.13-.854-2.436-2.92-2.731-.97-.138-1.93-.364-3.029-.576m82.083-48.715c-1.174 2.044-2.297 3.958-3.376 5.896-.758 1.36-1.292 1.639-2.796 1.373a247.03 247.03 0 00-5.666-.955c-1.252-.192-2.15.852-1.564 1.879a2.45 2.45 0 001.442.887c1.953.508 3.932.919 5.986 1.385-.875 2.138-1.718 4.15-2.52 6.18-.282.715-.555 1.466.523 1.859.994.363 1.546.06 1.95-.913.851-2.063 1.82-4.078 2.681-6.14a.934.934 0 011.278-.651 18.912 18.912 0 002.925.6 32.505 32.505 0 003.378-.053c-.4-2.36-.855-2.766-2.79-3.005-1.012-.126-2.009-.374-3.162-.595.936-1.598 1.767-3 2.58-4.41.808-1.402.694-1.974-.869-3.337m65.685 50.809c-1.235 2.087-2.487 4.12-3.649 6.202a1.85 1.85 0 01-2.235 1.09c-1.879-.371-3.774-.662-5.667-.962-.865-.137-1.755-.177-2.002.947-.258 1.172.547 1.537 1.474 1.76.271.067.541.135.813.197 1.738.4 3.477.8 5.295 1.22l-2.625 6.288c-.288.69-.404 1.37.475 1.687.798.286 1.567.35 1.99-.668.61-1.473 1.307-2.911 1.895-4.393.97-2.45.581-3.125 4.125-2.162a5.974 5.974 0 004.28-.146c-.304-2.03-.999-2.663-2.87-2.842-.973-.093-1.934-.3-3.042-.48.903-1.55 1.702-2.927 2.505-4.302.868-1.486.751-2.15-.762-3.437M38.787 44.558c1.006-.898 1.805-1.608 2.601-2.322.85-.762.317-1.414-.16-2.085a1.04 1.04 0 00-1.732-.173 22.896 22.896 0 00-2.463 2.273 2.925 2.925 0 01-3.648.799 35.997 35.997 0 00-4.45-1.377 8.555 8.555 0 00-2.279.096c.236 1.356.766 2.03 1.831 2.319a17.4 17.4 0 012.701.955c1.287.589 1.434 1.374.476 2.434-.586.649-1.445 1.113-1.852 1.844a5.757 5.757 0 00-.23 2.207c.718-.05 1.437-.09 2.154-.155.097-.01.182-.148.272-.227 1.266-1.102 2.555-2.177 3.788-3.315a2.351 2.351 0 012.513-.546c2.71.786 5.451 1.46 8.204 2.187.381-2.382.075-2.867-1.977-3.398-.85-.22-1.71-.402-2.558-.625-.985-.26-1.962-.546-3.19-.891M30.59 60.53c0-3.747-2.754-6.735-6.145-6.285-5.41.718-6.5 2.603-6.226 6.913.136 2.14.611 4.304 2.852 5.45a6.541 6.541 0 009.52-6.078m50.671-29.004c-.439 2.827.625 4.49 3.901 5.67a8.887 8.887 0 005.181.25 6.364 6.364 0 003.467-10.164c-2.024-2.546-5-3.326-8.416-2.206-2.929.96-3.975 2.593-4.133 6.45m96.72 22.283c-1.798 1.144-2.018 1.727-1.302 3.491 1.754 4.322 3.548 8.628 5.308 12.947.311.763.602 1.7 1.602 1.378 1.01-.326.657-1.325.494-2.072a53.824 53.824 0 00-4.15-11.953c-.602-1.25-1.269-2.469-1.952-3.79M42.334 35.348c1.942.967 2.586.876 3.797-.403a48.058 48.058 0 001.908-2.152c2.388-2.847 4.748-5.718 7.157-8.546.548-.644 1.21-1.316.498-2.03-.25-.251-1.432.009-1.843.4-2.545 2.414-5.066 4.862-7.442 7.44-1.472 1.599-2.672 3.449-4.075 5.29m134.941 40.026l.628-.244a7.985 7.985 0 00.041-2.237c-.698-2.575-1.39-5.166-2.337-7.656-1.027-2.704-2.332-5.302-3.524-7.963-1.902 1.044-2.182 1.725-1.496 3.404 1.796 4.396 3.591 8.794 5.444 13.167a7.046 7.046 0 001.244 1.529m-46.87-60.78c-.793 1.827-.644 2.493.722 3.495a45.9 45.9 0 002.573 1.744c3.063 1.94 6.143 3.855 9.202 5.803.711.454 1.52 1.21 2.207.396.71-.842-.215-1.511-.807-2.07a52.678 52.678 0 00-10.24-7.426c-1.169-.664-2.376-1.264-3.658-1.942m-60.357 27.19a26.236 26.236 0 00-1.33 2.333q-2.492 5.559-4.897 11.158a10.588 10.588 0 00-.724 2.632c-.059.416.276.887.432 1.333.496-.242 1.258-.355 1.448-.746q3.284-6.77 6.404-13.617c.645-1.408.288-2.167-1.333-3.093M15.09 67.298c-.426.811-.88 1.522-1.188 2.29-1.383 3.442-2.767 6.883-4.057 10.36a19.431 19.431 0 00-.858 3.711 6.344 6.344 0 00.389 1.853c.693-.625 1.3-.92 1.498-1.39q2.857-6.778 5.586-13.61c.619-1.543.314-2.21-1.37-3.215m58.441-9.1c.481-.219.71-.255.831-.389a18.503 18.503 0 003.019-3.496c1.639-3.183 2.971-6.524 4.463-9.785.478-1.045-.024-1.517-.866-1.969-.964-.517-1.295.092-1.614.787q-2.398 5.211-4.788 10.427a32.526 32.526 0 00-1.334 3.067c-.121.361.171.861.289 1.358m110.082 61.862c-.232-1.097-.333-1.929-.588-2.71-.568-1.745-1.211-2.122-3.039-1.883a392.61 392.61 0 00-6.393.878c-1.432.211-2.856.477-4.284.72l-.116.397c.788.477 1.536 1.268 2.372 1.375 3.904.501 7.831.814 12.048 1.223m-13.785-51.084c-.027-1.415-.866-2.032-1.986-1.77a35.386 35.386 0 00-12.533 5.133c-.604.423-1.145.79-.815 1.61a1.787 1.787 0 002.196.632c3.931-2.038 7.862-4.059 12.289-4.859.379-.068.677-.587.849-.746M7.66 99.531a5.257 5.257 0 00.966-.78c.846-1.008 1.547-2.147 2.456-3.087 2.1-2.168 4.271-4.27 6.453-6.356.532-.51.863-.957.353-1.618-.402-.52-.78-1.203-1.609-.604-.806.581-1.596 1.186-2.405 1.764-3.181 2.277-5.392 5.397-7.479 8.619-.642.99-.121 2.04 1.265 2.061m128.532-69.267l.108-.349a10.313 10.313 0 00-1.392-1.38c-2.768-1.88-5.568-3.715-8.361-5.559a172.246 172.246 0 00-3.212-2.075c-.624-.39-1.265-.556-1.789.168a1.344 1.344 0 00.275 2.001 5.912 5.912 0 00.581.42c2.706 1.83 5.368 3.731 8.142 5.453a14.607 14.607 0 003.746 1.433 5.82 5.82 0 001.902-.112M12.734 104.491c1.525 1.93 1.932 1.98 3.391.235 1.993-2.385 3.907-4.836 5.851-7.26.623-.778 1.274-1.539 1.825-2.365a1.18 1.18 0 00.091-1.069 1.28 1.28 0 00-1.084-.448 4.443 4.443 0 00-2.069 1.051c-2.715 3.227-5.329 6.54-8.005 9.856m97.422-30.938c-.346 2.071-.152 2.327 1.654 2.462 2.785.208 5.569.445 8.356.623 1.088.07 2.185.011 3.471.011-1.498-1.632-2.796-3.197-4.277-4.562a2.295 2.295 0 00-2.057-.184c-2.262 1.07-4.508 2.043-7.147 1.65m47.879 7.943c.222 2.028.754 2.592 2.036 1.995 3.972-1.85 7.901-3.793 11.821-5.75a.983.983 0 00-.326-1.848 4.723 4.723 0 00-2.317.162c-3.755 1.746-7.459 3.604-11.214 5.44M107.066 9.81c-1.367 2.281-2.824 4.427-3.98 6.725a64.788 64.788 0 00-2.843 6.955c-.147.403.29 1.018.457 1.535.473-.278 1.151-.439 1.387-.852 2.078-3.634 4.086-7.308 6.095-10.98.863-1.575.71-2.11-1.116-3.383m81.731 83.17c-3.622 1.854-7.174 3.663-10.714 5.496a2.127 2.127 0 00-.998.81 1.972 1.972 0 00-.101 1.521 2.007 2.007 0 001.378.664 2.457 2.457 0 001.219-.422q4.266-2.173 8.515-4.379c2.019-1.054 2.147-1.727.701-3.69M49.295 66.228c.101-.161.172-.26.226-.364 1.65-3.23 3.317-6.45 4.932-9.697a1.3 1.3 0 00-.417-1.893 1.421 1.421 0 00-2.032.38c-1.67 2.579-3.337 5.164-4.867 7.825-.734 1.277-.433 1.947.794 2.853.41.302.85.56 1.364.897m16.557-40.304c1.974.372 2.424.12 2.537-1.898.198-3.55.284-7.106.391-10.661.025-.855-.307-1.49-1.307-1.5-.942-.01-1.599.405-1.607 1.38-.033 4.192-.014 8.385-.014 12.679m-1.029 17.03c.204-2.312-.136-2.891-1.66-2.826-3.63.154-7.259.356-10.888.532-.915.045-1.556.378-1.56 1.41a1.392 1.392 0 001.632 1.493c4.147-.167 8.29-.4 12.476-.61m17.132-22.647c2.194.108 4.412.22 6.631.327 1.91.09 3.82.17 5.727.264.89.044 1.58-.38 1.631-1.208.028-.46-.496-1.038-.91-1.408a2.146 2.146 0 00-1.232-.35c-3.14-.186-6.28-.361-9.423-.5-2.26-.098-2.758.49-2.424 2.875m73.77 44.27a13.545 13.545 0 011.17-1.026c1.108-.765 1.11-1.62.518-2.77a24.793 24.793 0 00-6.325-7.265 1.639 1.639 0 00-1.596-.052 1.919 1.919 0 00-.404 1.657 5.007 5.007 0 001.214 1.745 20.436 20.436 0 014.186 5.928 9.962 9.962 0 001.237 1.784M110.631 24.04a7.26 7.26 0 003.914-3.3c1.416-2.673 2.77-5.38 4.162-8.064.373-.718.708-1.36-.302-1.882-.916-.473-1.523-.376-2.035.603-1.677 3.209-3.412 6.388-5.12 9.58a10.052 10.052 0 00-.894 1.815c-.1.338.161.783.275 1.248m77.787 89.178c.222-.19.82-.455.988-.887 1.163-2.965 2.286-5.95 3.311-8.966a1.773 1.773 0 00-1.156-2.208c-1.198-.32-1.508.472-1.808 1.372-.806 2.42-1.659 4.824-2.479 7.24a9.798 9.798 0 00-.507 1.835c-.123.944.47 1.596 1.651 1.614M88.438 8.511l-.037-.241q-4.326.823-8.65 1.656a1.563 1.563 0 00-.53.267 1.435 1.435 0 00-.525 1.892 1.18 1.18 0 001.561.718c.35-.078.706-.125 1.061-.178 2.68-.4 5.36-.804 8.042-1.19.901-.13 1.69-.703 1.558-1.476-.096-.56-1.04-1.004-1.657-1.427-.19-.13-.544-.02-.823-.02m-10.42 11.422c-.348-1.071-.215-2.144-1.405-2.281-1.185-.137-1.55.747-1.805 1.684-.01.039-.014.079-.023.118-.562 2.48-1.139 4.958-1.679 7.444a6.089 6.089 0 00-.222 1.994 1.228 1.228 0 002.16.694 2.355 2.355 0 00.657-.983c.814-2.951 1.586-5.914 2.317-8.67M58.51 30.974l-.02.117c-.319.022-.64.029-.956.068-.9.109-1.805.222-1.782 1.463.023 1.22.945 1.325 1.825 1.457 1.377.206 2.76.378 4.137.584 1.616.24 3.222.573 4.846.715a1.708 1.708 0 001.431-.691 2.45 2.45 0 00-.395-1.661 1.516 1.516 0 00-.972-.636c-2.699-.502-5.408-.95-8.114-1.415m121.925 80.936a5.879 5.879 0 00-6.302-3.445c-2.667.475-5.323 1.01-7.982 1.53-.63.122-1.254.283-1.88.427.01.163.017.327.026.49l16.138.998M160 51.306a1.374 1.374 0 00-.976 2.307c1.758 2.421 3.566 4.807 5.372 7.195a1.35 1.35 0 00.736.57 3.119 3.119 0 001.528-.17c.155-.067.163-.803.026-1.15a21.94 21.94 0 00-5.809-8.237 4.288 4.288 0 00-.877-.514M37.616 64.362c.911.495 1.826.823 2.422-.255 1.522-2.754 2.976-5.547 4.415-8.346.337-.656.297-1.472-.486-1.72a1.874 1.874 0 00-1.642.386 21.546 21.546 0 00-4.709 9.935m123.276-20.44a3.648 3.648 0 00.985-.467c1.831-1.542 3.63-3.121 5.437-4.69.78-.674.652-1.445-.119-1.864-.583-.318-1.667-.556-2.056-.243a58.385 58.385 0 00-5.624 5.118c-.84.88-.076 2.107 1.377 2.146m-29.298 42.934c-.856-1.67-1.913-2.591-3.597-2.46-1.189.095-2.367.318-3.55.479q-3.827.518-7.653 1.031c-.058.986.354 1.383 1.198 1.358l13.602-.408m34.35-35.538a3.036 3.036 0 00.863-.298c2.03-1.795 4.056-3.593 6.036-5.44a1.12 1.12 0 00.071-1.046 1.66 1.66 0 00-2.553-.528q-2.736 2.327-5.307 4.842a1.708 1.708 0 00-.227 1.513c.164.425.77.681 1.116.957M104.33 62.05l9.85.818c-.612-.753-1.023-1.23-1.403-1.73-1.816-2.389-3.755-2.98-6.616-2.004-1.537.524-1.92 1.098-1.83 2.916m22.256 19.213c-.16-.325-.284-.564-.4-.807-.989-2.08-1.065-2.105-3.362-1.785-2.878.4-5.76.767-8.64 1.155-.373.05-.74.143-1.093.213.05 1.032.6 1.267 1.38 1.27 3.822.016 7.646.047 11.47.066a4.139 4.139 0 00.645-.112m35.542-47.257a32.397 32.397 0 00-8.057-8.037 5.882 5.882 0 00-1.444-.502l-.254.294a4.897 4.897 0 00.625 1.424q3.186 3.48 6.468 6.874c.863.897 1.552.863 2.662-.053m25.351 43.005a6.32 6.32 0 00-.403 1.781q.575 4.737 1.282 9.458c.205 1.372.638 1.593 2.112 1.272.16-3.95-1.053-7.675-1.997-11.44-.08-.318-.499-.553-.994-1.07m-80.49-10.466l-.268.463c.569.472 1.091 1.268 1.714 1.357 2.586.368 5.202.523 7.98.772l-.692-3.536-8.734.943m51.038 25.884c-.204-.962-.303-1.635-.492-2.282a2.844 2.844 0 00-3.201-2.424 3.84 3.84 0 00-1.421.087c-.529.216-1.389.69-1.362.984.064.695.408 1.737.924 1.95a54.4 54.4 0 005.552 1.685m-1.911 5.22l9.736 1.663a4.394 4.394 0 00-3.203-2.662c-1.404-.285-2.827-.48-4.245-.694-1.342-.202-1.817.131-2.288 1.692m-36.207-5.916l.018.462c1.9.096 3.803.315 5.698.251a3.719 3.719 0 003.326-3.227l-9.042 2.514m-13.963-35.988c-1.199-3.502-4.37-2.707-6.934-3.397.797 2.386 4.403 4.163 6.934 3.397m63.259 49.32c-2.848-1.786-5.769-.727-8.752-1.057 1.882 2.19 6.204 2.696 8.752 1.057m-98.164-26.16l2.203-2.954-.303-.317-4.524 1.666 2.624 1.605m-3.362-6.583l3.215.396c-1.295-1.494-1.88-1.558-3.215-.396m29.973-26.157c-.044 1.891.462 2.258 1.953 1.457l-1.953-1.457m24.853 49.855l-2.038.74c1.096.864 1.505.71 2.038-.74M7.354 116.043c.013.107-.032.361.074.491.411.502.87.964 1.311 1.441.371-.375.901-.69 1.077-1.141a13.011 13.011 0 00.64-2.652c.218-1.373.275-2.777.56-4.135a2.06 2.06 0 00-1.132-2.538c-.806-.216-1.477.404-1.8 1.664a1.704 1.704 0 00-.043.235c-.227 2.18-.452 4.363-.687 6.636"/><path class="cls-5" d="M96.236 73.652l4.784-8.07a18.566 18.566 0 015.88 9.112 13.333 13.333 0 01-1.599 11.029c-1.694 2.614-3.25 5.318-4.86 7.987a3.018 3.018 0 00-.438 1.186c2.621-1.34 4.022-3.795 5.512-6.08 1.51-2.317 2.686-4.852 4.064-7.395a45.045 45.045 0 013.872 3.649 3.1 3.1 0 01.446 2.42c-.464 1.892-1.239 3.707-1.816 5.575-.387 1.256-.664 2.548-.953 3.832a1.885 1.885 0 00.138.713c.246-.123.573-.182.724-.378 1.053-1.36 2.067-2.748 3.098-4.124.231-.31.481-.606.724-.91.138.006.277.01.415.015.282 2.707.702 5.409.773 8.12a5.772 5.772 0 01-1.259 2.897c-3.873 5.869-7.805 11.7-11.71 17.55-.263.39-.476.814-.828 1.426a6.267 6.267 0 003.67-2.577q4.556-6.177 9.075-12.381c1.015-1.387 2.003-2.794 3.02-4.18a16.498 16.498 0 015.643-4.925 19.71 19.71 0 006.943-5.96 4.438 4.438 0 011.393-1.284 47.08 47.08 0 0010.233-8.255c1.097-1.088 2.24-2.131 3.448-3.276a18.85 18.85 0 01.999 8.253 6.543 6.543 0 00.947 3.362 9.5 9.5 0 011.173 6.114 7.925 7.925 0 01-4.31 5.753c-4.163 2.099-5.833 5.944-7.336 9.953-.033.089.043.22.121.573a10.008 10.008 0 001.874-1.747 23.843 23.843 0 016.533-6.61c.644-.471 1.304-.93 1.908-1.451a13.891 13.891 0 001.973-1.92 17.58 17.58 0 001.33-2.428c1.892 1.699 3.845 3.287 5.564 5.096a3.517 3.517 0 01.48 2.569c-.529 3.898-2.292 7.369-4.004 10.848-.269.546-.486 1.118-.726 1.679l.27.168a8.003 8.003 0 00.64-.606q2.421-2.822 4.826-5.656c.944-1.117 1.366-1.211 2.664-.517a10.026 10.026 0 014.736 5.055 50.208 50.208 0 001.73 3.685 4.749 4.749 0 01.22 4.156c-.443 1.113-.829 2.249-1.213 3.384a3.815 3.815 0 00-.205 1.73 5.309 5.309 0 00.615-.55c.863-1.05 1.712-2.111 2.562-3.172.494-.617 1.045-.86 1.731-.285 3.19 2.667 6.416 5.29 9.55 8.023a3.848 3.848 0 01.926 4.624c-.639 1.592-1.364 3.152-2.11 4.697-.589 1.222-1.14 1.439-2.422.994-1.238-.43-2.452-.93-3.829-1.456l2.047-2.667c-1.499-.248-2.822-.537-4.16-.672a5.407 5.407 0 01-4.623-3.472 24.766 24.766 0 00-2.407-3.811 7.117 7.117 0 00-1.54-1.174 11.228 11.228 0 00-.92 2.057c-.767 3.586-2.852 6.385-5.28 8.972a12.134 12.134 0 01-2.429 2.069 5.55 5.55 0 01-1.96.373c1.253-.963 2.56-1.826 3.688-2.88.958-.893.821-1.348-.457-1.726-1.6-.473-3.307-.633-4.865-1.205a54.06 54.06 0 01-4.98-2.386q.093-.28.188-.558a5.138 5.138 0 011.063.143 6.638 6.638 0 007.27-1.698 6.525 6.525 0 00.481-.625c-1.55-.542-2.972-1.146-4.45-1.53a6.024 6.024 0 01-4.469-3.932 5.875 5.875 0 00-2.594-3.47c-1.29-.687-1.858-.455-2.24.937a6.865 6.865 0 01-2.57 3.518c-1.28 1.025-2.614 1.983-3.853 3.054-1.105.955-1.015 1.578.271 2.269 1.12.602 2.287 1.114 3.565 1.73l-4.875 4.215c-4.27-3.312-7.615-7.184-8.39-12.745a3.82 3.82 0 00-2.397-3.417 36.78 36.78 0 01-10.54 14.21c1.1 1.007 1.941.546 2.781.077a12.644 12.644 0 012.64-1.22c-1.203 1.23-2.365 2.502-3.635 3.656a1.895 1.895 0 01-1.472.235c-2.408-.54-4.825-1.07-7.173-1.812-.759-.24-1.316-1.116-1.966-1.7l.281-.372c.753.378 1.491.79 2.264 1.123a30.59 30.59 0 002.465.915 1.376 1.376 0 001.905-.731 2.06 2.06 0 00-.659-1.696c-1.297-1.121-2.728-2.087-4.104-3.117a1.01 1.01 0 01-.416-.636l6.37 1.57q.121-.188.244-.375c-1.04-1.112-2.002-2.311-3.14-3.308a21.713 21.713 0 00-3.353-2.3 11.295 11.295 0 01-5.629-6.85 2.34 2.34 0 00-2.198-1.893c-.688-.056-1.066.206-1.035.95.103 2.479-.953 4.57-2.196 6.607-.65 1.068-1.239 2.175-1.856 3.264l.231.274 2.514-.94c-1.386 3.433-4.088 5.732-5.89 8.616l.192.299q3.053-1.54 6.106-3.076l.256.359c-1.059 1.272-2.11 2.55-3.179 3.814a256.973 256.973 0 01-3.444 3.998c-1.147 1.3-1.884 1.387-3.299.377-.512-.366-.956-.826-1.544-1.341l4.076-1.971-4.382-3.098c.993-2.53 4.276-2.131 5.568-4.465-1.229-.417-2.373-.86-3.547-1.195a9.378 9.378 0 01-6.956-6.763c-.55-1.911-1.329-2.478-3.296-2.55-.15 1.11-.322 2.236-.45 3.368a7.671 7.671 0 01-2.499 4.894c-2.064 1.94-4.049 3.965-6.042 5.979a21.08 21.08 0 00-1.37 1.696c2.36.6 4.162-.831 6.468-1.341-.903 1.349-1.516 2.453-2.983 2.98a12.441 12.441 0 01-11.958-1.518 5.224 5.224 0 01-1.377-1.731 15.855 15.855 0 008.577-1.17c-1.346-.855-2.5-1.652-3.718-2.338a9.23 9.23 0 00-2.025-.727 4.16 4.16 0 01-3.238-3.592 8.344 8.344 0 00-2.295-4.527c-.274-.284-.882-.66-1.05-.55a4.465 4.465 0 00-1.004 1.232.568.568 0 00-.023.353c.477 3.587-1.493 5.949-4.132 7.828a47.919 47.919 0 01-5.297 3.003c-.8.427-1.664.735-2.518 1.105a1.594 1.594 0 002.211.959c2.206-.704 4.408-1.423 6.613-2.13.371-.12.753-.204 1.35-.363-2.41 3.464-6.067 4.757-9.4 6.56 1.722 2.742 4.2 1.184 6.363 1.26a3.305 3.305 0 01-4.247 1.903c-2.446-1.07-4.797-2.36-7.168-3.594-.324-.17-.532-.56-1.043-1.122 1.905.229 3.516 1.03 5.26-.02a24.112 24.112 0 00-2.268-2.813 10.002 10.002 0 01-3.464-8.085c.061-1.621-.386-2.175-1.943-2.675-.214.535-.47 1.069-.644 1.628a9.986 9.986 0 01-5.038 6.124 3.84 3.84 0 00-2.248 3.25l3.51-.212.163.277-3.873 3.058c-1.465-2.017-2.995-3.905-4.275-5.95-1.182-1.888-2.108-3.937-3.125-5.926-.943-1.845-1.78-3.748-2.809-5.542a3.803 3.803 0 01.071-4.58c1.502-1.953 3.113-3.821 4.643-5.754a3.659 3.659 0 00.835-1.536 11.214 11.214 0 013.945-6.533c1.413-1.296 2.82-2.608 4.125-4.01a7.697 7.697 0 001.404-2.3 15.159 15.159 0 014.123-5.521c1.507-1.344 3.04-2.661 4.775-4.177-1.143 2.817-2.304 5.355-2.279 8.19l.305.164c1.215-1.881 2.486-3.728 3.628-5.652a67.84 67.84 0 002.881-5.386c3.74-7.835 9.245-14.436 14.811-21.424.762 2.31 1.595 4.365 2.064 6.5a4.06 4.06 0 01-.822 2.65c-1.133 1.739-2.463 3.347-3.69 5.024-.359.49-.642 1.037-.96 1.558l.252.234a5.154 5.154 0 00.686-.448c1.608-1.44 3.271-2.827 4.78-4.366a21.2 21.2 0 001.934-2.828c.235-.337.66-.92.817-.864.473.164 1.098.505 1.236.92a5.702 5.702 0 004.093 3.695c.114.036.234.054.348.09 2.181.704 2.442 1.483 1.063 3.373q-4.983 6.83-9.996 13.64c-.245.334-.453.695-.679 1.044l.252.3a16.698 16.698 0 002.235-1.402 55.92 55.92 0 009.45-10.636c3.562-5.164 7.344-10.176 10.925-15.326 1.453-2.088 2.573-4.404 3.95-6.55a16.947 16.947 0 012.602-3.242 20.905 20.905 0 006.331-9.981 24.558 24.558 0 011.115-2.773 9.452 9.452 0 012.187 5.767 4.17 4.17 0 002.677 4.243c1.871.828 2.211 1.746 1.471 3.657-1.31 3.386-2.686 6.749-4.019 10.127-.269.683-.469 1.394-.702 2.092.145.05.29.1.434.152m-6.566-7.377c-1.656 2.268-3.29 4.478-4.885 6.718a2.09 2.09 0 00-.405 1.22c.161 2.649-1.135 4.647-2.729 6.565-2.094 2.518-4.134 5.08-6.17 7.645a9.813 9.813 0 00-.799 1.437l.34.224c.2-.107.4-.212.597-.323 3.98-2.242 6.84-5.726 9.791-9.065a5.217 5.217 0 00.892-3.342 7.23 7.23 0 011.664-5.093c.818-.981 1.661-1.943 2.453-2.946 1.112-1.408.985-1.98-.749-3.04m-36.06 36.793c-2.343 2.215-4.73 4.385-7.01 6.66a30.053 30.053 0 00-3.464 4.058c-1.403 2.016-2.527 4.224-3.919 6.248-1.082 1.573-2.414 2.973-3.585 4.488a7.038 7.038 0 00-.67 1.438l.315.186a4.195 4.195 0 00.58-.325c2.044-1.596 4.155-3.117 6.09-4.837a7.607 7.607 0 002.274-3.138 16.664 16.664 0 015.212-7.72 22.65 22.65 0 001.991-2.07 8.097 8.097 0 002.185-4.988m-2.206-12.99l-.357-.121a6.948 6.948 0 00-.734.864c-2.01 3.293-4.07 6.56-5.977 9.915a7.836 7.836 0 01-3.2 3.398c-3.282 1.709-5.189 4.755-7.123 7.742-.024.037.053.138.15.37a4.853 4.853 0 00.761-.315q4.514-2.819 9.015-5.658a3.96 3.96 0 002.013-2.696 21.731 21.731 0 013.36-8.116 21.337 21.337 0 001.716-3.142 9.556 9.556 0 00.376-2.24m-20.69 23.97c-2.099-.493-3.174-.021-4.195 1.868-2.732 5.054-5.427 10.127-8.127 15.198a9.197 9.197 0 00-.417 1.174 11.063 11.063 0 005.244-4.341c2.535-4.564 4.964-9.188 7.495-13.898m61.412-10.371c-3.662 2.839-7.336 5.523-10.795 8.46a15.299 15.299 0 00-2.73 4.03c-.31.523-.57 1.28.31 1.613 1.612-1.974 3.174-3.835 5.488-4.957a25.445 25.445 0 007.362-5.867 2.61 2.61 0 00.365-3.28m-16.47-3.875l-.21-.251a2.576 2.576 0 00-.519.153 9.613 9.613 0 00-4.929 5.482 20.202 20.202 0 01-5.022 8.049c-1.513 1.554-2.937 3.194-4.543 4.95 3.415-.782 7.941-4.231 9.364-7.014a3.559 3.559 0 00.342-.892 20.564 20.564 0 013.787-7.938c.6-.83 1.154-1.692 1.73-2.54m62.492-5.401a9.676 9.676 0 00-5.294 5.28 19.064 19.064 0 01-5.189 7.088c-.98.847-1.83 1.846-2.825 2.865a2.81 2.81 0 00.49.139c3.442.038 8.022-3.62 8.698-7a15.257 15.257 0 013.425-7.285 10.569 10.569 0 00.695-1.087m-45.359 22.727l.266.275a9.743 9.743 0 00.914-.41c2.59-1.49 5.191-2.96 7.744-4.507a10.491 10.491 0 002.311-1.878 8.537 8.537 0 002.647-5.921 10.67 10.67 0 00-2.195 1.575c-1.159 1.095-2.207 2.31-3.404 3.358-2.37 2.077-4.823 4.06-7.21 6.118a8.532 8.532 0 00-1.073 1.39m-6.232-22.95a9.96 9.96 0 004.43-3.696q2.006-3.053 3.775-6.255c.261-.472.018-1.221.007-1.842a4.82 4.82 0 00-1.537.565c-3.467 2.976-4.562 7.39-6.675 11.229M61.051 131.42l.207.229c1.11-.523 2.24-1.008 3.324-1.579a14.574 14.574 0 005.71-4.997 1.892 1.892 0 00-.37-2.457c-.81-.452-1.35.121-1.837.666q-3.194 3.578-6.368 7.173a9.586 9.586 0 00-.666.965m53.435-4.742q.19.14.382.277c3.78-3.049 6.674-6.966 10.102-10.409-1.854-.96-2.775-.812-3.9.693a592.716 592.716 0 00-5.866 8.026 9.96 9.96 0 00-.717 1.413m31.057-5.956c3.118-1.445 6.702-7.49 5.986-9.962a17.659 17.659 0 00-5.987 9.962m16.136 3.275c-1.62 1.615-3.392 3.13-4.108 5.55 2.134.115 3.441-1.101 4.69-2.399 1.35-1.406 1.225-2.1-.582-3.151"/><path class="cls-5" d="M149.52 68.575a15.517 15.517 0 01-1.152 1.059c-6.819 4.95-18.866 3.735-24.69-2.44-2.731-2.895-3.429-6.366-3.217-10.184.537-9.681 6.241-16.912 15.549-19.625a10.528 10.528 0 011.132-.164c-.75.97-1.314 1.717-1.896 2.45a19.977 19.977 0 00-4.119 17.552c.656 2.964 2.685 4.956 4.737 6.895a14.408 14.408 0 009.646 3.97c1.252.048 2.496.297 4.01.487m6.866-27.907c-.012 2.376-2.665 5.023-6.633 5.543-3.537.462-5.337-.45-7.11-3.603a7.181 7.181 0 011.813-8.881 7.323 7.323 0 019.36.413c1.627 1.444 2.601 3.212 2.57 6.528m-2.398-1.67c-.032-2.11-2.627-4.183-5.214-4.166a4.2 4.2 0 00-4.052 4.07c.057 2.303 2.162 4.806 4.034 4.799 2.478-.01 5.265-2.514 5.232-4.702M33.242 75.742c1.1.212 2.058.438 3.03.576 2.066.295 2.422.6 2.92 2.73-2.433 1.22-4.755-.135-7.265-.353-.977 2.232-1.945 4.498-2.97 6.737-.199.432-.567.98-.958 1.082a1.863 1.863 0 01-1.523-.355 1.65 1.65 0 01-.083-1.418c.79-2.085 1.666-4.136 2.541-6.271-1.898-.436-3.723-.852-5.545-1.277a8.89 8.89 0 01-1.15-.33 1.201 1.201 0 01-.809-1.523 1.117 1.117 0 011.36-1.027c1.934.286 3.863.612 5.792.935s1.965.27 2.923-1.406c1.123-1.966 2.321-3.89 3.514-5.876 1.497 1.44 1.567 1.979.646 3.565-.78 1.344-1.55 2.695-2.423 4.21m82.083-48.715c1.563 1.364 1.677 1.936.87 3.337-.814 1.411-1.645 2.812-2.58 4.411 1.152.221 2.15.469 3.16.594 1.936.24 2.39.646 2.791 3.005a32.79 32.79 0 01-3.378.055 18.798 18.798 0 01-2.925-.602.934.934 0 00-1.278.653c-.86 2.06-1.83 4.075-2.682 6.139-.402.974-.955 1.275-1.948.913-1.079-.394-.806-1.145-.524-1.858.802-2.03 1.645-4.044 2.52-6.181-2.054-.467-4.033-.877-5.986-1.385a2.456 2.456 0 01-1.442-.888c-.587-1.026.312-2.07 1.564-1.879 1.893.29 3.78.622 5.666.956 1.504.266 2.038-.013 2.796-1.374 1.08-1.938 2.203-3.852 3.376-5.896m65.685 50.809c1.514 1.287 1.63 1.952.762 3.438-.803 1.374-1.602 2.751-2.504 4.301 1.107.18 2.068.387 3.04.48 1.873.18 2.567.813 2.872 2.842a5.971 5.971 0 01-4.281.146c-3.543-.963-3.155-.288-4.125 2.161-.587 1.482-1.285 2.921-1.896 4.394-.421 1.017-1.191.954-1.988.667-.88-.317-.763-.996-.476-1.686l2.625-6.289a7103.9 7103.9 0 01-5.294-1.219c-.272-.063-.543-.13-.814-.197-.927-.224-1.732-.588-1.474-1.76.248-1.125 1.137-1.085 2.003-.948 1.892.301 3.788.591 5.666.963a1.85 1.85 0 002.235-1.09c1.162-2.083 2.414-4.116 3.649-6.203M38.788 44.558c1.229.344 2.206.63 3.19.89.849.224 1.709.405 2.559.626 2.052.53 2.357 1.015 1.976 3.397-2.752-.725-5.494-1.401-8.203-2.187a2.351 2.351 0 00-2.513.547c-1.233 1.137-2.523 2.213-3.788 3.315-.091.078-.175.218-.272.227-.717.066-1.436.106-2.155.154a5.779 5.779 0 01.23-2.207c.408-.73 1.267-1.194 1.853-1.844.958-1.06.81-1.845-.476-2.432a17.508 17.508 0 00-2.701-.957c-1.065-.288-1.595-.962-1.831-2.318a8.55 8.55 0 012.278-.096 36.05 36.05 0 014.45 1.377 2.927 2.927 0 003.649-.8 23.008 23.008 0 012.463-2.272 1.04 1.04 0 011.732.173c.476.67 1.01 1.322.16 2.085-.796.715-1.596 1.425-2.601 2.322M30.591 60.53a6.542 6.542 0 01-9.519 6.08c-2.24-1.148-2.716-3.31-2.852-5.452-.275-4.31.815-6.195 6.226-6.912 3.391-.45 6.145 2.538 6.145 6.284m-6.63 3.933a3.87 3.87 0 004.106-3.892 2.966 2.966 0 00-3.203-3.096c-2.617.003-4.404 1.581-4.39 3.876.01 1.874 1.381 3.098 3.487 3.112m57.302-32.935c.158-3.857 1.204-5.49 4.133-6.45 3.416-1.12 6.393-.34 8.416 2.206a6.364 6.364 0 01-3.467 10.163 8.887 8.887 0 01-5.18-.25c-3.277-1.18-4.34-2.842-3.902-5.67m6.935 3.594a17.168 17.168 0 002.786-.911 3.717 3.717 0 001.731-4.124 3.534 3.534 0 00-2.85-3.024 5.722 5.722 0 00-5.626 1.874 3.424 3.424 0 001.551 5.697c.678.209 1.397.288 2.408.488m89.785 18.689c.683 1.322 1.35 2.54 1.952 3.791a53.878 53.878 0 014.151 11.953c.162.747.515 1.746-.495 2.072-1 .322-1.29-.615-1.6-1.377-1.762-4.32-3.556-8.626-5.31-12.948-.716-1.764-.496-2.347 1.302-3.491M42.334 35.348c1.403-1.842 2.603-3.692 4.076-5.29 2.375-2.579 4.897-5.027 7.441-7.44.411-.39 1.592-.652 1.843-.4.712.713.05 1.385-.498 2.03-2.409 2.827-4.769 5.698-7.157 8.545a47.51 47.51 0 01-1.908 2.152c-1.21 1.28-1.855 1.37-3.797.403m134.942 40.025a7.052 7.052 0 01-1.245-1.529c-1.852-4.373-3.647-8.77-5.443-13.167-.686-1.679-.407-2.36 1.496-3.404 1.19 2.661 2.497 5.26 3.524 7.963.945 2.49 1.639 5.081 2.336 7.656a7.946 7.946 0 01-.04 2.237l-.628.244m-46.872-60.779c1.283.678 2.489 1.278 3.659 1.942a52.701 52.701 0 0110.239 7.425c.593.56 1.517 1.229.807 2.07-.688.816-1.495.059-2.207-.395-3.059-1.948-6.139-3.862-9.202-5.803a46.27 46.27 0 01-2.573-1.744c-1.365-1.002-1.514-1.668-.723-3.495m-60.357 27.19c1.622.927 1.979 1.685 1.334 3.093q-3.136 6.839-6.405 13.616c-.19.391-.951.504-1.447.747-.157-.447-.492-.918-.433-1.333a10.584 10.584 0 01.725-2.633q2.393-5.6 4.895-11.158a26.378 26.378 0 011.332-2.332M15.09 67.298c1.684 1.005 1.99 1.672 1.37 3.214q-2.74 6.826-5.586 13.61c-.198.47-.805.766-1.498 1.39a6.344 6.344 0 01-.389-1.852 19.368 19.368 0 01.859-3.713c1.289-3.476 2.673-6.917 4.056-10.358.309-.768.762-1.48 1.188-2.291m58.442-9.101c-.118-.497-.411-.997-.29-1.357a32.294 32.294 0 011.334-3.067q2.39-5.217 4.789-10.428c.319-.694.649-1.304 1.614-.787.84.452 1.344.924.866 1.97-1.493 3.26-2.824 6.601-4.464 9.784a18.43 18.43 0 01-3.018 3.496c-.121.134-.351.17-.831.39m110.081 61.862c-4.217-.41-8.145-.723-12.048-1.224-.836-.107-1.584-.898-2.372-1.375.04-.132.077-.265.116-.398 1.428-.242 2.852-.508 4.284-.719a392.61 392.61 0 016.393-.878c1.828-.239 2.471.138 3.04 1.883.254.782.355 1.613.587 2.71m-13.785-51.083c-.172.158-.469.677-.849.746-4.426.799-8.358 2.82-12.288 4.859a1.79 1.79 0 01-2.197-.632c-.33-.82.211-1.187.816-1.61a35.383 35.383 0 0112.532-5.135c1.121-.261 1.96.356 1.986 1.772M7.66 99.53c-1.386-.021-1.907-1.071-1.265-2.062 2.087-3.222 4.298-6.341 7.479-8.618.809-.578 1.599-1.182 2.405-1.765.829-.599 1.207.085 1.609.605.51.661.179 1.108-.353 1.617-2.182 2.087-4.353 4.188-6.452 6.357-.91.94-1.611 2.079-2.457 3.086a5.257 5.257 0 01-.966.78m128.532-69.266a5.847 5.847 0 01-1.902.112 14.609 14.609 0 01-3.746-1.434c-2.774-1.721-5.436-3.623-8.142-5.454a5.742 5.742 0 01-.58-.418 1.345 1.345 0 01-.276-2.001c.524-.725 1.165-.56 1.79-.168 1.078.678 2.147 1.373 3.211 2.075 2.793 1.844 5.593 3.677 8.361 5.558a10.255 10.255 0 011.392 1.38l-.108.35M12.734 104.492c2.676-3.318 5.29-6.63 8.005-9.857a4.453 4.453 0 012.07-1.05 1.282 1.282 0 011.084.448 1.18 1.18 0 01-.09 1.068c-.553.827-1.204 1.587-1.827 2.365-1.944 2.425-3.858 4.876-5.85 7.26-1.459 1.745-1.866 1.696-3.392-.234m97.423-30.938c2.638.393 4.885-.581 7.146-1.651a2.298 2.298 0 012.057.185c1.482 1.365 2.779 2.93 4.277 4.562-1.286 0-2.382.058-3.47-.012-2.788-.177-5.571-.414-8.357-.622-1.805-.135-2-.392-1.653-2.462m47.879 7.942c3.755-1.836 7.458-3.695 11.214-5.441a4.735 4.735 0 012.317-.161 1.222 1.222 0 01.84.803 1.234 1.234 0 01-.514 1.044c-3.92 1.958-7.85 3.9-11.822 5.75-1.281.598-1.813.034-2.035-1.995M107.066 9.81c1.826 1.273 1.98 1.808 1.116 3.384-2.009 3.672-4.017 7.346-6.095 10.98-.236.413-.913.574-1.386.852-.168-.517-.604-1.133-.458-1.535a65.203 65.203 0 012.843-6.955c1.156-2.298 2.613-4.444 3.98-6.725m81.732 83.169c1.446 1.963 1.318 2.636-.701 3.69q-4.244 2.216-8.515 4.379a2.457 2.457 0 01-1.22.422 2.007 2.007 0 01-1.377-.664 1.967 1.967 0 01.1-1.521 2.127 2.127 0 01.999-.81c3.54-1.832 7.092-3.642 10.714-5.496M49.295 66.228c-.514-.336-.955-.594-1.364-.896-1.226-.907-1.527-1.577-.793-2.854 1.53-2.66 3.197-5.245 4.867-7.823a1.421 1.421 0 012.031-.382 1.301 1.301 0 01.418 1.895c-1.615 3.246-3.282 6.466-4.932 9.695-.054.106-.125.203-.226.365m16.556-40.303c0-4.294-.019-8.487.014-12.68.008-.974.665-1.39 1.607-1.38 1 .01 1.332.646 1.307 1.5-.107 3.555-.193 7.112-.39 10.662-.114 2.019-.564 2.27-2.538 1.898m-1.028 17.029c-4.186.211-8.33.443-12.476.61a1.391 1.391 0 01-1.633-1.494c.004-1.032.646-1.365 1.56-1.409 3.63-.177 7.258-.378 10.888-.533 1.524-.064 1.864.514 1.66 2.826m17.133-22.647c-.334-2.385.164-2.973 2.424-2.874 3.142.138 6.283.312 9.423.499a2.148 2.148 0 011.232.35c.414.369.938.949.91 1.407-.051.83-.741 1.253-1.631 1.209-1.908-.094-3.818-.173-5.727-.265-2.22-.106-4.438-.218-6.631-.326m73.77 44.27a9.962 9.962 0 01-1.237-1.784 20.42 20.42 0 00-4.187-5.928 5.004 5.004 0 01-1.213-1.745 1.916 1.916 0 01.404-1.657 1.639 1.639 0 011.596.052 24.79 24.79 0 016.324 7.265c.592 1.15.59 2.005-.518 2.77a13.545 13.545 0 00-1.17 1.027M110.631 24.04c-.114-.464-.375-.909-.275-1.248a10.051 10.051 0 01.894-1.815c1.708-3.192 3.443-6.372 5.12-9.581.512-.978 1.12-1.075 2.035-.602 1.01.522.675 1.163.302 1.881-1.393 2.686-2.747 5.392-4.162 8.065a7.252 7.252 0 01-3.914 3.3m77.788 89.177c-1.181-.018-1.774-.67-1.651-1.612a9.753 9.753 0 01.507-1.837c.819-2.416 1.672-4.82 2.479-7.24.3-.9.61-1.69 1.808-1.37a1.772 1.772 0 011.155 2.206c-1.024 3.017-2.147 6.001-3.31 8.968-.17.431-.766.695-.988.885M88.438 8.512c.28 0 .633-.11.823.02.616.423 1.561.867 1.657 1.427.132.773-.657 1.346-1.558 1.476-2.682.386-5.362.791-8.042 1.19-.355.053-.71.1-1.06.178a1.18 1.18 0 01-1.562-.718 1.435 1.435 0 01.525-1.892 1.563 1.563 0 01.53-.267q4.322-.84 8.65-1.656l.037.242M78.019 19.935c-.732 2.756-1.504 5.719-2.318 8.67a2.352 2.352 0 01-.656.982 1.228 1.228 0 01-2.16-.693 6.089 6.089 0 01.222-1.994c.54-2.486 1.117-4.964 1.679-7.444.009-.04.013-.08.023-.118.254-.937.62-1.821 1.805-1.685 1.19.137 1.057 1.21 1.405 2.282M58.51 30.976c2.705.465 5.414.913 8.113 1.415a1.51 1.51 0 01.972.636 2.456 2.456 0 01.396 1.66 1.714 1.714 0 01-1.432.692c-1.624-.142-3.23-.474-4.845-.715-1.378-.207-2.76-.38-4.138-.585-.88-.131-1.802-.235-1.825-1.456-.022-1.241.882-1.354 1.782-1.464.317-.038.637-.045.955-.066l.021-.117m121.925 80.936l-16.138-.997-.026-.49c.627-.144 1.25-.306 1.88-.429 2.66-.518 5.315-1.054 7.982-1.529a5.882 5.882 0 016.302 3.445M160 51.307a4.292 4.292 0 01.878.515 21.93 21.93 0 015.808 8.236c.138.346.129 1.082-.026 1.15a3.115 3.115 0 01-1.527.17 1.353 1.353 0 01-.737-.57c-1.805-2.387-3.614-4.773-5.372-7.195a1.374 1.374 0 01.976-2.306M37.617 64.361a21.543 21.543 0 014.709-9.934 1.874 1.874 0 011.642-.386c.782.247.823 1.063.486 1.72-1.44 2.798-2.894 5.591-4.415 8.346-.596 1.077-1.511.75-2.422.254m123.276-20.439c-1.453-.038-2.217-1.266-1.378-2.146a58.515 58.515 0 015.625-5.118c.389-.312 1.473-.074 2.056.243.77.418.897 1.19.119 1.864-1.808 1.569-3.606 3.148-5.437 4.69a3.662 3.662 0 01-.985.468m-29.298 42.932l-13.602.41c-.845.024-1.256-.372-1.198-1.358l7.652-1.033c1.184-.16 2.362-.384 3.55-.477 1.684-.133 2.742.788 3.598 2.458m34.348-35.536c-.346-.277-.952-.532-1.116-.958a1.709 1.709 0 01.228-1.513q2.563-2.513 5.306-4.841a1.659 1.659 0 012.553.528 1.118 1.118 0 01-.071 1.045c-1.98 1.848-4.006 3.646-6.035 5.44a2.996 2.996 0 01-.865.299M104.33 62.05c-.09-1.817.294-2.391 1.831-2.916 2.861-.976 4.8-.384 6.616 2.004.38.5.791.978 1.403 1.73l-9.85-.817m22.257 19.213a4.139 4.139 0 01-.646.112c-3.823-.02-7.647-.05-11.47-.066-.78-.004-1.33-.238-1.38-1.271.353-.07.72-.162 1.094-.212 2.88-.39 5.762-.755 8.64-1.156 2.297-.32 2.372-.295 3.362 1.786.116.243.239.482.4.807m35.542-47.257c-1.11.916-1.8.95-2.663.053q-3.273-3.4-6.467-6.875a4.897 4.897 0 01-.625-1.423l.253-.293a5.847 5.847 0 011.445.5 32.413 32.413 0 018.057 8.038M184.4 125.43c.157.345.486.712.445 1.03-.294 2.282-.663 4.554-1.05 7.107l-5.403-5.014c1.656-.628 3.196-1.136 4.663-1.807.548-.251.922-.881 1.376-1.338l-.03.023m3.079-48.42c.494.518.914.752.994 1.071.943 3.765 2.156 7.49 1.997 11.44-1.475.321-1.907.1-2.112-1.272q-.705-4.72-1.282-9.458a6.286 6.286 0 01.403-1.78m-80.49-10.466l8.734-.943.693 3.536c-2.779-.25-5.395-.404-7.981-.773-.623-.09-1.145-.885-1.713-1.356l.267-.464m51.039 25.884a54.575 54.575 0 01-5.552-1.685c-.516-.213-.86-1.255-.924-1.95-.027-.295.833-.768 1.362-.984a3.839 3.839 0 011.42-.087 2.842 2.842 0 013.2 2.424c.19.647.29 1.32.493 2.282m-1.91 5.218c.47-1.56.946-1.894 2.288-1.692 1.418.214 2.84.41 4.245.694a4.395 4.395 0 013.203 2.663l-9.736-1.665"/><path class="cls-5" d="M184.43 125.408c-2.704-.438-5.41-.871-8.112-1.316-.646-.106-1.286-.25-1.93-.377l-.001-.3c.844-.115 1.685-.261 2.533-.341 1.824-.17 3.65-.307 5.477-.457 2.007-.166 2.719.834 2.004 2.814l.03-.023M119.91 91.732l9.043-2.514a3.718 3.718 0 01-3.327 3.227c-1.894.064-3.798-.155-5.697-.25l-.018-.463m-13.963-35.987c-2.531.766-6.137-1.011-6.934-3.397 2.564.69 5.734-.105 6.934 3.397m63.258 49.319c-2.548 1.639-6.87 1.133-8.752-1.056 2.983.329 5.904-.729 8.752 1.056m-98.163-26.16l-2.624-1.606 4.524-1.665q.151.16.303.317l-2.203 2.954M67.68 72.32c1.335-1.162 1.92-1.098 3.215.397l-3.215-.397m29.973-26.156l1.953 1.458c-1.49.8-1.997.433-1.953-1.458m24.854 49.856c-.534 1.45-.942 1.603-2.038.74.704-.257 1.31-.477 2.038-.74"/><path class="cls-4" d="M89.67 66.275c1.734 1.06 1.861 1.632.749 3.04-.792 1.003-1.635 1.965-2.454 2.946a7.226 7.226 0 00-1.663 5.093 5.215 5.215 0 01-.892 3.342c-2.952 3.339-5.811 6.823-9.791 9.066-.197.11-.398.215-.597.322l-.34-.224a9.802 9.802 0 01.799-1.436c2.036-2.565 4.076-5.128 6.169-7.646 1.595-1.918 2.89-3.916 2.729-6.564a2.084 2.084 0 01.406-1.221c1.594-2.24 3.229-4.45 4.885-6.718m-36.061 36.793a8.105 8.105 0 01-2.185 4.988 22.78 22.78 0 01-1.991 2.07 16.666 16.666 0 00-5.212 7.72 7.604 7.604 0 01-2.275 3.138c-1.934 1.72-4.045 3.24-6.09 4.836a4.2 4.2 0 01-.58.326l-.315-.187a7.038 7.038 0 01.67-1.438c1.172-1.514 2.504-2.914 3.586-4.487 1.392-2.024 2.516-4.232 3.918-6.248a30.071 30.071 0 013.464-4.057c2.28-2.276 4.667-4.447 7.01-6.66m-2.207-12.99a9.504 9.504 0 01-.375 2.24 21.43 21.43 0 01-1.717 3.142 21.733 21.733 0 00-3.36 8.116 3.959 3.959 0 01-2.013 2.697q-4.504 2.832-9.015 5.657a4.813 4.813 0 01-.76.315c-.098-.232-.174-.333-.15-.37 1.934-2.987 3.84-6.033 7.122-7.742a7.838 7.838 0 003.201-3.398c1.907-3.354 3.965-6.621 5.976-9.915a7.11 7.11 0 01.734-.864c.12.04.238.08.357.122M30.713 114.05c-2.531 4.71-4.96 9.334-7.496 13.898a11.055 11.055 0 01-5.243 4.341 9.197 9.197 0 01.417-1.174c2.699-5.071 5.395-10.144 8.127-15.198 1.02-1.889 2.096-2.361 4.195-1.867m61.411-10.37a2.61 2.61 0 01-.365 3.277 25.436 25.436 0 01-7.362 5.868c-2.314 1.122-3.876 2.982-5.488 4.957-.88-.333-.62-1.09-.31-1.613a15.312 15.312 0 012.73-4.03c3.46-2.938 7.133-5.62 10.795-8.46m-16.47-3.877c-.575.847-1.13 1.71-1.73 2.54a20.568 20.568 0 00-3.787 7.938 3.535 3.535 0 01-.342.892c-1.423 2.783-5.949 6.232-9.364 7.013 1.606-1.756 3.03-3.396 4.543-4.95a20.206 20.206 0 005.022-8.048 9.607 9.607 0 014.93-5.482 2.453 2.453 0 01.518-.153l.21.25m62.493-5.402a10.529 10.529 0 01-.696 1.087 15.255 15.255 0 00-3.424 7.286c-.677 3.38-5.256 7.037-8.698 6.999a2.695 2.695 0 01-.49-.139c.995-1.018 1.844-2.018 2.825-2.865a19.064 19.064 0 005.189-7.088 9.672 9.672 0 015.294-5.28m-45.359 22.728a8.477 8.477 0 011.073-1.39c2.387-2.058 4.839-4.041 7.21-6.118 1.196-1.048 2.245-2.263 3.403-3.357a10.691 10.691 0 012.195-1.576 8.536 8.536 0 01-2.646 5.92 10.491 10.491 0 01-2.311 1.879c-2.554 1.548-5.156 3.017-7.744 4.508a9.653 9.653 0 01-.915.41l-.265-.276m-6.233-22.95c2.113-3.837 3.208-8.252 6.676-11.228a4.815 4.815 0 011.536-.566c.011.623.254 1.37-.006 1.843q-1.764 3.197-3.777 6.254a9.96 9.96 0 01-4.429 3.698M61.052 131.42a9.424 9.424 0 01.665-.965q3.172-3.597 6.368-7.173c.487-.545 1.028-1.117 1.837-.665a1.891 1.891 0 01.37 2.457 14.585 14.585 0 01-5.71 4.997c-1.084.571-2.214 1.055-3.323 1.578l-.207-.229m53.435-4.742a9.96 9.96 0 01.717-1.413 575.986 575.986 0 015.867-8.026c1.124-1.505 2.045-1.654 3.899-.693-3.428 3.443-6.321 7.36-10.103 10.409l-.38-.277m31.056-5.956a17.659 17.659 0 015.987-9.962c.716 2.472-2.868 8.517-5.987 9.962m16.137 3.275c1.807 1.05 1.932 1.745.581 3.15-1.248 1.299-2.555 2.515-4.689 2.4.716-2.42 2.488-3.935 4.108-5.55m-7.692-84.998c.033 2.188-2.754 4.693-5.232 4.702-1.872.007-3.977-2.496-4.034-4.798a4.2 4.2 0 014.052-4.071c2.587-.017 5.182 2.057 5.214 4.167M23.962 64.463c-2.106-.014-3.478-1.238-3.488-3.112-.013-2.295 1.774-3.873 4.39-3.876a2.966 2.966 0 013.203 3.096 3.87 3.87 0 01-4.106 3.892M88.198 35.12c-1.01-.2-1.73-.278-2.408-.487a3.424 3.424 0 01-1.55-5.697 5.722 5.722 0 015.625-1.874 3.534 3.534 0 012.85 3.024 3.717 3.717 0 01-1.73 4.124 17.168 17.168 0 01-2.787.91"/><path class="cls-5" d="M97.945 158.804c1.862.25 3.665.449 5.457.749 1.192.199 1.452.626 1.458 1.966 0 .178.006.357-.005.535-.167 2.723-.52 3.142-2.848 3.189-1.771.036-3.544.007-5.285.007-.873-1.492-.735-2.072.644-2.243 1.305-.162 2.63-.09 3.947-.137.706-.025 1.41-.084 2.189-.133l.126-1.5c-1.681 0-3.257.06-4.828-.014-1.892-.09-2.902-1.811-2.365-3.89.322-1.246.742-1.67 1.87-1.62 2.17.095 4.34.247 6.508.425.224.018.427.373.639.57-.191.227-.371.63-.577.65-1.158.106-2.322.108-3.484.168a92.31 92.31 0 00-2.724.194c-.44.035-.798.19-.722 1.084m-47.527 6.263c-.823-1.48-.766-3.156-.852-4.788-.025-.469.053-.945.028-1.413-.098-1.769.24-2.377 1.77-2.603 1.448-.213 2.916-.253 4.377-.338.552-.032 1.108.017 1.66.04 1.324.055 1.78.385 1.949 1.887a14.438 14.438 0 01-.192 5.451c-.244.907-.694 1.333-1.361 1.4-2.445.243-4.883.826-7.38.364m8.012-7.803c-2.242.29-4.43.564-6.614.858-.622.084-.84.568-.796 1.258.066 1.051.128 2.102.197 3.25 1.883 0 3.694.034 5.502-.02.583-.017 1.032-.396 1.13-1.19.163-1.327.367-2.647.58-4.156m27.285 3.036c1.658-.167 3.113-.315 4.57-.458.402-.039.806-.065 1.21-.093.877-.062 1.335.42 1.375 1.713-2.226.462-4.558-.229-6.873.482l.25 1.596c1.811 0 3.571-.006 5.33.002a2.398 2.398 0 012.15.646c-.225.276-.398.669-.65.761a4.409 4.409 0 01-1.356.158c-1.709.06-3.419.102-5.129.154-.92.027-1.376-.231-1.55-1.261-.356-2.078-.614-4.181-.86-6.282-.08-.683.104-1.352.807-1.471a18.336 18.336 0 017.451-.047c-.32 1.188-.974 1.217-1.704 1.204-1.763-.031-3.528-.01-5.427-.01l.406 2.906m34.497.138c1.659-.167 3.114-.315 4.57-.458.403-.04.807-.065 1.21-.093.878-.062 1.336.42 1.376 1.713-2.226.462-4.558-.23-6.873.482.08.522.16 1.026.249 1.596 1.812 0 3.572-.006 5.33.002a2.398 2.398 0 012.15.646c-.224.276-.397.669-.65.76a4.409 4.409 0 01-1.355.159c-1.71.06-3.42.102-5.13.154-.92.027-1.375-.231-1.55-1.261-.355-2.078-.613-4.181-.86-6.282-.08-.683.105-1.352.808-1.471a18.336 18.336 0 017.45-.047c-.32 1.188-.973 1.217-1.703 1.204-1.763-.031-3.528-.01-5.427-.01l.406 2.906m32.642 0c1.658-.167 3.113-.315 4.569-.458.403-.04.807-.065 1.211-.093.877-.062 1.335.42 1.375 1.713-2.226.462-4.558-.23-6.873.482l.249 1.596c1.812 0 3.572-.006 5.331.002a2.398 2.398 0 012.149.646c-.224.276-.397.669-.65.76a4.409 4.409 0 01-1.355.159c-1.709.06-3.419.102-5.129.154-.92.027-1.376-.231-1.551-1.261-.355-2.078-.613-4.181-.859-6.282-.081-.683.104-1.352.807-1.471a18.336 18.336 0 017.451-.047c-.32 1.188-.974 1.217-1.704 1.204-1.763-.031-3.528-.01-5.427-.01l.406 2.906m-80.476 5.275c-.617-.27-.95-.322-1.16-.537-.165-.168-.163-.547-.259-.82-.753-2.13-.886-2.233-2.904-2.162-.556.02-1.111.105-1.667.128s-1.112.005-1.69.005l-1.332 2.697c-.965-.738-.441-1.506-.357-2.225-.771-.435-1.453-.924-1.009-2.167l1.899-.192c.39-.984.811-1.982 1.183-3.004a1.45 1.45 0 011.378-1.13c1.098-.059 2.19-.24 3.287-.333.992-.083 1.503.407 1.626 1.588.194 1.872.333 3.753.531 5.624.073.681.248 1.347.474 2.528m-2.961-8.059c-.717.09-1.353.136-1.98.253-1.756.325-1.777.364-2.016 2.65.719-.062 1.413-.175 2.107-.166.727.01 1.453.137 2.352.231l-.463-2.968m72.39.892c.228 1.235.364 2.1.55 2.952.283 1.3.655 1.609 1.789 1.683 1.563.102 3.123.24 4.685.362.151.012.352-.043.445.049.243.242.602.545.605.829.004.267-.377.762-.608.778a62.808 62.808 0 01-6.312.22 2.025 2.025 0 01-1.429-1.304 30.24 30.24 0 01-.776-5.215c-.095-1.56.272-2.04 1.625-2.207a40.234 40.234 0 015.137-.225 4.956 4.956 0 011.584.622 1.27 1.27 0 01-1.546.943 32.846 32.846 0 00-3.618-.046 11.51 11.51 0 00-2.131.559m-33.359-.158c.251 1.235.401 2.101.606 2.952.311 1.3.722 1.61 1.971 1.683 1.722.102 3.441.24 5.162.362.167.012.387-.043.49.05.267.241.663.544.667.828a1.045 1.045 0 01-.67.778c-2.316.142-4.639.29-6.955.22a2.167 2.167 0 01-1.574-1.304 27.62 27.62 0 01-.855-5.215c-.105-1.559.3-2.04 1.791-2.207a48.793 48.793 0 015.66-.225 5.807 5.807 0 011.744.622c-.382.962-1 .976-1.703.943a39.86 39.86 0 00-3.986-.046 13.71 13.71 0 00-2.348.56m-69.49-.217c.251 1.235.401 2.101.606 2.952.311 1.3.722 1.609 1.971 1.683 1.722.102 3.441.24 5.162.362.167.012.387-.043.49.049.267.242.663.545.667.829a1.045 1.045 0 01-.67.778c-2.316.142-4.639.29-6.955.22a2.167 2.167 0 01-1.574-1.304 27.62 27.62 0 01-.855-5.215c-.105-1.559.3-2.04 1.791-2.207a48.793 48.793 0 015.66-.225 5.807 5.807 0 011.744.622c-.382.962-1 .976-1.703.943a39.86 39.86 0 00-3.986-.046 13.71 13.71 0 00-2.348.559m92.88 2.211c.035 1.478.063 2.63.087 3.782a2.632 2.632 0 01-.026.912c-.092.248-.396.606-.558.58a1.376 1.376 0 01-.761-.556 1.399 1.399 0 01-.096-.717c-.041-2.104-.092-4.21-.1-6.314a8.76 8.76 0 01.332-1.56 45.277 45.277 0 006.342 6.148l.464-4.72a5.473 5.473 0 01.152-1.277.95.95 0 01.668-.458c.144-.025.42.239.482.432a3.697 3.697 0 01.13 1.09c.005 1.795-.015 3.59-.016 5.385 0 .615.12 1.246-.597 1.572a1.753 1.753 0 01-2.1-.102c-1.21-1.112-2.396-2.253-3.59-3.383-.201-.191-.393-.392-.813-.814m-56.124-4.724c1.364.428 1.352.433 1.342 1.76-.014 1.876-.003 3.75-.003 5.876 1.13-.08 2.218-.18 3.308-.224.803-.032 1.631-.046 2.022 1.205-.253.194-.478.509-.725.534a44.78 44.78 0 01-4.938.357c-1.267-.014-1.67-.808-1.592-2.382.082-1.644.069-3.295.171-4.937a16.973 16.973 0 01.415-2.19m43.776 25.892c-6.975-1.135-11.442-.268-17.273-.648a217.501 217.501 0 01-3.281-.248c-2.07.049-4.196.063-6.402.023q-2.625.092-5.234.193a22.571 22.571 0 01-4.347.163q-3.843.147-7.74.26 1.758 1.038 3.65 2.076c14.225 1.159 41.881 1.632 43.183.734l-2.556-2.553m9.786-8.805c-3.494-.04-6.871-.107-10.063-.112-.33 0-.65-.003-.98-.004-14.97.681-30.27 1.272-49.04.624l-12.771.24a2.558 2.558 0 00.36 1.214 105.955 105.955 0 0022.457 2.35c16.926-.107 34.278-.075 51.307-.149 3.952-.018 7.309-.232 11.06-.36l-12.33-3.803M9.662 118.07l-1.638.075c-.244-.53-.47-.792-.456-1.021.15-2.643.319-5.283.529-7.917.053-.66.454-1.227 1.207-1.064.835.18 1.004.816.932 1.625-.227 2.573-.364 5.16-.574 8.303"/></g></g></svg>