<svg xmlns="http://www.w3.org/2000/svg" viewBox="0 0 198.65 198.65"><defs><clipPath id="clip-path"><path fill="none" d="M0 0h198.65v198.65H0z"/></clipPath><style>.cls-4{fill:#0b242b}.cls-5{fill:#f8a667}</style></defs><g id="Layer_2" data-name="Layer 2"><g clip-path="url(#clip-path)" opacity=".9" id="Layer_1-2" data-name="Layer 1"><path class="cls-4" d="M198.65 99.32A99.33 99.33 0 1199.32 0a99.33 99.33 0 0199.33 99.32"/><path class="cls-4" d="M2 106.46v-13.2c.15-.93.38-1.85.45-2.79a93 93 0 014.86-22.79 95.45 95.45 0 0129.47-42.8A94.64 94.64 0 0186 3l6.49-.93h13a7 7 0 001 .25c3.25.4 6.53.64 9.75 1.2 21.1 3.69 39.16 13.11 53.84 28.8 9.83 10.52 17.49 22.41 22.05 36.13 6.64 20 6.31 40.09.52 60.16-4.89 17-14.31 31.09-27.42 42.82-17.82 15.94-38.38 25.19-62.57 25.57a4.33 4.33 0 00-.77.19H100c-.3-.06-.6-.16-.9-.19-5.24-.49-10.53-.69-15.72-1.5-23.86-3.74-43.44-15-58.82-33.67a95.21 95.21 0 01-21.58-49c-.29-2.13-.6-4.25-.9-6.38m182.37 19c.72-2 0-3-2-2.81-1.83.15-3.66.28-5.48.45-.85.08-1.69.23-2.53.34v.3c.64.13 1.28.28 1.93.38 2.7.45 5.41.88 8.11 1.32-.45.45-.83 1.08-1.38 1.34-1.46.67-3 1.17-4.66 1.8l5.41 5c.38-2.56.75-4.83 1-7.11 0-.32-.29-.69-.45-1M96.24 73.65l-.44-.15c.23-.7.43-1.41.7-2.09 1.34-3.38 2.71-6.74 4-10.13.74-1.91.4-2.83-1.47-3.66a4.17 4.17 0 01-2.68-4.24 9.4 9.4 0 00-2.18-5.77 23.77 23.77 0 00-1.12 2.78 20.87 20.87 0 01-6.33 10 17 17 0 00-2.6 3.24c-1.38 2.15-2.5 4.46-4 6.55-3.58 5.15-7.36 10.16-10.93 15.33a55.62 55.62 0 01-9.45 10.63 15.82 15.82 0 01-2.23 1.4l-.25-.3c.22-.34.43-.71.68-1q5-6.83 10-13.64c1.38-1.89 1.12-2.67-1.06-3.37a3.58 3.58 0 00-.35-.09 5.71 5.71 0 01-4.09-3.7c-.14-.41-.76-.75-1.24-.92-.15 0-.58.53-.81.87a21.63 21.63 0 01-1.94 2.82c-1.51 1.54-3.17 2.93-4.78 4.37a5.34 5.34 0 01-.68.45l-.26-.24c.32-.52.6-1.06 1-1.55 1.23-1.68 2.56-3.29 3.69-5a4.06 4.06 0 00.83-2.65C57.8 71.37 57 69.31 56.2 67c-5.56 7-11.07 13.59-14.81 21.43a69.45 69.45 0 01-2.88 5.38c-1.14 1.93-2.41 3.77-3.63 5.65l-.3-.16c0-2.83 1.13-5.37 2.28-8.19-1.74 1.52-3.27 2.83-4.78 4.18a15.09 15.09 0 00-4.08 5.52 7.66 7.66 0 01-1.41 2.3c-1.3 1.4-2.71 2.71-4.12 4a11.23 11.23 0 00-3.95 6.53 3.58 3.58 0 01-.83 1.54c-1.53 1.93-3.14 3.8-4.64 5.75a3.81 3.81 0 00-.08 4.58c1 1.79 1.87 3.7 2.81 5.54 1 2 2 4 3.13 5.93s2.81 3.93 4.27 5.95l3.82-3.05-.17-.28-3.51.22a3.83 3.83 0 012.25-3.25 10 10 0 005-6.13c.17-.56.43-1.09.64-1.63 1.56.5 2 1.06 1.95 2.68a10 10 0 003.46 8.08 23.29 23.29 0 012.38 2.82c-1.75 1.05-3.36.25-5.26 0 .51.56.72 1 1 1.12 2.37 1.23 4.72 2.52 7.17 3.59a3.31 3.31 0 004.25-1.9c-2.17-.08-4.64 1.48-6.37-1.26 3.34-1.8 7-3.1 9.4-6.56-.59.16-1 .24-1.35.36-2.2.71-4.4 1.43-6.61 2.13a1.59 1.59 0 01-2.21-1c.85-.37 1.72-.67 2.52-1.1a48.08 48.08 0 005.29-3c2.63-1.77 4.6-4.19 4.17-7.77a.55.55 0 010-.36 4.69 4.69 0 011-1.23c.17-.11.78.27 1.05.55a8.35 8.35 0 012.3 4.53 4.16 4.16 0 003.24 3.59 9.17 9.17 0 012 .73c1.22.69 2.37 1.48 3.72 2.34a15.89 15.89 0 01-8.58 1.17 5.23 5.23 0 001.38 1.73 12.48 12.48 0 0012 1.52c1.46-.53 2.08-1.64 3-3-2.31.51-4.11 1.94-6.47 1.34.49-.61.88-1.2 1.37-1.7l6-6a7.6 7.6 0 002.5-4.89c.13-1.13.3-2.26.45-3.37 2 .07 2.75.64 3.3 2.55a9.38 9.38 0 007 6.76c1.17.34 2.31.78 3.54 1.2-1.29 2.33-4.57 1.93-5.57 4.46l4.39 3.1-4.08 2a20.31 20.31 0 001.46 1.35c1.42 1 2.16.93 3.3-.37s2.31-2.66 3.45-4 2.12-2.54 3.18-3.82l-.26-.36-6.11 3.08c-.06-.1-.12-.2-.19-.3 1.8-2.88 4.51-5.18 5.89-8.61l-2.51.94-.23-.28c.61-1.09 1.2-2.19 1.85-3.26 1.25-2 2.3-4.13 2.2-6.61 0-.74.35-1 1-1a2.34 2.34 0 012.2 1.9 11.34 11.34 0 005.63 6.84 22.31 22.31 0 013.35 2.3c1.14 1 2.1 2.2 3.14 3.31l-.24.38-6.32-1.51a1 1 0 00.42.63c1.37 1 2.8 2 4.1 3.12a2.06 2.06 0 01.66 1.7 1.39 1.39 0 01-1.91.73c-.83-.28-1.66-.57-2.46-.92s-1.51-.74-2.26-1.12c-.1.12-.19.25-.28.37.64.59 1.2 1.46 2 1.7 2.35.74 4.77 1.27 7.17 1.81a1.9 1.9 0 001.48-.23c1.27-1.16 2.43-2.43 3.63-3.66a13 13 0 00-2.64 1.22c-.84.47-1.68.93-2.78-.07A36.82 36.82 0 00123 125.05a3.84 3.84 0 012.4 3.42c.77 5.56 4.12 9.43 8.39 12.75l4.87-4.22c-1.28-.61-2.44-1.13-3.56-1.73-1.29-.69-1.38-1.31-.27-2.27s2.57-2 3.85-3.05a6.88 6.88 0 002.57-3.52c.38-1.39.95-1.62 2.24-.94A6 6 0 01146 129a6 6 0 004.47 3.94c1.48.38 2.9 1 4.45 1.53a5.29 5.29 0 01-.48.62 6.64 6.64 0 01-7.27 1.7 4.67 4.67 0 00-1.06-.14c-.07.18-.13.37-.19.55a52.85 52.85 0 005 2.39c1.56.57 3.26.73 4.86 1.2 1.28.38 1.42.84.46 1.73-1.13 1.05-2.43 1.92-3.69 2.88a5.55 5.55 0 002-.37 12 12 0 002.43-2.07c2.43-2.59 4.52-5.39 5.28-9a12 12 0 01.92-2.06 7.34 7.34 0 011.54 1.17 23.82 23.82 0 012.41 3.82 5.4 5.4 0 004.62 3.47c1.34.13 2.66.42 4.16.67l-2 2.67c1.37.52 2.59 1 3.82 1.45s1.84.23 2.43-1c.74-1.55 1.47-3.11 2.11-4.7a3.86 3.86 0 00-.93-4.62c-3.13-2.74-6.36-5.36-9.55-8-.69-.57-1.24-.33-1.73.29-.85 1.06-1.7 2.12-2.56 3.17a5.41 5.41 0 01-.62.55 3.82 3.82 0 01.21-1.73c.38-1.13.77-2.27 1.21-3.38a4.75 4.75 0 00-.22-4.16c-.62-1.2-1.2-2.43-1.73-3.68a10 10 0 00-4.74-5.06c-1.29-.69-1.72-.6-2.66.52q-2.4 2.84-4.83 5.65a6.15 6.15 0 01-.64.61l-.27-.17c.24-.56.46-1.13.73-1.68 1.71-3.48 3.48-7 4-10.85a3.47 3.47 0 00-.47-2.56c-1.72-1.81-3.68-3.4-5.57-5.1a16.9 16.9 0 01-1.33 2.43 13.77 13.77 0 01-2 1.92c-.61.52-1.27 1-1.91 1.45a23.76 23.76 0 00-6.53 6.61 10.37 10.37 0 01-1.88 1.75c-.08-.36-.15-.49-.12-.58 1.5-4 3.17-7.85 7.34-10a7.92 7.92 0 004.31-5.75 9.51 9.51 0 00-1.21-6.08 6.54 6.54 0 01-.94-3.36 18.86 18.86 0 00-1-8.25c-1.21 1.14-2.35 2.19-3.45 3.27A47.06 47.06 0 01133 90.9a4.62 4.62 0 00-1.4 1.28 19.45 19.45 0 01-6.94 6 16.51 16.51 0 00-5.64 4.93c-1 1.38-2 2.79-3 4.18q-4.53 6.19-9.08 12.38a6.27 6.27 0 01-3.67 2.58c.36-.62.57-1 .83-1.43 3.91-5.85 7.84-11.68 11.71-17.55a5.74 5.74 0 001.26-2.9c-.07-2.71-.49-5.41-.77-8.12h-.42c-.24.3-.49.6-.72.91-1 1.37-2 2.76-3.1 4.12-.15.2-.48.26-.72.38 0-.24-.19-.5-.14-.71.29-1.29.56-2.58 1-3.84.58-1.86 1.35-3.68 1.82-5.57a3.11 3.11 0 00-.45-2.42 45.27 45.27 0 00-3.87-3.65c-1.38 2.54-2.55 5.08-4.06 7.4s-2.9 4.74-5.52 6.08a3 3 0 01.44-1.19c1.61-2.67 3.17-5.37 4.86-8a13.33 13.33 0 001.6-11 18.6 18.6 0 00-6.02-9.18l-4.78 8.07m53.28-5.08c-1.51-.19-2.76-.43-4-.48a14.42 14.42 0 01-9.65-4c-2.05-1.94-4.08-3.93-4.73-6.9a19.93 19.93 0 014.12-17.55c.58-.73 1.14-1.48 1.89-2.45-.6.09-.88.09-1.13.16-9.3 2.75-15 9.98-15.54 19.65-.21 3.82.49 7.29 3.22 10.18 5.82 6.18 17.87 7.39 24.69 2.44a14.5 14.5 0 001.15-1.06m6.87-27.9c0-3.32-.95-5.09-2.57-6.53a7.33 7.33 0 00-9.36-.41 7.17 7.17 0 00-1.82 8.88c1.78 3.15 3.58 4.06 7.11 3.6 4-.52 6.62-3.17 6.64-5.54M33.24 75.74c.87-1.51 1.64-2.87 2.42-4.21.93-1.59.86-2.12-.64-3.56-1.19 2-2.39 3.91-3.52 5.87-.95 1.68-1 1.73-2.92 1.41s-3.86-.65-5.79-.94a1.12 1.12 0 00-1.36 1 1.2 1.2 0 00.81 1.52 8.92 8.92 0 001.15.33l5.54 1.28c-.87 2.13-1.75 4.19-2.54 6.27a1.64 1.64 0 00.09 1.42 1.85 1.85 0 001.52.35c.39-.1.76-.65 1-1.08 1-2.24 2-4.5 3-6.74 2.51.22 4.83 1.58 7.26.36-.5-2.13-.85-2.44-2.92-2.73-1-.14-1.93-.37-3-.58M115.33 27c-1.18 2-2.3 3.95-3.38 5.89-.76 1.36-1.29 1.64-2.8 1.38-1.88-.34-3.77-.67-5.66-1-1.25-.19-2.15.85-1.57 1.88a2.49 2.49 0 001.45.89c1.95.5 3.93.92 6 1.38-.87 2.14-1.72 4.15-2.52 6.18-.28.72-.55 1.47.52 1.86s1.55.06 2-.91c.86-2.07 1.82-4.08 2.69-6.14a.92.92 0 011.27-.65 19.78 19.78 0 002.93.6 32 32 0 003.38-.06c-.4-2.36-.86-2.76-2.79-3-1-.13-2-.38-3.17-.6.94-1.59 1.77-3 2.58-4.41s.7-2-.86-3.33M181 77.84c-1.23 2.08-2.49 4.12-3.65 6.2a1.85 1.85 0 01-2.23 1.09c-1.88-.37-3.78-.66-5.67-1-.87-.14-1.76-.18-2 .94s.54 1.54 1.47 1.76l.81.2 5.3 1.22-2.63 6.29c-.28.69-.4 1.37.48 1.68s1.57.35 2-.66c.61-1.48 1.31-2.91 1.89-4.4 1-2.45.59-3.12 4.13-2.16a6 6 0 004.28-.14c-.3-2-1-2.67-2.87-2.85-1-.09-1.93-.3-3-.48l2.5-4.3c.87-1.48.75-2.15-.76-3.43M38.79 44.56l2.6-2.32c.85-.77.32-1.42-.16-2.09A1 1 0 0039.5 40a23.16 23.16 0 00-2.5 2.25 2.91 2.91 0 01-3.64.8 35.33 35.33 0 00-4.46-1.38 8.42 8.42 0 00-2.27.1 2.45 2.45 0 001.83 2.32 18.4 18.4 0 012.7.95c1.29.59 1.43 1.38.47 2.44-.58.65-1.44 1.11-1.85 1.84a5.81 5.81 0 00-.23 2.21c.72-.05 1.44-.09 2.16-.16.09 0 .18-.15.27-.22C33.27 50 34.56 49 35.8 47.83a2.35 2.35 0 012.51-.55c2.71.79 5.45 1.47 8.2 2.19.38-2.38.08-2.87-2-3.4-.85-.22-1.71-.4-2.56-.62s-2-.55-3.19-.89m-8.2 16c0-3.75-2.75-6.73-6.14-6.28-5.42.72-6.42 2.57-6.2 6.88.14 2.14.61 4.3 2.85 5.45a6.54 6.54 0 009.52-6.08m50.67-29c-.44 2.82.63 4.49 3.9 5.67a8.93 8.93 0 005.19.25 6.37 6.37 0 003.46-10.17c-2-2.54-5-3.32-8.41-2.2-2.93 1-4 2.59-4.14 6.45M178 53.81c-1.79 1.14-2 1.73-1.3 3.49 1.76 4.32 3.55 8.63 5.31 13 .31.76.6 1.7 1.6 1.38s.66-1.33.5-2.08a54.42 54.42 0 00-4.15-11.95c-.61-1.25-1.27-2.47-2-3.79M42.33 35.35c2 1 2.59.87 3.8-.4.66-.7 1.29-1.42 1.91-2.16 2.39-2.84 4.75-5.71 7.16-8.54.54-.65 1.21-1.32.49-2-.25-.25-1.43 0-1.84.4-2.54 2.41-5.06 4.86-7.44 7.44-1.47 1.6-2.67 3.45-4.08 5.29m135 40l.62-.24a7.68 7.68 0 000-2.24c-.69-2.57-1.39-5.16-2.33-7.65-1-2.71-2.33-5.31-3.53-8-1.9 1-2.18 1.73-1.49 3.41 1.79 4.39 3.59 8.79 5.44 13.16a6.66 6.66 0 001.25 1.53M130.4 14.59c-.79 1.83-.64 2.5.73 3.5.83.61 1.7 1.19 2.57 1.74 3.06 1.94 6.14 3.86 9.2 5.81.71.45 1.52 1.21 2.21.39s-.22-1.51-.81-2.07a52.24 52.24 0 00-10.24-7.42c-1.17-.67-2.37-1.27-3.66-1.95M70.05 41.78a24.66 24.66 0 00-1.33 2.34q-2.49 5.55-4.9 11.15a10.55 10.55 0 00-.72 2.64c-.06.41.27.88.43 1.33.49-.24 1.26-.36 1.45-.75 2.19-4.51 4.31-9.05 6.4-13.61.65-1.41.29-2.17-1.33-3.1m-55 25.52a25.22 25.22 0 00-1.19 2.29C12.52 73 11.14 76.47 9.85 80A19.42 19.42 0 009 83.66a6 6 0 00.39 1.85c.69-.62 1.3-.92 1.49-1.39 1.91-4.52 3.76-9.06 5.59-13.61.62-1.54.31-2.21-1.37-3.21m58.44-9.1c.48-.22.71-.26.83-.39a18.33 18.33 0 003-3.5c1.64-3.18 3-6.52 4.46-9.78.48-1.05 0-1.52-.86-2s-1.3.09-1.62.79l-4.77 10.45a33.17 33.17 0 00-1.34 3.07c-.12.36.17.86.29 1.36m110.08 61.86c-.23-1.1-.33-1.93-.58-2.71-.57-1.75-1.22-2.12-3-1.88-2.14.28-4.27.56-6.4.87-1.43.22-2.85.48-4.28.72l-.12.4c.79.48 1.54 1.27 2.38 1.38 3.9.5 7.83.81 12 1.22M169.83 69c0-1.42-.87-2-2-1.78a35.35 35.35 0 00-12.53 5.14c-.6.42-1.15.79-.82 1.61a1.8 1.8 0 002.2.63c3.93-2 7.86-4.06 12.29-4.86.38-.07.68-.59.85-.74M7.66 99.53a5.05 5.05 0 001-.78c.84-1 1.54-2.15 2.45-3.09 2.1-2.16 4.27-4.27 6.46-6.35.53-.51.86-1 .35-1.62s-.78-1.2-1.61-.6-1.6 1.18-2.41 1.76c-3.18 2.28-5.39 5.4-7.47 8.62-.65 1-.13 2 1.26 2.06m128.5-69.27c0-.11.07-.23.11-.35a10.65 10.65 0 00-1.39-1.38c-2.77-1.88-5.57-3.71-8.36-5.55-1.07-.71-2.14-1.4-3.21-2.08-.63-.39-1.27-.56-1.79.17a1.34 1.34 0 00.27 2 6.13 6.13 0 00.58.42c2.71 1.83 5.37 3.73 8.14 5.45a14.79 14.79 0 003.75 1.44 5.89 5.89 0 001.9-.12M12.73 104.49c1.53 1.93 1.94 2 3.4.24 2-2.39 3.9-4.84 5.85-7.26.62-.78 1.27-1.54 1.82-2.37a1.18 1.18 0 00.09-1.1 1.28 1.28 0 00-1.08-.45 4.35 4.35 0 00-2.07 1.06c-2.72 3.22-5.33 6.53-8 9.85m97.43-30.94c-.35 2.07-.16 2.33 1.65 2.47 2.79.2 5.57.44 8.36.62 1.08.07 2.18 0 3.47 0-1.5-1.63-2.8-3.2-4.28-4.56a2.31 2.31 0 00-2.06-.19c-2.26 1.07-4.5 2-7.14 1.65m47.88 8c.22 2 .75 2.59 2 2 4-1.85 7.9-3.79 11.82-5.75a1.26 1.26 0 00.52-1 1.24 1.24 0 00-.84-.81 4.73 4.73 0 00-2.32.17c-3.76 1.74-7.46 3.6-11.21 5.44m-51-71.69c-1.37 2.28-2.83 4.43-4 6.73a63.74 63.74 0 00-2.85 7c-.14.4.29 1 .46 1.54.47-.28 1.15-.44 1.39-.86 2.08-3.63 4.08-7.3 6.09-11 .87-1.57.71-2.11-1.11-3.38M188.8 93c-3.62 1.85-7.18 3.66-10.72 5.5a2.07 2.07 0 00-1 .81 2 2 0 00-.11 1.52 2 2 0 001.38.66 2.36 2.36 0 001.22-.42c2.85-1.45 5.69-2.9 8.52-4.38 2-1 2.14-1.73.7-3.69M49.3 66.23a3.5 3.5 0 00.22-.37c1.65-3.23 3.32-6.45 4.93-9.69a1.31 1.31 0 00-.41-1.9 1.44 1.44 0 00-2 .38c-1.67 2.58-3.33 5.17-4.86 7.83-.74 1.28-.44 2 .79 2.85.41.3.85.56 1.37.9m16.51-40.31c2 .38 2.43.13 2.54-1.89.2-3.55.28-7.11.39-10.66 0-.86-.31-1.49-1.31-1.5s-1.6.4-1.6 1.38v12.67m-1 17c.21-2.31-.13-2.89-1.66-2.82-3.63.15-7.26.35-10.88.53-.92.05-1.56.38-1.57 1.41a1.39 1.39 0 001.64 1.49c4.14-.16 8.29-.4 12.47-.61M82 20.31l6.63.32c1.91.09 3.82.17 5.72.27.89 0 1.58-.38 1.63-1.21 0-.46-.49-1-.91-1.41a2.12 2.12 0 00-1.23-.35c-3.14-.18-6.28-.36-9.42-.5-2.26-.1-2.76.49-2.42 2.88m73.77 44.27a13.72 13.72 0 011.16-1c1.11-.76 1.12-1.62.52-2.77a24.76 24.76 0 00-6.32-7.26 1.66 1.66 0 00-1.6-.06 1.92 1.92 0 00-.4 1.66 5 5 0 001.21 1.75 20.41 20.41 0 014.19 5.92 9.78 9.78 0 001.24 1.79M110.63 24a7.27 7.27 0 003.92-3.3c1.41-2.67 2.76-5.38 4.16-8.06.37-.72.71-1.36-.3-1.89s-1.53-.37-2 .61c-1.68 3.21-3.41 6.38-5.12 9.58a9.21 9.21 0 00-.89 1.81c-.1.34.16.79.27 1.25m77.79 89.18c.22-.19.82-.46 1-.89 1.16-3 2.28-6 3.31-9a1.77 1.77 0 00-1.16-2.2c-1.2-.32-1.51.47-1.81 1.37-.8 2.42-1.66 4.82-2.48 7.24a9.93 9.93 0 00-.5 1.83c-.13 1 .47 1.6 1.65 1.62M88.44 8.51v-.24l-8.69 1.66a1.6 1.6 0 00-1 2.16 1.18 1.18 0 001.56.71c.35-.07.7-.12 1.06-.17 2.68-.4 5.36-.81 8-1.19.9-.13 1.69-.71 1.56-1.48-.1-.56-1-1-1.66-1.43-.19-.13-.54 0-.82 0M78 19.93c-.35-1.07-.22-2.14-1.41-2.28s-1.55.75-1.8 1.69a.5.5 0 000 .12c-.57 2.48-1.14 4.95-1.68 7.44a5.93 5.93 0 00-.23 2 1.23 1.23 0 002.16.7 2.34 2.34 0 00.66-1c.82-3 1.59-5.91 2.32-8.67M58.51 31v.11c-.32 0-.64 0-1 .07-.9.11-1.8.22-1.78 1.46s1 1.33 1.83 1.46c1.37.21 2.76.38 4.13.58 1.62.24 3.23.58 4.85.72a1.72 1.72 0 001.46-.71 2.45 2.45 0 00-.4-1.69 1.53 1.53 0 00-1-.64c-2.7-.5-5.4-.95-8.11-1.41m121.92 80.93a5.87 5.87 0 00-6.3-3.44c-2.66.47-5.32 1-8 1.53-.63.12-1.25.28-1.88.42v.49l16.13 1M160 51.31a1.37 1.37 0 00-1 2.3c1.76 2.42 3.57 4.81 5.38 7.2a1.37 1.37 0 00.73.57 3.14 3.14 0 001.53-.17c.16-.07.16-.81 0-1.15a22.06 22.06 0 00-5.81-8.24 4.43 4.43 0 00-.88-.51m-122.38 13c.91.5 1.82.82 2.42-.25 1.52-2.76 3-5.55 4.41-8.35.34-.66.3-1.47-.48-1.72a1.85 1.85 0 00-1.64.39 21.45 21.45 0 00-4.71 9.93m123.32-20.39a3.59 3.59 0 001-.47c1.83-1.54 3.63-3.12 5.43-4.68.78-.68.66-1.45-.11-1.87-.59-.32-1.67-.55-2.06-.24a56.78 56.78 0 00-5.62 5.12c-.84.88-.08 2.1 1.37 2.14m-29.3 42.94c-.85-1.67-1.91-2.6-3.59-2.46-1.19.09-2.37.31-3.55.47l-7.66 1c-.05 1 .36 1.38 1.2 1.35l13.6-.4m34.35-35.54a3.21 3.21 0 00.87-.3c2-1.79 4.05-3.59 6-5.44a1.1 1.1 0 00.07-1 1.65 1.65 0 00-2.55-.52c-1.82 1.55-3.6 3.16-5.31 4.84a1.69 1.69 0 00-.22 1.51c.16.43.77.68 1.11 1m-61.59 10.68l9.85.82c-.61-.75-1-1.23-1.4-1.73-1.82-2.39-3.76-3-6.62-2-1.54.53-1.92 1.1-1.83 2.92m22.26 19.21c-.16-.32-.29-.56-.4-.8-1-2.08-1.07-2.11-3.37-1.79-2.87.4-5.76.77-8.64 1.16-.37 0-.74.14-1.09.21 0 1 .6 1.27 1.38 1.27l11.47.07a4.91 4.91 0 00.65-.12M162.13 34a32.4 32.4 0 00-8.06-8 5.71 5.71 0 00-1.44-.5l-.26.29a5.31 5.31 0 00.63 1.43c2.12 2.32 4.28 4.6 6.47 6.87.86.9 1.55.86 2.66-.05m25.35 43a6.07 6.07 0 00-.4 1.78q.57 4.74 1.28 9.46c.2 1.37.64 1.59 2.11 1.27.16-4-1.05-7.67-2-11.44-.08-.32-.5-.55-1-1.07M107 66.55l-.27.46c.57.47 1.09 1.27 1.72 1.36 2.58.36 5.2.52 8 .77-.26-1.3-.47-2.37-.7-3.54l-8.73 1m51 25.88c-.21-1-.3-1.64-.49-2.28a2.86 2.86 0 00-3.2-2.43 4 4 0 00-1.43.09c-.52.22-1.38.69-1.36 1 .07.7.41 1.74.93 1.95a51.54 51.54 0 005.53 1.62m-1.91 5.22l9.73 1.66a4.37 4.37 0 00-3.2-2.66c-1.4-.28-2.83-.48-4.24-.69s-1.82.13-2.29 1.69m-36.21-5.92v.46c1.9.1 3.8.32 5.7.26a3.73 3.73 0 003.42-3.23l-9 2.51m-14-36c-1.2-3.5-4.37-2.7-6.94-3.39.8 2.38 4.41 4.16 6.94 3.39m63.26 49.32c-2.85-1.78-5.77-.72-8.76-1 1.89 2.19 6.21 2.69 8.76 1M71 78.9l2.21-3c-.11-.1-.21-.21-.31-.32l-4.48 1.72L71 78.9m-3.36-6.58l3.22.4c-1.3-1.5-1.88-1.56-3.22-.4m30-26.16c0 1.9.47 2.26 2 1.46l-2-1.46M122.51 96l-2 .74c1.09.86 1.5.71 2-.74M7.35 116c0 .11 0 .36.08.49.41.51.87 1 1.31 1.45.37-.38.9-.69 1.08-1.15a13.85 13.85 0 00.64-2.65c.21-1.37.27-2.78.56-4.13a2.06 2.06 0 00-1.14-2.54c-.8-.22-1.47.4-1.8 1.66v.24c-.23 2.18-.45 4.36-.69 6.63"/><path class="cls-5" d="M96.24 73.65l4.76-8.07a18.56 18.56 0 015.88 9.11 13.33 13.33 0 01-1.6 11c-1.69 2.62-3.25 5.32-4.86 8a3 3 0 00-.42 1.21c2.62-1.34 4-3.8 5.52-6.08s2.68-4.86 4.06-7.4a45.27 45.27 0 013.87 3.65 3.11 3.11 0 01.45 2.42c-.47 1.89-1.24 3.71-1.82 5.57-.39 1.26-.66 2.55-1 3.84 0 .21.09.47.14.71.24-.12.57-.18.72-.38 1.05-1.36 2.07-2.75 3.1-4.12.23-.31.48-.61.72-.91h.42c.28 2.71.7 5.41.77 8.12a5.74 5.74 0 01-1.26 2.9c-3.87 5.87-7.8 11.7-11.71 17.55-.26.39-.47.81-.83 1.43a6.31 6.31 0 003.67-2.58q4.56-6.18 9.08-12.38c1-1.39 2-2.8 3-4.18a16.51 16.51 0 015.64-4.93 19.45 19.45 0 006.94-6A4.62 4.62 0 01133 90.9a47.06 47.06 0 0010.23-8.26c1.1-1.08 2.24-2.13 3.45-3.27a18.86 18.86 0 011 8.25 6.54 6.54 0 00.94 3.36 9.51 9.51 0 011.18 6.12 7.92 7.92 0 01-4.31 5.75c-4.17 2.1-5.84 5.94-7.34 10 0 .09 0 .22.12.58a10.37 10.37 0 001.88-1.75 23.76 23.76 0 016.53-6.61c.64-.47 1.3-.93 1.91-1.45a13.77 13.77 0 002-1.92 16.9 16.9 0 001.33-2.43c1.89 1.7 3.85 3.29 5.56 5.1a3.42 3.42 0 01.48 2.56c-.52 3.9-2.29 7.37-4 10.85-.27.55-.49 1.12-.73 1.68l.27.17a6.15 6.15 0 00.64-.61q2.43-2.82 4.83-5.65c.94-1.12 1.37-1.21 2.66-.52a10 10 0 014.74 5.06c.53 1.25 1.11 2.48 1.73 3.68a4.75 4.75 0 01.22 4.16c-.44 1.11-.83 2.25-1.21 3.38a3.82 3.82 0 00-.21 1.73 5.41 5.41 0 00.62-.55c.86-1 1.71-2.11 2.56-3.17.49-.62 1-.86 1.73-.29 3.19 2.67 6.42 5.29 9.55 8a3.86 3.86 0 01.93 4.62c-.64 1.59-1.37 3.15-2.11 4.7-.59 1.22-1.14 1.44-2.43 1s-2.45-.93-3.82-1.45l2-2.67c-1.5-.25-2.82-.54-4.16-.67a5.4 5.4 0 01-4.62-3.48 24.18 24.18 0 00-2.41-3.81 7.34 7.34 0 00-1.54-1.17 11.62 11.62 0 00-.92 2.06c-.76 3.58-2.85 6.38-5.28 9a12.28 12.28 0 01-2.43 2.07 5.55 5.55 0 01-2 .37c1.26-1 2.56-1.83 3.69-2.88 1-.89.82-1.35-.46-1.73-1.6-.47-3.3-.63-4.86-1.2a52.85 52.85 0 01-5-2.39c.06-.18.12-.37.19-.55a4.67 4.67 0 011.06.14 6.64 6.64 0 007.27-1.7 5.29 5.29 0 00.48-.62c-1.55-.55-3-1.15-4.45-1.53A6 6 0 01146 129a6 6 0 00-2.59-3.47c-1.29-.68-1.86-.45-2.24.94a6.88 6.88 0 01-2.57 3.52c-1.28 1-2.62 2-3.85 3.05s-1 1.58.27 2.27c1.12.6 2.28 1.12 3.56 1.73l-4.87 4.22c-4.27-3.32-7.62-7.19-8.39-12.75a3.84 3.84 0 00-2.4-3.42 36.71 36.71 0 01-10.54 14.21c1.1 1 1.94.55 2.78.08a13 13 0 012.64-1.22c-1.2 1.23-2.36 2.5-3.63 3.66a1.91 1.91 0 01-1.48.23c-2.4-.54-4.82-1.07-7.17-1.81-.76-.24-1.32-1.12-2-1.7l.29-.37c.75.38 1.49.79 2.26 1.12s1.63.64 2.46.92a1.39 1.39 0 001.91-.73 2.06 2.06 0 00-.66-1.7c-1.3-1.12-2.73-2.09-4.1-3.12a1 1 0 01-.42-.63l6.37 1.57.24-.38c-1-1.11-2-2.31-3.14-3.31a22.31 22.31 0 00-3.35-2.3 11.33 11.33 0 01-5.63-6.85 2.34 2.34 0 00-2.2-1.89c-.68-.06-1.06.21-1 1 .1 2.48-1 4.57-2.2 6.61-.65 1.07-1.24 2.17-1.85 3.26l.23.28 2.51-.94c-1.38 3.43-4.09 5.73-5.89 8.61.07.1.13.2.19.3l6.11-3.08.26.36c-1.06 1.28-2.11 2.55-3.18 3.82s-2.28 2.68-3.45 4-1.88 1.38-3.3.37a20.31 20.31 0 01-1.5-1.46l4.08-2-4.39-3c1-2.53 4.28-2.13 5.57-4.46-1.23-.42-2.37-.86-3.54-1.2a9.38 9.38 0 01-7-6.76c-.55-1.91-1.33-2.48-3.3-2.55-.15 1.11-.32 2.24-.45 3.37a7.6 7.6 0 01-2.5 4.89c-2.06 1.94-4 4-6 6a20.69 20.69 0 00-1.37 1.7c2.36.6 4.16-.83 6.47-1.34-.9 1.34-1.52 2.45-3 3a12.48 12.48 0 01-12-1.52 5.23 5.23 0 01-1.38-1.73 15.89 15.89 0 008.58-1.17c-1.35-.86-2.5-1.66-3.72-2.34a9.36 9.36 0 00-2-.73 4.16 4.16 0 01-3.24-3.59A8.35 8.35 0 0053 126c-.27-.28-.88-.66-1.05-.55a4.69 4.69 0 00-1 1.23.55.55 0 000 .36c.47 3.58-1.5 5.95-4.14 7.83a48.08 48.08 0 01-5.29 3c-.8.43-1.67.73-2.52 1.1a1.59 1.59 0 002.21 1c2.21-.7 4.41-1.42 6.61-2.13.37-.12.76-.2 1.35-.36-2.41 3.46-6.06 4.76-9.4 6.56 1.73 2.74 4.2 1.18 6.37 1.26a3.31 3.31 0 01-4.25 1.9c-2.45-1.07-4.8-2.36-7.17-3.59-.32-.17-.53-.56-1-1.12 1.9.23 3.51 1 5.26 0a23.29 23.29 0 00-2.27-2.82 10 10 0 01-3.46-8.08c.06-1.62-.39-2.18-1.95-2.68-.21.54-.47 1.07-.64 1.63a10 10 0 01-5 6.13 3.83 3.83 0 00-2.25 3.25l3.51-.22.17.28-3.88 3.06c-1.46-2-3-3.91-4.27-5.95s-2.11-3.94-3.13-5.93c-.94-1.84-1.78-3.75-2.81-5.54a3.81 3.81 0 01.08-4.58c1.5-2 3.11-3.82 4.64-5.75a3.58 3.58 0 00.83-1.54 11.2 11.2 0 013.95-6.53c1.41-1.3 2.82-2.61 4.12-4a7.66 7.66 0 001.41-2.3 15.09 15.09 0 014.12-5.52c1.51-1.35 3-2.66 4.78-4.18-1.15 2.82-2.31 5.35-2.28 8.19l.3.16c1.22-1.88 2.49-3.72 3.63-5.65 1-1.75 2-3.55 2.88-5.38C45.13 80.59 50.64 74 56.2 67c.76 2.31 1.6 4.37 2.07 6.5a4.06 4.06 0 01-.83 2.65c-1.13 1.74-2.46 3.35-3.69 5-.36.49-.64 1-1 1.55l.26.24a5.34 5.34 0 00.68-.45c1.61-1.44 3.27-2.83 4.78-4.37a21.63 21.63 0 001.94-2.82c.23-.34.66-.92.81-.87.48.17 1.1.51 1.24.92a5.71 5.71 0 004.09 3.7 3.58 3.58 0 01.35.09c2.18.7 2.44 1.48 1.06 3.37q-5 6.83-10 13.64c-.25.33-.46.69-.68 1l.25.3a15.82 15.82 0 002.23-1.4 55.92 55.92 0 009.45-10.63c3.57-5.17 7.35-10.18 10.93-15.33 1.45-2.09 2.57-4.4 4-6.55a17 17 0 012.6-3.24 20.87 20.87 0 006.33-10 23.77 23.77 0 011.12-2.78 9.4 9.4 0 012.18 5.77 4.17 4.17 0 002.68 4.24c1.87.83 2.21 1.75 1.47 3.66-1.31 3.39-2.68 6.75-4 10.13-.27.68-.47 1.39-.7 2.09l.44.15m-6.57-7.38C88 68.54 86.38 70.75 84.78 73a2.12 2.12 0 00-.4 1.22c.16 2.65-1.14 4.65-2.73 6.57-2.09 2.52-4.13 5.08-6.17 7.64a9.62 9.62 0 00-.8 1.44l.34.22.6-.32c4-2.24 6.84-5.73 9.79-9.06a5.26 5.26 0 00.89-3.35 7.23 7.23 0 011.7-5.1c.81-1 1.66-1.94 2.45-3 1.11-1.4 1-2-.75-3m-36.06 36.8c-2.34 2.21-4.73 4.38-7 6.66a29.11 29.11 0 00-3.46 4.06c-1.41 2-2.53 4.22-3.92 6.24-1.09 1.58-2.42 3-3.59 4.49A7.59 7.59 0 0035 126l.32.19a4.79 4.79 0 00.58-.33c2-1.6 4.15-3.12 6.09-4.84a7.55 7.55 0 002.27-3.13 16.59 16.59 0 015.21-7.72 22.86 22.86 0 002-2.07 8.08 8.08 0 002.19-5m-2.21-13l-.4-.1a6.72 6.72 0 00-.74.86c-2 3.29-4.07 6.56-6 9.92a7.76 7.76 0 01-3.2 3.39c-3.28 1.71-5.18 4.76-7.12 7.75 0 0 .05.13.15.37a6.41 6.41 0 00.76-.32l9-5.66a4 4 0 002-2.69 21.65 21.65 0 013.36-8.12A21.8 21.8 0 0051 92.32a9.62 9.62 0 00.37-2.24m-20.69 24c-2.1-.49-3.17 0-4.19 1.87q-4.1 7.58-8.13 15.19a9.1 9.1 0 00-.42 1.18 11.11 11.11 0 005.28-4.32c2.53-4.57 5-9.19 7.49-13.9m61.41-10.37c-3.66 2.84-7.33 5.52-10.79 8.46-1.2 1-1.9 2.63-2.73 4-.31.52-.57 1.28.31 1.61 1.61-2 3.17-3.83 5.49-5a25.44 25.44 0 007.36-5.8 2.61 2.61 0 00.36-3.28M75.65 99.8l-.21-.25a2.74 2.74 0 00-.51.15 9.57 9.57 0 00-4.93 5.49 20.29 20.29 0 01-5 8c-1.51 1.55-2.93 3.19-4.54 5 3.42-.79 7.94-4.24 9.37-7a4 4 0 00.34-.89 20.67 20.67 0 013.78-7.94c.6-.83 1.16-1.69 1.73-2.54m62.5-5.4a9.69 9.69 0 00-5.3 5.28 19 19 0 01-5.19 7.09c-1 .85-1.83 1.84-2.82 2.86a2.29 2.29 0 00.49.14c3.44 0 8-3.62 8.7-7a15.24 15.24 0 013.42-7.28 10.28 10.28 0 00.7-1.09m-45.39 22.71l.26.27a7.58 7.58 0 00.95-.4c2.59-1.49 5.19-3 7.74-4.5a10.75 10.75 0 002.31-1.88 8.54 8.54 0 002.65-5.92 10.67 10.67 0 00-2.2 1.57c-1.15 1.1-2.2 2.31-3.4 3.36-2.37 2.08-4.82 4.06-7.21 6.12a8.27 8.27 0 00-1.07 1.39m-6.26-22.96a10 10 0 004.44-3.7c1.34-2 2.61-4.12 3.78-6.25.26-.48 0-1.22 0-1.85a5.12 5.12 0 00-1.54.57c-3.47 3-4.56 7.39-6.67 11.23m-25.52 37.24l.21.23c1.11-.52 2.24-1 3.32-1.58a14.52 14.52 0 005.71-5 1.87 1.87 0 00-.37-2.45c-.81-.46-1.35.12-1.83.66q-3.2 3.59-6.37 7.17a10.47 10.47 0 00-.67 1m53.44-4.74l.38.27c3.78-3 6.67-7 10.1-10.4-1.85-1-2.78-.82-3.9.69-2 2.65-3.93 5.34-5.87 8a9.9 9.9 0 00-.71 1.42m31.05-6c3.12-1.44 6.71-7.49 6-10a17.7 17.7 0 00-6 10m16.14 3.31c-1.62 1.61-3.39 3.13-4.11 5.55 2.14.11 3.44-1.1 4.69-2.4s1.23-2.1-.58-3.15"/><path class="cls-5" d="M149.52 68.57a14.5 14.5 0 01-1.15 1.06c-6.82 5-18.87 3.74-24.69-2.44-2.68-2.89-3.43-6.36-3.22-10.19.54-9.67 6.24-16.9 15.54-19.62.25-.07.53-.07 1.13-.16-.75 1-1.31 1.72-1.89 2.45a19.93 19.93 0 00-4.12 17.55c.65 3 2.68 5 4.73 6.9a14.42 14.42 0 009.65 4c1.25 0 2.5.29 4 .48m6.89-27.93c0 2.37-2.67 5-6.64 5.54-3.53.46-5.33-.45-7.11-3.6a7.17 7.17 0 011.82-8.88 7.33 7.33 0 019.36.41c1.62 1.44 2.6 3.21 2.57 6.53M154 39c0-2.11-2.63-4.19-5.22-4.17a4.21 4.21 0 00-4.05 4.07c.06 2.3 2.16 4.81 4 4.8 2.47 0 5.26-2.51 5.23-4.7M33.24 75.74c1.1.21 2.06.44 3 .58 2.07.29 2.42.6 2.92 2.73-2.43 1.22-4.75-.14-7.26-.36-1 2.24-1.95 4.5-3 6.74-.2.43-.57 1-1 1.08a1.85 1.85 0 01-1.52-.35 1.64 1.64 0 01-.09-1.42c.79-2.08 1.67-4.14 2.54-6.27l-5.54-1.28a8.92 8.92 0 01-1.15-.33 1.2 1.2 0 01-.81-1.52 1.12 1.12 0 011.36-1c1.93.29 3.86.61 5.79.94s2 .27 2.93-1.41C32.63 71.88 33.83 70 35 68c1.5 1.44 1.57 2 .65 3.56-.79 1.34-1.56 2.7-2.43 4.21M115.33 27c1.56 1.36 1.67 1.93.86 3.33s-1.64 2.82-2.58 4.41c1.16.23 2.15.47 3.17.6 1.93.24 2.39.64 2.79 3a32 32 0 01-3.38.06 19.78 19.78 0 01-2.93-.6.92.92 0 00-1.27.65c-.87 2.06-1.83 4.07-2.69 6.14-.4 1-1 1.27-1.94.91s-.81-1.14-.53-1.86c.8-2 1.65-4 2.52-6.18-2-.46-4-.87-6-1.38a2.49 2.49 0 01-1.45-.89c-.58-1 .32-2.07 1.57-1.88 1.89.29 3.78.62 5.66 1 1.51.26 2 0 2.8-1.38 1.08-1.94 2.2-3.85 3.38-5.89M181 77.84c1.51 1.28 1.63 2 .76 3.43l-2.5 4.3c1.1.18 2.07.39 3 .48 1.87.18 2.56.82 2.87 2.85a6 6 0 01-4.28.14c-3.54-1-3.16-.29-4.13 2.16-.58 1.49-1.28 2.92-1.89 4.4-.42 1-1.19 1-2 .66s-.76-1-.48-1.68l2.65-6.29-5.3-1.22-.81-.2c-.93-.22-1.73-.58-1.47-1.76s1.13-1.08 2-.94c1.89.3 3.79.59 5.67 1a1.85 1.85 0 002.27-1.17c1.16-2.08 2.41-4.12 3.65-6.2M38.79 44.56c1.23.34 2.2.63 3.19.89s1.71.4 2.56.62c2.05.53 2.35 1 2 3.4-2.75-.72-5.49-1.4-8.2-2.19a2.35 2.35 0 00-2.51.55C34.56 49 33.27 50 32 51.15c-.09.07-.18.21-.27.22-.72.07-1.44.11-2.16.16a5.81 5.81 0 01.23-2.21c.41-.73 1.27-1.19 1.85-1.84 1-1.06.81-1.85-.47-2.44a18.4 18.4 0 00-2.7-.95 2.45 2.45 0 01-1.83-2.32 8.42 8.42 0 012.27-.1 35.33 35.33 0 014.46 1.38 2.91 2.91 0 003.64-.8A23.16 23.16 0 0139.5 40a1 1 0 011.73.17c.47.67 1 1.32.16 2.09l-2.6 2.32m-8.2 15.95a6.54 6.54 0 01-9.52 6.08c-2.24-1.15-2.71-3.31-2.85-5.45-.22-4.31.78-6.16 6.23-6.91 3.39-.45 6.14 2.53 6.14 6.28M24 64.46a3.87 3.87 0 004.11-3.89 3 3 0 00-3.21-3.1c-2.61 0-4.4 1.59-4.39 3.88 0 1.87 1.39 3.1 3.49 3.11m57.26-32.93c.16-3.86 1.21-5.49 4.14-6.45 3.41-1.12 6.39-.34 8.41 2.2a6.37 6.37 0 01-3.46 10.17 8.93 8.93 0 01-5.19-.25c-3.27-1.18-4.34-2.85-3.9-5.67m6.94 3.59a17.54 17.54 0 002.8-.91 3.71 3.71 0 001.74-4.12 3.56 3.56 0 00-2.85-3 5.71 5.71 0 00-5.63 1.88 3.42 3.42 0 001.55 5.69c.68.21 1.4.29 2.41.49M178 53.81c.69 1.32 1.35 2.54 2 3.79a54.42 54.42 0 014.15 11.95c.16.75.51 1.75-.5 2.08S182.3 71 182 70.25c-1.76-4.32-3.55-8.63-5.31-13-.71-1.76-.49-2.35 1.3-3.49M42.33 35.35c1.41-1.84 2.61-3.69 4.08-5.29 2.38-2.58 4.9-5 7.44-7.44.41-.39 1.59-.65 1.84-.4.72.71.05 1.38-.49 2-2.41 2.86-4.77 5.78-7.2 8.57-.62.74-1.25 1.46-1.91 2.16-1.21 1.27-1.85 1.37-3.8.4m134.99 40.02a6.66 6.66 0 01-1.28-1.53c-1.85-4.37-3.65-8.77-5.44-13.16-.69-1.68-.41-2.36 1.49-3.41 1.19 2.66 2.5 5.26 3.53 8 .94 2.49 1.64 5.08 2.33 7.65a7.68 7.68 0 010 2.24l-.62.24M130.4 14.59c1.29.68 2.49 1.28 3.66 1.95A52.24 52.24 0 01144.3 24c.59.56 1.52 1.23.81 2.07s-1.5.06-2.21-.39c-3.06-1.95-6.14-3.87-9.2-5.81a41.33 41.33 0 01-2.57-1.74c-1.37-1-1.52-1.67-.73-3.5M70.05 41.78c1.62.93 2 1.69 1.33 3.1C69.29 49.44 67.17 54 65 58.49c-.19.39-1 .51-1.45.75-.16-.45-.49-.92-.43-1.33a10.55 10.55 0 01.72-2.64q2.4-5.6 4.9-11.15a24.66 24.66 0 011.33-2.34M15.09 67.3c1.68 1 2 1.67 1.37 3.21a844.99 844.99 0 01-5.59 13.61c-.19.47-.8.77-1.49 1.39A6 6 0 019 83.66 19.42 19.42 0 019.85 80c1.29-3.48 2.67-6.92 4.05-10.36a25.22 25.22 0 011.19-2.29m58.44-9.15c-.12-.5-.41-1-.29-1.36a33.17 33.17 0 011.34-3.07l4.78-10.42c.32-.7.65-1.31 1.62-.79s1.34.92.86 2c-1.49 3.26-2.82 6.6-4.46 9.78a18.33 18.33 0 01-3 3.5c-.12.13-.35.17-.83.39m110.06 61.83c-4.21-.41-8.14-.72-12-1.22-.84-.11-1.59-.9-2.38-1.38l.12-.4c1.43-.24 2.85-.5 4.28-.72 2.13-.31 4.26-.59 6.4-.87 1.82-.24 2.47.13 3 1.88.25.78.35 1.61.58 2.71M169.83 69c-.17.15-.47.67-.85.74-4.43.8-8.36 2.82-12.29 4.86a1.8 1.8 0 01-2.2-.63c-.33-.82.21-1.19.82-1.61a35.35 35.35 0 0112.53-5.14c1.12-.26 2 .36 2 1.78M7.66 99.53c-1.39 0-1.91-1.07-1.26-2.06 2.08-3.22 4.29-6.34 7.47-8.62.81-.58 1.6-1.18 2.41-1.76s1.21.08 1.61.6.18 1.11-.35 1.62a227.68 227.68 0 00-6.46 6.35c-.91.94-1.61 2.08-2.45 3.09a5.05 5.05 0 01-1 .78m128.56-69.27a5.89 5.89 0 01-1.9.12 14.79 14.79 0 01-3.75-1.44c-2.77-1.72-5.43-3.62-8.14-5.45a6.13 6.13 0 01-.58-.42 1.34 1.34 0 01-.27-2c.52-.73 1.16-.56 1.79-.17 1.07.68 2.14 1.37 3.21 2.08 2.79 1.84 5.59 3.67 8.36 5.55a10.65 10.65 0 011.39 1.38c0 .12-.07.24-.11.35M12.73 104.49c2.68-3.32 5.29-6.63 8-9.85a4.35 4.35 0 012.07-1.06 1.28 1.28 0 011.08.45 1.15 1.15 0 01-.09 1.07c-.55.83-1.2 1.59-1.82 2.37-1.95 2.42-3.86 4.87-5.85 7.26-1.46 1.74-1.87 1.69-3.4-.24m97.44-30.94c2.63.4 4.88-.58 7.14-1.65a2.31 2.31 0 012.06.19c1.48 1.36 2.78 2.93 4.28 4.56-1.29 0-2.39.06-3.47 0-2.79-.18-5.57-.42-8.36-.62-1.81-.14-2-.4-1.65-2.47M158 81.5c3.75-1.84 7.45-3.7 11.21-5.45a4.85 4.85 0 012.32-.16 1.24 1.24 0 01.84.81 1.27 1.27 0 01-.52 1c-3.92 2-7.85 3.9-11.82 5.75-1.28.6-1.81 0-2-2M107.07 9.81c1.82 1.27 2 1.81 1.11 3.38-2 3.68-4 7.35-6.09 11-.24.42-.92.58-1.39.86-.17-.52-.6-1.14-.46-1.54a63.74 63.74 0 012.85-6.95c1.15-2.3 2.61-4.45 4-6.73M188.8 93c1.44 2 1.32 2.64-.7 3.69-2.83 1.48-5.67 2.93-8.52 4.38a2.36 2.36 0 01-1.22.42 2 2 0 01-1.38-.66 2 2 0 01.11-1.52 2.07 2.07 0 011-.81c3.54-1.84 7.1-3.65 10.72-5.5M49.3 66.23c-.52-.34-1-.6-1.37-.9-1.23-.9-1.53-1.57-.79-2.85 1.53-2.66 3.19-5.25 4.86-7.82a1.43 1.43 0 012-.39 1.31 1.31 0 01.41 1.9c-1.61 3.24-3.28 6.46-4.93 9.69a3.5 3.5 0 01-.22.37m16.59-40.31V13.24c0-1 .66-1.38 1.6-1.38s1.34.65 1.31 1.51c-.11 3.55-.19 7.11-.39 10.66-.11 2-.56 2.27-2.54 1.89M64.82 43c-4.18.22-8.33.45-12.47.61a1.39 1.39 0 01-1.64-1.49c0-1 .65-1.36 1.57-1.41 3.62-.18 7.25-.38 10.88-.53 1.53-.07 1.87.51 1.66 2.82M82 20.31c-.34-2.39.16-3 2.42-2.88q4.71.21 9.42.5a2.12 2.12 0 011.23.35c.42.37.94.95.91 1.41 0 .83-.74 1.25-1.63 1.21-1.9-.1-3.81-.18-5.72-.27L82 20.31m73.73 44.27a9.78 9.78 0 01-1.24-1.79 20.41 20.41 0 00-4.19-5.92 5 5 0 01-1.21-1.75 1.92 1.92 0 01.4-1.66 1.66 1.66 0 011.6.06 24.76 24.76 0 016.32 7.26c.59 1.15.59 2-.52 2.77a13.72 13.72 0 00-1.16 1M110.63 24c-.11-.46-.37-.91-.27-1.25a9.49 9.49 0 01.89-1.81c1.71-3.19 3.44-6.37 5.12-9.58.51-1 1.12-1.08 2-.61s.67 1.17.3 1.89c-1.4 2.68-2.75 5.39-4.16 8.06a7.27 7.27 0 01-3.92 3.3m77.83 89.22c-1.18 0-1.78-.67-1.65-1.61a9.82 9.82 0 01.5-1.84c.82-2.42 1.68-4.82 2.48-7.24.3-.9.61-1.69 1.81-1.37a1.77 1.77 0 011.16 2.2c-1 3-2.15 6-3.31 9-.17.43-.77.7-1 .89M88.44 8.51c.28 0 .63-.11.82 0 .62.43 1.56.87 1.66 1.43.13.77-.66 1.35-1.56 1.48-2.68.38-5.36.79-8 1.19-.36 0-.71.1-1.06.17a1.18 1.18 0 01-1.56-.71 1.6 1.6 0 011-2.16l8.66-1.64v.24M78 19.93c-.73 2.76-1.5 5.72-2.32 8.67a2.34 2.34 0 01-.66 1 1.23 1.23 0 01-2.16-.7 5.93 5.93 0 01.23-2c.54-2.49 1.11-5 1.68-7.44a.5.5 0 010-.12c.25-.94.62-1.82 1.8-1.69s1.06 1.21 1.41 2.28M58.51 31c2.71.46 5.41.91 8.11 1.41a1.53 1.53 0 011 .64 2.44 2.44 0 01.38 1.64 1.72 1.72 0 01-1.43.69c-1.62-.14-3.23-.48-4.85-.72l-4.13-.58c-.88-.13-1.81-.24-1.83-1.46s.88-1.35 1.78-1.46c.32 0 .64-.05 1-.07v-.11m121.89 80.93l-16.13-1v-.5c.63-.14 1.25-.3 1.88-.42 2.66-.52 5.32-1.06 8-1.53a5.87 5.87 0 016.3 3.44M160 51.31a4.43 4.43 0 01.88.51 22.06 22.06 0 015.81 8.24c.13.34.12 1.08 0 1.15a3.14 3.14 0 01-1.53.17 1.37 1.37 0 01-.73-.57c-1.81-2.39-3.62-4.78-5.38-7.2a1.37 1.37 0 011-2.3M37.62 64.36a21.45 21.45 0 014.71-9.93A1.85 1.85 0 0144 54c.78.25.82 1.06.48 1.72-1.48 2.84-2.92 5.63-4.48 8.39-.6 1.07-1.51.75-2.42.25m123.31-20.44c-1.45 0-2.21-1.26-1.38-2.14a58 58 0 015.63-5.12c.39-.31 1.47-.08 2.06.24.77.42.89 1.19.11 1.87-1.8 1.56-3.6 3.14-5.43 4.68a3.59 3.59 0 01-1 .47m-29.29 42.94l-13.6.4c-.84 0-1.25-.37-1.2-1.35l7.66-1c1.18-.16 2.36-.38 3.55-.47 1.68-.14 2.74.79 3.59 2.46m34.35-35.58c-.34-.28-.95-.53-1.11-1a1.67 1.67 0 01.23-1.51c1.7-1.68 3.48-3.29 5.3-4.84a1.65 1.65 0 012.55.52 1.1 1.1 0 01-.07 1c-2 1.85-4 3.65-6 5.44a3.21 3.21 0 01-.87.3m-61.64 10.82c-.09-1.82.29-2.39 1.83-2.92 2.86-1 4.8-.38 6.62 2 .38.5.79 1 1.4 1.73l-9.85-.82m22.26 19.22a4.91 4.91 0 01-.65.12l-11.47-.07c-.78 0-1.33-.24-1.38-1.27.35-.07.72-.16 1.09-.21 2.88-.39 5.77-.76 8.64-1.16 2.3-.32 2.38-.29 3.37 1.79.11.24.24.48.4.8M162.13 34c-1.11.91-1.8 1-2.66.05-2.19-2.27-4.35-4.55-6.47-6.87a5.31 5.31 0 01-.63-1.43l.26-.29a5.71 5.71 0 011.44.5 32.57 32.57 0 018.06 8m22.27 91.47c.16.34.49.71.45 1-.3 2.28-.67 4.55-1.06 7.11l-5.4-5c1.66-.63 3.2-1.13 4.66-1.8.55-.26.93-.89 1.38-1.34m3.05-48.4c.49.52.91.75 1 1.07.95 3.77 2.16 7.49 2 11.44-1.47.32-1.91.1-2.11-1.27q-.71-4.73-1.28-9.46a6.07 6.07 0 01.4-1.78M107 66.55l8.73-1c.23 1.17.44 2.24.7 3.54-2.78-.25-5.4-.41-8-.77-.63-.09-1.15-.89-1.72-1.36l.27-.46M158 92.43a51.54 51.54 0 01-5.55-1.69c-.52-.21-.86-1.25-.93-1.95 0-.29.84-.76 1.36-1a4 4 0 011.43-.09 2.86 2.86 0 013.2 2.43c.18.64.28 1.32.49 2.28m-1.88 5.24c.47-1.56.94-1.9 2.29-1.69s2.84.41 4.24.69a4.39 4.39 0 013.2 2.66l-9.73-1.66"/><path class="cls-5" d="M184.43 125.41c-2.7-.44-5.41-.87-8.11-1.32-.65-.1-1.29-.25-1.93-.38v-.3c.84-.11 1.68-.26 2.53-.34 1.82-.17 3.65-.3 5.48-.45 2-.17 2.72.83 2 2.81m-64.49-33.7l9-2.51a3.73 3.73 0 01-3.32 3.23c-1.9.06-3.8-.16-5.7-.26v-.46M106 55.74c-2.53.77-6.14-1-6.94-3.39 2.57.69 5.74-.11 6.94 3.39m63.21 49.32c-2.55 1.64-6.87 1.14-8.76-1 3 .33 5.91-.73 8.76 1M71 78.9l-2.62-1.6 4.52-1.67c.1.11.2.22.31.32L71 78.9m-3.32-6.58c1.34-1.16 1.92-1.1 3.22.4l-3.22-.4m29.97-26.16l2 1.46c-1.49.8-2 .44-2-1.46M122.51 96c-.54 1.45-1 1.6-2 .74l2-.74"/><path class="cls-4" d="M89.67 66.27c1.73 1.07 1.86 1.64.75 3-.79 1-1.64 2-2.46 3a7.27 7.27 0 00-1.66 5.09 5.26 5.26 0 01-.89 3.35c-3 3.33-5.81 6.82-9.79 9.06l-.6.32-.34-.22a9.62 9.62 0 01.8-1.44c2-2.56 4.08-5.12 6.17-7.64 1.59-1.92 2.89-3.92 2.73-6.57a2 2 0 01.4-1.22c1.6-2.24 3.23-4.45 4.89-6.72m-36.06 36.79a8.08 8.08 0 01-2.19 5 22.86 22.86 0 01-2 2.07 16.59 16.59 0 00-5.21 7.72A7.55 7.55 0 0142 121c-1.94 1.72-4.05 3.24-6.09 4.84a4.79 4.79 0 01-.58.33L35 126a7.59 7.59 0 01.67-1.44c1.17-1.51 2.5-2.91 3.59-4.49 1.39-2 2.51-4.23 3.91-6.24a29.88 29.88 0 013.47-4.06c2.28-2.28 4.67-4.45 7-6.66M51.4 90.08a9.62 9.62 0 01-.4 2.24 21.8 21.8 0 01-1.72 3.14 21.65 21.65 0 00-3.28 8.12 4 4 0 01-2 2.69l-9 5.66a5.78 5.78 0 01-.76.32c-.1-.24-.17-.34-.15-.37 1.94-3 3.84-6 7.12-7.75a7.84 7.84 0 003.21-3.39c1.9-3.36 4-6.63 6-9.92a6.72 6.72 0 01.74-.86l.35.12m-20.8 23.97c-2.53 4.71-5 9.33-7.49 13.9a11.11 11.11 0 01-5.22 4.34 9.1 9.1 0 01.42-1.18q4-7.61 8.13-15.19c1-1.89 2.09-2.36 4.19-1.87m61.38-10.37a2.61 2.61 0 01-.36 3.28 25.64 25.64 0 01-7.36 5.87c-2.32 1.12-3.88 3-5.49 5-.88-.33-.62-1.09-.31-1.61.83-1.4 1.54-3 2.73-4 3.46-2.94 7.13-5.62 10.79-8.46M75.65 99.8c-.57.85-1.13 1.71-1.73 2.54a20.67 20.67 0 00-3.78 7.94 3.56 3.56 0 01-.34.89c-1.43 2.79-5.95 6.23-9.37 7 1.61-1.76 3-3.4 4.54-5a20.29 20.29 0 005-8 9.52 9.52 0 014.93-5.48 2.16 2.16 0 01.51-.16l.21.25m62.53-5.38a12.24 12.24 0 01-.7 1.09 15.15 15.15 0 00-3.42 7.28c-.68 3.38-5.26 7-8.7 7a2.29 2.29 0 01-.49-.14c1-1 1.84-2 2.82-2.86a19 19 0 005.19-7.09 9.69 9.69 0 015.3-5.28m-45.36 22.73a8.27 8.27 0 011.07-1.39c2.39-2.06 4.84-4 7.21-6.12 1.2-1.05 2.25-2.26 3.4-3.36a10.67 10.67 0 012.2-1.57 8.54 8.54 0 01-2.65 5.92 10.75 10.75 0 01-2.31 1.88c-2.55 1.54-5.15 3-7.74 4.5a7.58 7.58 0 01-.92.41l-.26-.27m-6.23-22.95c2.11-3.84 3.2-8.25 6.67-11.23a5.12 5.12 0 011.54-.57c0 .63.25 1.37 0 1.85a90.21 90.21 0 01-3.78 6.25 10 10 0 01-4.42 3.7m-25.52 37.24a10.47 10.47 0 01.67-1c2.11-2.39 4.24-4.78 6.36-7.17.49-.54 1-1.12 1.84-.66a1.87 1.87 0 01.37 2.45 14.52 14.52 0 01-5.71 5c-1.08.57-2.21 1.06-3.32 1.58l-.21-.23m53.44-4.71a9.9 9.9 0 01.71-1.42c1.94-2.68 3.89-5.37 5.87-8 1.12-1.51 2.05-1.66 3.9-.69-3.43 3.44-6.32 7.36-10.1 10.4l-.38-.27m31.05-5.98a17.7 17.7 0 016-10c.72 2.47-2.87 8.52-6 10m16.14 3.28c1.81 1 1.93 1.74.58 3.15s-2.55 2.51-4.69 2.4c.72-2.42 2.49-3.94 4.11-5.55M154 39c0 2.19-2.76 4.69-5.23 4.7-1.88 0-4-2.5-4-4.8a4.21 4.21 0 014.05-4.07c2.59 0 5.19 2.06 5.22 4.17M24 64.46c-2.1 0-3.48-1.24-3.49-3.11 0-2.29 1.78-3.87 4.39-3.88a3 3 0 013.21 3.1A3.87 3.87 0 0124 64.46m64.2-29.34c-1-.2-1.73-.28-2.41-.49a3.42 3.42 0 01-1.55-5.69 5.71 5.71 0 015.63-1.88 3.56 3.56 0 012.85 3A3.71 3.71 0 0191 34.21a17.54 17.54 0 01-2.78.91"/><path class="cls-5" d="M97.94 158.8c1.87.25 3.67.45 5.46.75 1.19.2 1.45.63 1.46 2a4.64 4.64 0 010 .53c-.16 2.73-.52 3.15-2.84 3.19h-5.29c-.87-1.49-.73-2.07.65-2.24s2.63-.09 3.94-.14c.71 0 1.41-.08 2.19-.13 0-.47.07-.86.13-1.5-1.68 0-3.26.06-4.83 0-1.89-.09-2.9-1.81-2.37-3.89.33-1.24.75-1.67 1.87-1.62 2.18.1 4.35.25 6.51.43.23 0 .43.37.64.57-.19.22-.37.63-.58.65-1.15.1-2.32.11-3.48.17-.91 0-1.82.12-2.72.19-.44 0-.8.19-.73 1.08m-47.53 6.23c-.83-1.48-.77-3.16-.85-4.79v-1.41c-.09-1.77.24-2.38 1.77-2.61s2.92-.25 4.38-.33a13.15 13.15 0 011.66 0c1.32.05 1.78.38 2 1.88a14.51 14.51 0 01-.19 5.45c-.25.91-.7 1.34-1.36 1.4-2.45.25-4.89.83-7.38.37m8-7.81l-6.62.86c-.62.09-.83.57-.79 1.26.06 1.05.13 2.1.2 3.25h5.5c.58 0 1-.4 1.13-1.19.16-1.33.36-2.65.58-4.16m27.26 3.06l4.57-.46 1.21-.09c.88-.06 1.34.42 1.38 1.71-2.23.46-4.56-.23-6.87.48.08.53.16 1 .24 1.6h5.34a2.41 2.41 0 012.14.65c-.22.27-.39.67-.65.76a4.67 4.67 0 01-1.35.16l-5.13.15c-.92 0-1.38-.23-1.55-1.26-.36-2.08-.61-4.18-.86-6.28-.08-.69.1-1.35.81-1.47a18.31 18.31 0 017.45-.05c-.32 1.19-1 1.22-1.71 1.2h-5.42l.4 2.91m34.5.13l4.57-.46c.4 0 .81-.07 1.21-.09.88-.07 1.34.42 1.38 1.71-2.23.46-4.56-.23-6.88.48l.25 1.6h5.33a2.37 2.37 0 012.15.65c-.22.27-.4.66-.65.76a4.34 4.34 0 01-1.35.15l-5.13.16c-.92 0-1.38-.23-1.55-1.26-.36-2.08-.62-4.18-.86-6.28-.08-.69.1-1.36.8-1.48a18.36 18.36 0 017.46 0c-.32 1.19-1 1.21-1.71 1.2h-5.43c.16 1.09.27 1.89.41 2.91m32.64-.05l4.57-.46 1.21-.09c.88-.07 1.34.42 1.38 1.71-2.23.46-4.56-.23-6.87.48.08.52.15 1 .24 1.6h5.34a2.36 2.36 0 012.14.65c-.22.27-.39.66-.65.76a4.34 4.34 0 01-1.35.15l-5.13.16c-.92 0-1.38-.23-1.55-1.26-.36-2.08-.61-4.18-.86-6.28-.08-.69.1-1.36.81-1.48a18.32 18.32 0 017.45 0c-.32 1.19-1 1.21-1.71 1.2h-5.42l.4 2.91m-80.47 5.22a4.45 4.45 0 01-1.16-.53c-.17-.17-.17-.55-.26-.82-.76-2.13-.89-2.24-2.91-2.17-.55 0-1.11.11-1.66.13s-1.12 0-1.69 0L63.36 165c-1-.73-.44-1.5-.35-2.22-.77-.44-1.46-.92-1-2.17l1.9-.19c.39-1 .81-2 1.18-3a1.44 1.44 0 011.38-1.13c1.1-.06 2.19-.24 3.29-.34s1.5.41 1.62 1.59c.2 1.87.33 3.75.53 5.63.08.68.25 1.34.48 2.52m-3-8.06c-.72.09-1.36.14-2 .26-1.76.32-1.78.36-2 2.65.72-.06 1.41-.18 2.11-.17s1.45.14 2.35.23c-.17-1.08-.3-1.93-.46-3m72.42.95c.22 1.23.36 2.1.55 2.95.28 1.3.65 1.61 1.78 1.68 1.57.1 3.13.24 4.69.36.15 0 .35 0 .44.05.25.24.61.55.61.83a1 1 0 01-.61.78c-2.1.14-4.21.29-6.31.22a2 2 0 01-1.43-1.31 30.33 30.33 0 01-.78-5.21c-.09-1.56.28-2 1.63-2.21a40 40 0 015.14-.22 4.92 4.92 0 011.58.62 1.27 1.27 0 01-1.55.94 33.45 33.45 0 00-3.61 0 11.45 11.45 0 00-2.13.56m-33.36-.2c.25 1.23.4 2.1.6 3 .31 1.3.73 1.61 2 1.68 1.73.11 3.45.24 5.17.37h.49c.26.25.66.55.66.83a1 1 0 01-.67.78c-2.31.14-4.64.29-7 .22a2.16 2.16 0 01-1.58-1.3 27.73 27.73 0 01-.85-5.22c-.11-1.56.3-2 1.79-2.2a48.52 48.52 0 015.66-.23 5.71 5.71 0 011.74.62c-.38 1-1 1-1.7.95a37.78 37.78 0 00-4 0 13.62 13.62 0 00-2.35.56M39 158.17c.25 1.24.4 2.1.6 3 .31 1.3.73 1.61 2 1.69 1.73.1 3.45.24 5.17.36.16 0 .38 0 .49.05.26.24.66.54.66.83a1 1 0 01-.67.78c-2.31.14-4.64.29-7 .22a2.2 2.2 0 01-1.58-1.31 27.76 27.76 0 01-.85-5.21c-.11-1.56.3-2 1.79-2.21a48.52 48.52 0 015.66-.23 5.75 5.75 0 011.74.63c-.38 1-1 1-1.7.94-1.33-.06-2.66-.12-4 0a13.62 13.62 0 00-2.35.56m92.88 2.11c0 1.48.06 2.63.08 3.78a2.56 2.56 0 010 .92c-.09.24-.4.6-.56.58a1.42 1.42 0 01-.76-.56 1.47 1.47 0 01-.1-.72c0-2.1-.09-4.21-.1-6.31a9.15 9.15 0 01.33-1.56 45 45 0 006.35 6.15c.16-1.71.31-3.22.46-4.72a5.34 5.34 0 01.15-1.28 1 1 0 01.67-.46c.14 0 .42.24.48.43a3.65 3.65 0 01.13 1.1v5.38c0 .61.12 1.25-.6 1.57a1.75 1.75 0 01-2.1-.1c-1.21-1.11-2.4-2.25-3.59-3.38-.2-.19-.39-.4-.81-.82m-56.16-4.72c1.37.43 1.35.43 1.35 1.76v5.87c1.13-.07 2.22-.18 3.31-.22.8 0 1.63 0 2 1.21-.25.19-.48.5-.72.53a48.47 48.47 0 01-4.94.36c-1.27 0-1.67-.81-1.59-2.39s.07-3.29.17-4.93a16.54 16.54 0 01.41-2.19m43.79 25.89c-7-1.14-11.44-.27-17.27-.65-1.09-.07-2.19-.16-3.28-.25-2.08 0-4.2.07-6.41 0l-5.23.19a22.48 22.48 0 01-4.3.16q-3.84.15-7.74.26c1.17.69 2.39 1.39 3.65 2.08 14.23 1.16 41.88 1.63 43.19.73l-2.56-2.55m9.73-8.77c-3.49-.05-6.87-.11-10.06-.12h-1c-15 .68-30.27 1.27-49 .62l-12.77.24a2.51 2.51 0 00.36 1.22 106.37 106.37 0 0022.46 2.35c16.92-.11 34.28-.08 51.3-.15 4 0 7.31-.23 11.07-.36l-12.34-3.8M9.66 118.07l-1.66.07c-.24-.52-.47-.79-.45-1 .15-2.64.32-5.28.53-7.91.05-.66.45-1.23 1.2-1.07s1 .82.94 1.63c-.23 2.57-.37 5.16-.58 8.3"/></g></g></svg>