<svg xmlns="http://www.w3.org/2000/svg" xmlns:xlink="http://www.w3.org/1999/xlink" viewBox="0 0 198.647 198.648"><defs><style>.cls-1{fill:none;}.cls-2{opacity:0.9;}.cls-3{clip-path:url(#clip-path);}.cls-4{fill:#0b242b;}.cls-5{fill:#f8a667;}</style><clipPath id="clip-path" transform="translate(-0.0005 0.0001)"><rect class="cls-1" width="198.6479" height="198.6476"/></clipPath></defs><g id="Layer_2" data-name="Layer 2"><g id="Layer_1-2" data-name="Layer 1"><g class="cls-2"><g class="cls-3"><path class="cls-4" d="M198.6475,99.3239A99.3235,99.3235,0,1,1,99.3235,0a99.3242,99.3242,0,0,1,99.324,99.324" transform="translate(-0.0005 0.0001)"/><path class="cls-4" d="M2.03,106.4645v-13.2c.153-.931.376-1.857.449-2.794a93.15,93.15,0,0,1,4.829-22.794A95.5362,95.5362,0,0,1,36.78,24.8775a94.6533,94.6533,0,0,1,49.236-21.889c2.166-.299,4.33-.616,6.494-.924h12.96a8.3548,8.3548,0,0,0,.998.247c3.25.398,6.527.634,9.748,1.197,21.099,3.688,39.164,13.112,53.841,28.803,9.835,10.516,17.489,22.404,22.05,36.131,6.639,19.982,6.312,40.091.524,60.161-4.887,16.947-14.313,31.091-27.421,42.816-17.819,15.94-38.383,25.19-62.567,25.572a3.4589,3.4589,0,0,0-.773.193H99.95a7.2665,7.2665,0,0,0-.9-.196c-5.243-.489-10.532-.685-15.724-1.499-23.852-3.744-43.435-15.044-58.813-33.665a95.31,95.31,0,0,1-21.588-48.986c-.282-2.127-.596-4.25-.895-6.374m182.37,18.966c.715-1.98.003-2.979-2.004-2.814-1.826.15-3.653.287-5.477.458-.848.079-1.689.225-2.533.34.001.1.002.2.002.3.643.127,1.283.271,1.929.377q4.0545.6675,8.113,1.316c-.454.457-.828,1.087-1.376,1.338-1.466.671-3.007,1.179-4.663,1.807,1.804,1.674,3.507,3.254,5.404,5.015.387-2.553.756-4.826,1.05-7.108.041-.318-.288-.685-.445-1.029m-88.165-51.779c-.144-.051-.289-.101-.433-.152.232-.698.432-1.408.701-2.092,1.333-3.378,2.708-6.74,4.019-10.127.74-1.91.4-2.829-1.471-3.657a4.17,4.17,0,0,1-2.677-4.243,9.4518,9.4518,0,0,0-2.187-5.767,24.7584,24.7584,0,0,0-1.115,2.774,20.8977,20.8977,0,0,1-6.331,9.98,16.9227,16.9227,0,0,0-2.603,3.244c-1.376,2.144-2.496,4.46-3.948,6.548-3.582,5.15-7.364,10.162-10.926,15.326a55.8585,55.8585,0,0,1-9.45,10.637,16.8474,16.8474,0,0,1-2.234,1.402c-.084-.1-.168-.2-.252-.301.225-.348.433-.709.678-1.044q4.995-6.822,9.996-13.639c1.379-1.891,1.118-2.67-1.063-3.373-.114-.036-.234-.055-.348-.091a5.7,5.7,0,0,1-4.092-3.695c-.139-.415-.764-.756-1.237-.92-.157-.055-.582.527-.817.864a21.2,21.2,0,0,1-1.935,2.828c-1.508,1.539-3.171,2.927-4.779,4.367a5.1475,5.1475,0,0,1-.686.447l-.252-.234c.318-.521.601-1.067.96-1.558,1.227-1.677,2.557-3.285,3.69-5.022a4.0592,4.0592,0,0,0,.822-2.651c-.469-2.135-1.302-4.191-2.063-6.5-5.567,6.987-11.072,13.588-14.812,21.423-.876,1.836-1.843,3.636-2.881,5.386-1.142,1.924-2.413,3.772-3.628,5.653-.101-.055-.203-.109-.304-.164-.026-2.835,1.135-5.374,2.278-8.191-1.736,1.516-3.267,2.833-4.775,4.177a15.165,15.165,0,0,0-4.123,5.523,7.7048,7.7048,0,0,1-1.404,2.299c-1.306,1.401-2.712,2.713-4.125,4.009a11.2172,11.2172,0,0,0-3.945,6.533,3.6587,3.6587,0,0,1-.835,1.536c-1.53,1.933-3.141,3.802-4.643,5.755a3.8015,3.8015,0,0,0-.071,4.579c1.029,1.794,1.866,3.698,2.809,5.542,1.018,1.989,1.943,4.039,3.125,5.926,1.28,2.045,2.81,3.933,4.275,5.95,1.434-1.132,2.654-2.095,3.873-3.058-.055-.092-.109-.184-.164-.277-1.142.069-2.285.138-3.509.213a3.8409,3.8409,0,0,1,2.248-3.251,9.9838,9.9838,0,0,0,5.038-6.124c.174-.559.43-1.092.644-1.628,1.557.5,2.004,1.054,1.943,2.676a9.9991,9.9991,0,0,0,3.465,8.084,24.2952,24.2952,0,0,1,2.266,2.813c-1.743,1.051-3.354.249-5.259.021.511.561.719.953,1.043,1.121,2.371,1.235,4.722,2.524,7.168,3.595a3.3073,3.3073,0,0,0,4.248-1.903c-2.164-.077-4.642,1.481-6.364-1.26,3.333-1.804,6.99-3.097,9.399-6.561-.596.159-.978.245-1.349.363-2.205.707-4.407,1.426-6.613,2.13a1.5934,1.5934,0,0,1-2.211-.959c.854-.37,1.718-.677,2.518-1.105a48.0733,48.0733,0,0,0,5.297-3.002c2.639-1.879,4.609-4.242,4.132-7.828a.5635.5635,0,0,1,.024-.354,4.43,4.43,0,0,1,1.004-1.232c.167-.109.775.266,1.049.55a8.3437,8.3437,0,0,1,2.295,4.527,4.1629,4.1629,0,0,0,3.238,3.593,9.21,9.21,0,0,1,2.025.726c1.217.687,2.372,1.483,3.718,2.339a15.855,15.855,0,0,1-8.577,1.169,5.2141,5.2141,0,0,0,1.378,1.731,12.4415,12.4415,0,0,0,11.957,1.519c1.467-.528,2.08-1.632,2.983-2.981-2.306.51-4.109,1.942-6.468,1.342a21.3207,21.3207,0,0,1,1.37-1.697c1.993-2.014,3.978-4.039,6.042-5.978a7.6664,7.6664,0,0,0,2.499-4.895c.128-1.132.3-2.258.45-3.366,1.967.07,2.746.637,3.296,2.548a9.3768,9.3768,0,0,0,6.956,6.763c1.174.335,2.318.778,3.547,1.196-1.292,2.333-4.575,1.935-5.568,4.464,1.468,1.038,2.861,2.023,4.382,3.099-1.412.682-2.677,1.294-4.076,1.97.588.516,1.032.976,1.544,1.341,1.415,1.01,2.152.924,3.299-.376,1.164-1.319,2.307-2.657,3.444-3.999,1.069-1.263,2.12-2.542,3.179-3.814-.085-.12-.171-.239-.256-.359q-3.0525,1.5375-6.106,3.076c-.065-.1-.129-.199-.193-.299,1.803-2.884,4.506-5.183,5.891-8.616-1.006.377-1.76.659-2.514.941-.076-.092-.153-.183-.23-.275.616-1.089,1.204-2.196,1.856-3.264,1.242-2.037,2.298-4.128,2.195-6.606-.031-.745.347-1.007,1.035-.951a2.3412,2.3412,0,0,1,2.198,1.895,11.2968,11.2968,0,0,0,5.629,6.848,21.7835,21.7835,0,0,1,3.352,2.3c1.139.998,2.101,2.197,3.141,3.308-.082.125-.163.251-.245.376q-3.1845-.786-6.369-1.571a1.0078,1.0078,0,0,0,.416.636c1.376,1.031,2.808,1.996,4.105,3.118a2.0606,2.0606,0,0,1,.658,1.696,1.3759,1.3759,0,0,1-1.905.73c-.832-.276-1.661-.568-2.465-.915-.773-.333-1.511-.745-2.264-1.122q-.141.1845-.28.371c.649.585,1.206,1.46,1.965,1.7,2.348.743,4.766,1.273,7.173,1.813a1.8947,1.8947,0,0,0,1.472-.236c1.27-1.154,2.432-2.426,3.634-3.654a12.5908,12.5908,0,0,0-2.639,1.218c-.839.469-1.681.931-2.781-.076a36.79,36.79,0,0,0,10.54-14.211,3.8236,3.8236,0,0,1,2.397,3.418c.775,5.56,4.119,9.432,8.39,12.744,1.614-1.396,3.201-2.768,4.875-4.215-1.277-.615-2.445-1.128-3.565-1.73-1.286-.691-1.375-1.313-.271-2.269,1.239-1.07,2.573-2.029,3.852-3.054a6.8721,6.8721,0,0,0,2.572-3.518c.381-1.392.949-1.624,2.239-.936a5.8805,5.8805,0,0,1,2.595,3.469,6.0237,6.0237,0,0,0,4.467,3.933c1.479.383,2.9.987,4.451,1.529a6.4431,6.4431,0,0,1-.481.626,6.64,6.64,0,0,1-7.269,1.698,5.2265,5.2265,0,0,0-1.064-.144c-.063.186-.125.372-.188.558a53.926,53.926,0,0,0,4.98,2.386c1.558.572,3.264.732,4.865,1.205,1.278.378,1.415.834.457,1.727-1.129,1.053-2.435,1.916-3.688,2.879a5.5506,5.5506,0,0,0,1.96-.373,12.0418,12.0418,0,0,0,2.428-2.069c2.429-2.587,4.514-5.385,5.281-8.972a11.2584,11.2584,0,0,1,.919-2.057,7.1236,7.1236,0,0,1,1.541,1.174,24.7268,24.7268,0,0,1,2.407,3.812,5.4058,5.4058,0,0,0,4.623,3.471c1.338.135,2.661.424,4.16.672-.732.954-1.346,1.754-2.047,2.667,1.377.527,2.591,1.027,3.829,1.456,1.282.445,1.833.229,2.422-.994.746-1.545,1.471-3.105,2.11-4.696a3.8494,3.8494,0,0,0-.927-4.625c-3.133-2.732-6.36-5.356-9.549-8.023-.686-.574-1.236-.332-1.731.286-.85,1.06-1.699,2.122-2.562,3.171a5.2184,5.2184,0,0,1-.615.551,3.8151,3.8151,0,0,1,.205-1.731c.384-1.135.77-2.271,1.212-3.384a4.7489,4.7489,0,0,0-.219-4.156c-.625-1.204-1.205-2.434-1.729-3.685a10.0257,10.0257,0,0,0-4.737-5.054c-1.298-.694-1.72-.601-2.664.516q-2.3985,2.84-4.826,5.656a8.0027,8.0027,0,0,1-.641.606c-.09-.056-.18-.112-.269-.168.24-.56.457-1.133.726-1.679,1.712-3.479,3.475-6.949,4.004-10.848a3.5179,3.5179,0,0,0-.479-2.568c-1.72-1.81-3.672-3.398-5.566-5.097a17.6878,17.6878,0,0,1-1.328,2.429,13.8974,13.8974,0,0,1-1.974,1.919c-.604.522-1.264.98-1.908,1.452a23.884,23.884,0,0,0-6.533,6.609,9.9764,9.9764,0,0,1-1.874,1.747c-.078-.353-.154-.483-.121-.573,1.503-4.009,3.173-7.854,7.336-9.953a7.9262,7.9262,0,0,0,4.311-5.752,9.5079,9.5079,0,0,0-1.174-6.115,6.5426,6.5426,0,0,1-.948-3.361,18.8536,18.8536,0,0,0-.998-8.254c-1.208,1.145-2.351,2.188-3.448,3.277a47.1051,47.1051,0,0,1-10.233,8.254,4.43,4.43,0,0,0-1.393,1.286,19.73,19.73,0,0,1-6.943,5.959,16.4877,16.4877,0,0,0-5.643,4.925c-1.018,1.385-2.005,2.792-3.02,4.179q-4.53,6.1965-9.075,12.381a6.2684,6.2684,0,0,1-3.67,2.578c.352-.612.565-1.036.827-1.427,3.906-5.848,7.838-11.68,11.711-17.55a5.7685,5.7685,0,0,0,1.259-2.895c-.071-2.712-.49-5.415-.773-8.121l-.415-.015c-.242.303-.493.6-.725.91-1.031,1.375-2.045,2.764-3.097,4.123-.151.196-.478.256-.724.378a1.88,1.88,0,0,1-.138-.712c.289-1.284.566-2.576.953-3.833.577-1.868,1.352-3.682,1.816-5.575a3.0994,3.0994,0,0,0-.447-2.42,45.2015,45.2015,0,0,0-3.871-3.649c-1.378,2.543-2.554,5.078-4.064,7.395-1.49,2.286-2.891,4.741-5.512,6.081a3.0171,3.0171,0,0,1,.438-1.187c1.61-2.669,3.166-5.372,4.86-7.987a13.333,13.333,0,0,0,1.6-11.029,18.5839,18.5839,0,0,0-5.881-9.112c-1.629,2.747-3.207,5.409-4.785,8.07m53.284-5.077c-1.514-.19-2.758-.439-4.009-.486a14.4082,14.4082,0,0,1-9.646-3.971c-2.053-1.939-4.082-3.931-4.738-6.895a19.9742,19.9742,0,0,1,4.12-17.552c.581-.732,1.145-1.479,1.895-2.45a10.5283,10.5283,0,0,0-1.132.164c-9.307,2.714-15.012,9.944-15.549,19.625-.212,3.818.486,7.289,3.217,10.185,5.825,6.174,17.871,7.39,24.69,2.439a15.3179,15.3179,0,0,0,1.152-1.059m6.866-27.907c.032-3.315-.942-5.084-2.569-6.527a7.3221,7.3221,0,0,0-9.36-.414,7.1832,7.1832,0,0,0-1.815,8.881c1.775,3.154,3.575,4.066,7.111,3.603,3.969-.519,6.622-3.167,6.633-5.543M33.2424,75.7415c.872-1.516,1.641-2.867,2.422-4.211.922-1.586.851-2.125-.645-3.564-1.193,1.986-2.392,3.909-3.515,5.875-.957,1.676-.994,1.728-2.922,1.406s-3.858-.648-5.792-.934a1.1161,1.1161,0,0,0-1.36,1.026,1.2,1.2,0,0,0,.808,1.524,8.9353,8.9353,0,0,0,1.15.329c1.823.425,3.648.841,5.546,1.277-.875,2.135-1.753,4.186-2.541,6.271a1.6465,1.6465,0,0,0,.083,1.418,1.8627,1.8627,0,0,0,1.523.355c.391-.1.758-.649.956-1.082,1.026-2.239,1.994-4.505,2.972-6.737,2.509.218,4.831,1.574,7.264.354-.497-2.129-.854-2.436-2.921-2.731-.97-.138-1.929-.364-3.028-.576m82.083-48.715c-1.174,2.044-2.297,3.958-3.376,5.896-.758,1.36-1.292,1.639-2.796,1.373-1.886-.333-3.773-.666-5.666-.955-1.252-.192-2.151.852-1.564,1.879a2.45,2.45,0,0,0,1.442.887c1.953.508,3.932.919,5.986,1.385-.875,2.138-1.718,4.151-2.52,6.181-.282.714-.555,1.465.523,1.858.994.363,1.546.061,1.949-.913.852-2.063,1.821-4.078,2.682-6.139a.9339.9339,0,0,1,1.278-.652,18.9117,18.9117,0,0,0,2.925.601,32.5053,32.5053,0,0,0,3.378-.054c-.401-2.36-.855-2.766-2.791-3.005-1.011-.126-2.008-.374-3.161-.595.936-1.598,1.767-2.999,2.58-4.41.808-1.402.694-1.974-.869-3.337m65.685,50.809c-1.235,2.087-2.487,4.12-3.649,6.202a1.85,1.85,0,0,1-2.235,1.091c-1.879-.372-3.774-.663-5.667-.963-.865-.137-1.755-.177-2.002.947-.258,1.172.547,1.537,1.474,1.761.271.066.541.134.813.196,1.738.401,3.477.801,5.295,1.22-.906,2.17-1.765,4.229-2.625,6.289-.288.689-.404,1.369.475,1.686.798.287,1.567.35,1.989-.667.61-1.474,1.308-2.912,1.896-4.394.97-2.449.581-3.124,4.125-2.161a5.9736,5.9736,0,0,0,4.28-.146c-.304-2.03-.999-2.663-2.871-2.842-.972-.093-1.933-.301-3.041-.481.903-1.549,1.702-2.926,2.505-4.301.868-1.486.751-2.15-.762-3.437M38.7874,44.5575c1.006-.897,1.805-1.607,2.601-2.321.85-.763.317-1.415-.16-2.086a1.0392,1.0392,0,0,0-1.732-.172,22.8959,22.8959,0,0,0-2.463,2.272,2.9254,2.9254,0,0,1-3.648.799,35.9968,35.9968,0,0,0-4.451-1.377,8.5545,8.5545,0,0,0-2.278.097c.236,1.355.766,2.03,1.831,2.318a17.4,17.4,0,0,1,2.701.956c1.287.588,1.434,1.373.476,2.433-.586.649-1.445,1.113-1.852,1.844a5.7572,5.7572,0,0,0-.23,2.207c.718-.049,1.437-.089,2.154-.155.097-.009.182-.148.272-.227,1.266-1.102,2.555-2.177,3.788-3.315a2.3511,2.3511,0,0,1,2.513-.546c2.71.786,5.451,1.461,8.204,2.187.381-2.382.075-2.867-1.977-3.398-.85-.22-1.71-.402-2.558-.625-.985-.26-1.962-.546-3.191-.891m-8.196,15.973c0-3.747-2.754-6.735-6.145-6.285-5.411.718-6.501,2.603-6.226,6.913.136,2.141.611,4.304,2.852,5.451a6.5414,6.5414,0,0,0,9.519-6.079m50.672-29.003c-.439,2.827.625,4.49,3.901,5.669a8.8868,8.8868,0,0,0,5.181.25,6.3641,6.3641,0,0,0,3.467-10.163c-2.024-2.546-5-3.326-8.416-2.206-2.929.96-3.975,2.593-4.133,6.45m96.72,22.283c-1.798,1.144-2.018,1.727-1.302,3.491,1.754,4.322,3.548,8.628,5.308,12.947.311.763.602,1.7,1.602,1.378,1.01-.326.657-1.325.494-2.072a53.8243,53.8243,0,0,0-4.15-11.953c-.602-1.251-1.269-2.469-1.952-3.791M42.3344,35.3485c1.942.967,2.586.876,3.797-.403.659-.696,1.292-1.418,1.908-2.152,2.388-2.847,4.748-5.718,7.157-8.546.548-.644,1.21-1.316.498-2.029-.251-.252-1.432.008-1.843.399-2.545,2.414-5.066,4.862-7.442,7.44-1.472,1.599-2.672,3.449-4.075,5.291m134.941,40.025q.315-.1215.628-.244a7.9849,7.9849,0,0,0,.041-2.237c-.698-2.575-1.391-5.166-2.337-7.656-1.027-2.704-2.332-5.302-3.524-7.963-1.902,1.044-2.182,1.725-1.496,3.404,1.796,4.396,3.591,8.794,5.444,13.167a7.0464,7.0464,0,0,0,1.244,1.529m-46.871-60.78c-.792,1.827-.643,2.493.723,3.495.834.612,1.698,1.189,2.573,1.744,3.063,1.941,6.143,3.855,9.202,5.803.711.454,1.519,1.211,2.207.396.709-.842-.215-1.511-.807-2.07a52.6776,52.6776,0,0,0-10.24-7.426c-1.169-.664-2.376-1.264-3.658-1.942m-60.357,27.191a26.2356,26.2356,0,0,0-1.331,2.332q-2.4915,5.559-4.896,11.158a10.5878,10.5878,0,0,0-.724,2.632c-.059.416.276.887.432,1.333.496-.242,1.258-.355,1.448-.746Q68.26,51.724,71.38,44.8775c.645-1.408.288-2.167-1.333-3.093M15.09,67.2975c-.426.812-.88,1.523-1.188,2.291-1.383,3.441-2.767,6.882-4.057,10.359a19.4312,19.4312,0,0,0-.858,3.712,6.3442,6.3442,0,0,0,.389,1.853c.693-.625,1.3-.921,1.498-1.39q2.8575-6.7785,5.586-13.61c.619-1.543.314-2.21-1.37-3.215m58.441-9.1c.481-.219.71-.255.831-.389a18.5027,18.5027,0,0,0,3.019-3.496c1.639-3.183,2.971-6.524,4.463-9.785.478-1.045-.024-1.517-.866-1.969-.964-.517-1.295.092-1.614.787q-2.3985,5.211-4.788,10.427a32.526,32.526,0,0,0-1.334,3.067c-.121.361.171.861.289,1.358m110.082,61.862c-.232-1.097-.333-1.929-.588-2.71-.568-1.745-1.211-2.122-3.039-1.883-2.133.279-4.265.564-6.393.878-1.432.211-2.856.477-4.284.719-.039.133-.077.266-.116.398.788.477,1.536,1.268,2.372,1.375,3.904.501,7.831.814,12.048,1.223m-13.785-51.084c-.027-1.415-.866-2.032-1.986-1.771a35.3857,35.3857,0,0,0-12.533,5.134c-.604.423-1.145.79-.815,1.61a1.7866,1.7866,0,0,0,2.196.632c3.931-2.038,7.862-4.059,12.289-4.859.379-.068.677-.587.849-.746M7.66,99.5305a5.2569,5.2569,0,0,0,.966-.78c.846-1.007,1.547-2.146,2.456-3.086,2.1-2.169,4.271-4.27,6.453-6.357.532-.509.863-.956.353-1.617-.402-.52-.78-1.204-1.609-.605-.806.582-1.596,1.187-2.405,1.765-3.181,2.276-5.392,5.396-7.479,8.618-.642.991-.121,2.041,1.265,2.062m128.532-69.267c.036-.116.072-.233.108-.349a10.3134,10.3134,0,0,0-1.392-1.381c-2.768-1.88-5.568-3.714-8.361-5.558-1.064-.702-2.133-1.397-3.212-2.075-.624-.391-1.265-.556-1.789.168a1.3443,1.3443,0,0,0,.275,2.001,5.912,5.912,0,0,0,.581.419c2.706,1.83,5.368,3.732,8.142,5.454a14.6067,14.6067,0,0,0,3.746,1.433,5.82,5.82,0,0,0,1.902-.112m-123.458,74.228c1.525,1.93,1.932,1.979,3.391.235,1.993-2.385,3.907-4.836,5.851-7.261.623-.777,1.274-1.538,1.825-2.364a1.1792,1.1792,0,0,0,.091-1.069,1.2792,1.2792,0,0,0-1.084-.448,4.4434,4.4434,0,0,0-2.069,1.051c-2.715,3.227-5.329,6.539-8.005,9.856m97.422-30.938c-.346,2.071-.152,2.327,1.654,2.462,2.785.208,5.569.445,8.356.623,1.088.069,2.185.011,3.471.011-1.498-1.632-2.796-3.197-4.277-4.562a2.2947,2.2947,0,0,0-2.057-.184c-2.262,1.069-4.508,2.043-7.147,1.65m47.879,7.942c.222,2.029.754,2.593,2.036,1.996,3.972-1.85,7.901-3.793,11.821-5.751a.9833.9833,0,0,0-.326-1.847,4.7234,4.7234,0,0,0-2.317.162c-3.755,1.746-7.459,3.604-11.214,5.44m-50.969-71.685c-1.367,2.281-2.824,4.427-3.98,6.725a64.788,64.788,0,0,0-2.843,6.955c-.147.403.29,1.018.457,1.535.473-.278,1.151-.439,1.387-.852,2.078-3.634,4.086-7.308,6.095-10.98.863-1.575.71-2.111-1.116-3.383m81.731,83.17c-3.622,1.854-7.174,3.663-10.714,5.496a2.127,2.127,0,0,0-.998.81,1.9718,1.9718,0,0,0-.101,1.521,2.0069,2.0069,0,0,0,1.378.664,2.4569,2.4569,0,0,0,1.219-.422q4.266-2.1735,8.515-4.379c2.019-1.054,2.147-1.727.701-3.69M49.2954,66.2285c.101-.162.172-.26.226-.365,1.65-3.229,3.317-6.449,4.932-9.696a1.3,1.3,0,0,0-.417-1.894,1.421,1.421,0,0,0-2.032.381c-1.67,2.578-3.337,5.163-4.867,7.824-.734,1.277-.433,1.947.794,2.853.409.302.85.561,1.364.897m16.557-40.304c1.974.372,2.424.121,2.537-1.898.198-3.55.284-7.106.391-10.661.025-.855-.307-1.49-1.307-1.5-.942-.01-1.599.405-1.607,1.38-.033,4.192-.014,8.385-.014,12.679m-1.029,17.03c.204-2.312-.136-2.891-1.66-2.826-3.631.154-7.259.356-10.888.532-.915.045-1.556.378-1.561,1.41a1.3919,1.3919,0,0,0,1.633,1.493c4.147-.167,8.29-.399,12.476-.609m17.132-22.648c2.194.108,4.412.221,6.631.327,1.909.091,3.819.17,5.727.264.89.044,1.58-.379,1.631-1.208.028-.459-.496-1.038-.91-1.408a2.146,2.146,0,0,0-1.232-.35c-3.14-.186-6.281-.361-9.423-.499-2.26-.099-2.758.489-2.424,2.874m73.77,44.271a13.5454,13.5454,0,0,1,1.169-1.027c1.109-.765,1.111-1.62.519-2.77a24.7927,24.7927,0,0,0-6.325-7.265,1.6386,1.6386,0,0,0-1.596-.052,1.919,1.919,0,0,0-.404,1.657,5.0073,5.0073,0,0,0,1.214,1.745,20.4358,20.4358,0,0,1,4.186,5.928,9.9622,9.9622,0,0,0,1.237,1.784m-45.094-40.537a7.26,7.26,0,0,0,3.914-3.3c1.416-2.674,2.769-5.38,4.162-8.065.373-.718.708-1.36-.302-1.882-.916-.473-1.523-.376-2.035.603-1.677,3.209-3.412,6.388-5.12,9.581a10.0523,10.0523,0,0,0-.894,1.815c-.1.338.161.783.275,1.248m77.787,89.177c.222-.19.819-.454.988-.886,1.163-2.966,2.286-5.95,3.311-8.967a1.7734,1.7734,0,0,0-1.156-2.208c-1.198-.32-1.508.472-1.808,1.372-.806,2.42-1.659,4.824-2.479,7.24a9.7976,9.7976,0,0,0-.507,1.836c-.123.943.47,1.595,1.651,1.613M88.4384,8.5125c-.012-.081-.025-.162-.037-.242q-4.326.8235-8.651,1.656a1.5634,1.5634,0,0,0-.529.267,1.4346,1.4346,0,0,0-.525,1.892,1.18,1.18,0,0,0,1.561.718c.35-.078.706-.125,1.061-.178,2.68-.399,5.36-.804,8.042-1.19.901-.13,1.69-.703,1.558-1.476-.096-.56-1.041-1.004-1.657-1.427-.19-.13-.544-.02-.823-.02m-10.42,11.422c-.348-1.071-.215-2.144-1.405-2.281-1.185-.137-1.551.747-1.805,1.684-.01.039-.014.079-.023.118-.562,2.481-1.139,4.958-1.679,7.444a6.0889,6.0889,0,0,0-.222,1.994,1.2283,1.2283,0,0,0,2.16.694,2.355,2.355,0,0,0,.657-.983c.814-2.951,1.586-5.914,2.317-8.67m-19.509,11.041-.021.117c-.318.021-.639.028-.955.067-.9.109-1.805.222-1.782,1.463.023,1.221.945,1.325,1.825,1.457,1.377.206,2.76.378,4.137.584,1.616.241,3.222.573,4.846.715a1.7078,1.7078,0,0,0,1.431-.691,2.45,2.45,0,0,0-.395-1.661,1.5155,1.5155,0,0,0-.972-.636c-2.699-.502-5.408-.95-8.114-1.415m121.925,80.937a5.879,5.879,0,0,0-6.302-3.445c-2.667.474-5.323,1.01-7.982,1.529-.631.123-1.254.284-1.88.428.009.163.017.327.026.49,5.308.328,10.617.656,16.138.998M160,51.3065a1.3738,1.3738,0,0,0-.976,2.306c1.758,2.422,3.566,4.808,5.372,7.196a1.35,1.35,0,0,0,.736.569,3.1186,3.1186,0,0,0,1.528-.169c.155-.068.163-.804.026-1.151a21.94,21.94,0,0,0-5.809-8.236,4.2877,4.2877,0,0,0-.877-.515M37.6164,64.3615c.911.495,1.826.823,2.422-.255,1.522-2.754,2.976-5.547,4.415-8.346.337-.656.297-1.472-.486-1.719a1.8738,1.8738,0,0,0-1.642.385,21.5462,21.5462,0,0,0-4.709,9.935m123.276-20.439a3.6482,3.6482,0,0,0,.985-.468c1.831-1.542,3.629-3.121,5.437-4.689.779-.675.652-1.446-.119-1.865-.583-.317-1.667-.555-2.056-.242a58.385,58.385,0,0,0-5.624,5.117c-.84.88-.076,2.108,1.377,2.147m-29.298,42.933c-.856-1.67-1.913-2.591-3.597-2.459-1.189.094-2.367.317-3.551.478q-3.8265.519-7.652,1.032c-.058.986.354,1.383,1.198,1.358,4.461-.134,8.922-.268,13.602-.409m34.349-35.537a3.0356,3.0356,0,0,0,.864-.298c2.029-1.795,4.056-3.593,6.036-5.441a1.1205,1.1205,0,0,0,.071-1.045,1.66,1.66,0,0,0-2.553-.528q-2.736,2.3265-5.307,4.842a1.7076,1.7076,0,0,0-.227,1.513c.164.425.77.681,1.116.957m-61.614,10.732c3.243.269,6.416.533,9.85.818-.612-.753-1.023-1.23-1.403-1.731-1.816-2.388-3.755-2.979-6.616-2.003-1.537.524-1.921,1.098-1.831,2.916m22.257,19.213c-.161-.325-.284-.564-.4-.807-.989-2.081-1.065-2.105-3.362-1.785-2.878.4-5.76.767-8.64,1.155-.373.05-.741.143-1.093.213.05,1.032.599,1.267,1.379,1.27,3.823.016,7.647.047,11.47.066a4.1387,4.1387,0,0,0,.646-.112m35.542-47.257a32.3965,32.3965,0,0,0-8.057-8.037,5.8823,5.8823,0,0,0-1.444-.502c-.085.098-.17.196-.254.294a4.897,4.897,0,0,0,.625,1.424q3.186,3.48,6.468,6.874c.863.897,1.552.863,2.662-.053m25.351,43.005a6.3208,6.3208,0,0,0-.403,1.781q.5745,4.737,1.282,9.458c.205,1.372.638,1.593,2.112,1.272.159-3.951-1.053-7.675-1.997-11.44-.08-.319-.499-.554-.994-1.071M106.99,66.5455c-.09.155-.179.309-.268.464.569.471,1.091,1.267,1.714,1.356,2.586.369,5.202.524,7.98.773-.254-1.301-.464-2.373-.692-3.536-2.982.322-5.858.633-8.734.943m51.038,25.884c-.204-.962-.303-1.635-.492-2.282a2.8441,2.8441,0,0,0-3.201-2.424,3.84,3.84,0,0,0-1.421.087c-.529.216-1.389.69-1.362.984.064.695.408,1.737.924,1.95a54.4,54.4,0,0,0,5.552,1.685m-1.911,5.219c3.265.558,6.427,1.099,9.736,1.664a4.394,4.394,0,0,0-3.203-2.662c-1.404-.285-2.827-.481-4.245-.694-1.342-.202-1.817.131-2.288,1.692m-36.207-5.916.018.462c1.9.096,3.803.315,5.698.251a3.7185,3.7185,0,0,0,3.326-3.227c-3.056.85-6.049,1.682-9.042,2.514m-13.963-35.988c-1.199-3.502-4.37-2.707-6.934-3.397.797,2.386,4.403,4.163,6.934,3.397m63.259,49.32c-2.848-1.786-5.769-.727-8.752-1.057,1.882,2.189,6.204,2.696,8.752,1.057m-98.164-26.16c.757-1.015,1.48-1.984,2.203-2.954q-.1515-.1575-.303-.317c-1.443.531-2.886,1.062-4.524,1.665.992.607,1.767,1.081,2.624,1.606m-3.362-6.584c1.127.139,2.052.253,3.215.397-1.295-1.495-1.88-1.559-3.215-.397m29.973-26.156c-.044,1.891.462,2.258,1.953,1.457-.631-.471-1.215-.906-1.953-1.457m24.853,49.855c-.726.264-1.333.484-2.038.74,1.096.864,1.505.71,2.038-.74M7.3544,116.0435c.013.107-.032.361.074.491.411.502.87.964,1.311,1.441.371-.376.901-.69,1.077-1.142a13.0114,13.0114,0,0,0,.639-2.651c.219-1.374.276-2.778.561-4.136a2.0605,2.0605,0,0,0-1.132-2.538c-.806-.216-1.477.404-1.8,1.664a1.7037,1.7037,0,0,0-.043.235c-.227,2.181-.452,4.363-.687,6.636" transform="translate(-0.0005 0.0001)"/><path class="cls-5" d="M96.2355,73.6517c1.578-2.662,3.156-5.323,4.785-8.07a18.5662,18.5662,0,0,1,5.88,9.112,13.3332,13.3332,0,0,1-1.599,11.029c-1.694,2.614-3.25,5.318-4.86,7.987a3.0183,3.0183,0,0,0-.438,1.186c2.621-1.339,4.022-3.795,5.512-6.08,1.51-2.317,2.686-4.852,4.064-7.395a45.0447,45.0447,0,0,1,3.871,3.649,3.0994,3.0994,0,0,1,.447,2.42c-.464,1.892-1.239,3.707-1.816,5.575-.387,1.256-.664,2.548-.953,3.832a1.8847,1.8847,0,0,0,.138.713c.246-.123.573-.182.724-.378,1.052-1.359,2.066-2.748,3.097-4.124.232-.31.482-.606.725-.909.138.005.277.01.415.014.282,2.707.702,5.409.773,8.121a5.7716,5.7716,0,0,1-1.259,2.896c-3.873,5.869-7.805,11.701-11.711,17.55-.262.391-.475.814-.827,1.426a6.2671,6.2671,0,0,0,3.67-2.577q4.5555-6.177,9.075-12.381c1.014-1.387,2.002-2.794,3.02-4.18a16.4982,16.4982,0,0,1,5.643-4.925,19.7094,19.7094,0,0,0,6.943-5.959,4.4382,4.4382,0,0,1,1.393-1.285,47.08,47.08,0,0,0,10.233-8.255c1.097-1.088,2.24-2.131,3.448-3.276a18.8492,18.8492,0,0,1,.998,8.253,6.5434,6.5434,0,0,0,.948,3.362,9.4993,9.4993,0,0,1,1.173,6.114,7.9248,7.9248,0,0,1-4.31,5.753c-4.163,2.099-5.833,5.944-7.336,9.953-.033.089.043.22.121.573a10.0075,10.0075,0,0,0,1.874-1.747,23.8433,23.8433,0,0,1,6.533-6.609c.644-.472,1.304-.931,1.908-1.452a13.8913,13.8913,0,0,0,1.973-1.919,17.58,17.58,0,0,0,1.329-2.429c1.893,1.699,3.846,3.287,5.565,5.096a3.5169,3.5169,0,0,1,.48,2.569c-.529,3.898-2.292,7.369-4.004,10.848-.269.546-.486,1.118-.726,1.679.089.056.179.112.269.168a8.0027,8.0027,0,0,0,.641-.606q2.421-2.8215,4.826-5.656c.944-1.117,1.366-1.211,2.664-.517a10.0256,10.0256,0,0,1,4.736,5.055c.525,1.25,1.105,2.481,1.73,3.685a4.7489,4.7489,0,0,1,.219,4.156c-.442,1.113-.828,2.249-1.212,3.384a3.8151,3.8151,0,0,0-.205,1.731,5.3088,5.3088,0,0,0,.615-.551c.863-1.049,1.712-2.111,2.562-3.172.494-.617,1.045-.859,1.731-.285,3.189,2.667,6.416,5.29,9.549,8.023a3.8482,3.8482,0,0,1,.927,4.624c-.639,1.592-1.364,3.152-2.11,4.697-.589,1.222-1.14,1.439-2.422.994-1.238-.429-2.452-.929-3.829-1.456.701-.913,1.315-1.713,2.047-2.667-1.499-.248-2.822-.537-4.16-.672a5.4069,5.4069,0,0,1-4.623-3.472,24.7657,24.7657,0,0,0-2.407-3.811,7.1166,7.1166,0,0,0-1.541-1.174,11.2284,11.2284,0,0,0-.919,2.057c-.767,3.586-2.852,6.385-5.281,8.972a12.1341,12.1341,0,0,1-2.428,2.069,5.5506,5.5506,0,0,1-1.96.373c1.253-.963,2.559-1.826,3.688-2.879.958-.894.821-1.349-.457-1.727-1.601-.473-3.307-.633-4.865-1.205a54.06,54.06,0,0,1-4.98-2.386q.093-.279.188-.558a5.1384,5.1384,0,0,1,1.063.143,6.6377,6.6377,0,0,0,7.27-1.698,6.5251,6.5251,0,0,0,.481-.625c-1.551-.542-2.972-1.146-4.451-1.53a6.0239,6.0239,0,0,1-4.468-3.932,5.875,5.875,0,0,0-2.594-3.469c-1.29-.688-1.858-.456-2.24.936a6.8648,6.8648,0,0,1-2.571,3.518c-1.279,1.025-2.613,1.983-3.852,3.054-1.105.955-1.015,1.578.271,2.269,1.12.602,2.287,1.114,3.565,1.73-1.674,1.447-3.261,2.819-4.875,4.215-4.271-3.312-7.615-7.184-8.391-12.745a3.8207,3.8207,0,0,0-2.396-3.417,36.78,36.78,0,0,1-10.54,14.21c1.1,1.007,1.941.546,2.781.077a12.6441,12.6441,0,0,1,2.639-1.219c-1.202,1.229-2.364,2.501-3.634,3.655a1.8953,1.8953,0,0,1-1.472.235c-2.408-.539-4.825-1.069-7.173-1.812-.759-.24-1.316-1.116-1.966-1.7.094-.124.187-.248.281-.372.753.378,1.491.79,2.264,1.123.804.347,1.633.638,2.465.915a1.3758,1.3758,0,0,0,1.905-.731,2.0607,2.0607,0,0,0-.659-1.696c-1.297-1.121-2.728-2.087-4.104-3.117a1.0106,1.0106,0,0,1-.416-.636q3.1845.7845,6.369,1.571.1215-.189.245-.376c-1.04-1.112-2.002-2.311-3.141-3.308a21.7132,21.7132,0,0,0-3.352-2.3,11.2954,11.2954,0,0,1-5.629-6.849,2.3392,2.3392,0,0,0-2.198-1.894c-.688-.056-1.066.206-1.035.951.103,2.478-.953,4.569-2.196,6.606-.651,1.068-1.239,2.175-1.856,3.264.077.091.154.183.231.274.754-.282,1.508-.563,2.514-.94-1.386,3.433-4.088,5.732-5.891,8.616.064.099.128.199.193.299q3.0525-1.539,6.106-3.076.1275.1785.256.359c-1.059,1.272-2.11,2.551-3.179,3.814-1.137,1.342-2.28,2.68-3.444,3.998-1.147,1.3-1.884,1.387-3.299.377-.512-.366-.956-.826-1.544-1.341,1.399-.677,2.664-1.288,4.076-1.971-1.521-1.075-2.915-2.06-4.382-3.098.993-2.529,4.276-2.131,5.568-4.465-1.229-.417-2.373-.86-3.547-1.195a9.3784,9.3784,0,0,1-6.956-6.763c-.55-1.911-1.329-2.478-3.296-2.549-.15,1.109-.322,2.235-.45,3.367a7.6711,7.6711,0,0,1-2.499,4.894c-2.064,1.94-4.049,3.965-6.042,5.979a21.0793,21.0793,0,0,0-1.37,1.696c2.359.601,4.162-.831,6.468-1.341-.903,1.349-1.516,2.453-2.983,2.98a12.441,12.441,0,0,1-11.958-1.518,5.2243,5.2243,0,0,1-1.377-1.731,15.855,15.855,0,0,0,8.577-1.169c-1.346-.856-2.501-1.653-3.718-2.339a9.2309,9.2309,0,0,0-2.025-.727,4.1594,4.1594,0,0,1-3.238-3.592,8.3437,8.3437,0,0,0-2.295-4.527c-.274-.284-.882-.659-1.05-.55a4.4655,4.4655,0,0,0-1.004,1.232.5678.5678,0,0,0-.023.353c.477,3.587-1.493,5.949-4.132,7.828a47.9188,47.9188,0,0,1-5.297,3.003c-.8.427-1.664.735-2.518,1.105a1.594,1.594,0,0,0,2.211.959c2.206-.704,4.408-1.423,6.613-2.13.371-.119.753-.204,1.349-.363-2.409,3.464-6.066,4.757-9.399,6.561,1.722,2.741,4.2,1.183,6.363,1.26a3.3053,3.3053,0,0,1-4.247,1.902c-2.446-1.07-4.797-2.359-7.168-3.594-.324-.169-.532-.56-1.043-1.122,1.905.229,3.516,1.031,5.259-.02a24.1119,24.1119,0,0,0-2.267-2.813,10.002,10.002,0,0,1-3.464-8.085c.061-1.621-.386-2.175-1.943-2.675-.214.535-.47,1.069-.644,1.628a9.9865,9.9865,0,0,1-5.038,6.124,3.8394,3.8394,0,0,0-2.248,3.25l3.509-.212c.055.092.109.185.164.277-1.219.963-2.439,1.925-3.873,3.058-1.465-2.017-2.995-3.905-4.275-5.95-1.182-1.888-2.108-3.937-3.125-5.926-.943-1.845-1.78-3.748-2.809-5.542a3.803,3.803,0,0,1,.071-4.58c1.502-1.953,3.113-3.821,4.643-5.754a3.6587,3.6587,0,0,0,.835-1.536,11.2142,11.2142,0,0,1,3.945-6.533c1.413-1.296,2.819-2.608,4.125-4.009a7.6972,7.6972,0,0,0,1.404-2.3,15.1587,15.1587,0,0,1,4.123-5.522c1.507-1.344,3.039-2.661,4.775-4.177-1.143,2.817-2.304,5.355-2.279,8.191.102.054.204.109.305.163,1.215-1.881,2.486-3.728,3.628-5.652,1.038-1.75,2.005-3.55,2.881-5.386,3.74-7.835,9.245-14.436,14.811-21.424.762,2.31,1.595,4.365,2.064,6.501a4.0606,4.0606,0,0,1-.822,2.65c-1.133,1.738-2.463,3.346-3.69,5.023-.359.491-.642,1.037-.96,1.558l.252.234a5.1536,5.1536,0,0,0,.686-.448c1.608-1.44,3.271-2.827,4.779-4.366a21.2,21.2,0,0,0,1.935-2.828c.235-.337.66-.919.817-.864.473.164,1.098.505,1.236.92a5.7019,5.7019,0,0,0,4.093,3.695c.114.036.234.054.348.091,2.181.703,2.442,1.482,1.063,3.372q-4.983,6.831-9.996,13.64c-.245.334-.453.695-.679,1.044.084.1.168.2.252.301a16.6982,16.6982,0,0,0,2.235-1.403,55.9209,55.9209,0,0,0,9.45-10.636c3.562-5.164,7.344-10.176,10.925-15.326,1.453-2.088,2.573-4.404,3.949-6.549a16.9471,16.9471,0,0,1,2.603-3.243,20.9053,20.9053,0,0,0,6.331-9.981,24.558,24.558,0,0,1,1.115-2.773,9.4518,9.4518,0,0,1,2.187,5.767,4.17,4.17,0,0,0,2.677,4.243c1.871.828,2.211,1.746,1.471,3.657-1.311,3.386-2.686,6.749-4.019,10.127-.269.683-.469,1.394-.702,2.092.145.051.29.101.434.152m-6.566-7.377c-1.656,2.268-3.291,4.478-4.885,6.718a2.09,2.09,0,0,0-.405,1.221c.161,2.648-1.135,4.646-2.729,6.564-2.094,2.518-4.134,5.081-6.17,7.645a9.8131,9.8131,0,0,0-.799,1.437c.113.075.227.149.34.224.199-.107.4-.212.597-.323,3.98-2.242,6.84-5.726,9.791-9.065a5.2172,5.2172,0,0,0,.892-3.342,7.2309,7.2309,0,0,1,1.664-5.093c.818-.981,1.661-1.943,2.453-2.946,1.112-1.408.985-1.979-.749-3.04m-36.061,36.793c-2.342,2.215-4.729,4.385-7.01,6.661a30.0534,30.0534,0,0,0-3.463,4.057c-1.403,2.016-2.527,4.224-3.919,6.248-1.082,1.573-2.414,2.973-3.585,4.488a7.0385,7.0385,0,0,0-.671,1.438c.106.062.211.124.316.186a4.1946,4.1946,0,0,0,.58-.325c2.044-1.596,4.155-3.117,6.089-4.837a7.6071,7.6071,0,0,0,2.275-3.138,16.6636,16.6636,0,0,1,5.212-7.72,22.6505,22.6505,0,0,0,1.991-2.07,8.0969,8.0969,0,0,0,2.185-4.988m-2.206-12.989c-.119-.041-.238-.081-.357-.122a6.9484,6.9484,0,0,0-.734.864c-2.011,3.293-4.07,6.561-5.977,9.915a7.836,7.836,0,0,1-3.2,3.398c-3.282,1.709-5.189,4.755-7.123,7.742-.024.037.053.138.15.37a4.8526,4.8526,0,0,0,.761-.315q4.5135-2.8185,9.015-5.658a3.96,3.96,0,0,0,2.013-2.696,21.7312,21.7312,0,0,1,3.359-8.116,21.3373,21.3373,0,0,0,1.717-3.142,9.556,9.556,0,0,0,.376-2.24m-20.69,23.971c-2.099-.494-3.174-.022-4.195,1.867-2.732,5.054-5.427,10.127-8.127,15.198a9.1972,9.1972,0,0,0-.417,1.174,11.0627,11.0627,0,0,0,5.244-4.341c2.535-4.564,4.964-9.188,7.495-13.898m61.412-10.371c-3.662,2.839-7.336,5.523-10.795,8.46a15.2985,15.2985,0,0,0-2.731,4.03c-.309.523-.569,1.28.311,1.613,1.612-1.974,3.174-3.835,5.488-4.957a25.4455,25.4455,0,0,0,7.362-5.867,2.6109,2.6109,0,0,0,.365-3.279m-16.47-3.876c-.07-.084-.14-.167-.21-.251a2.5759,2.5759,0,0,0-.519.153,9.6126,9.6126,0,0,0-4.929,5.482,20.2024,20.2024,0,0,1-5.022,8.049c-1.513,1.554-2.937,3.194-4.543,4.95,3.415-.782,7.941-4.231,9.364-7.014a3.5586,3.5586,0,0,0,.342-.892,20.5642,20.5642,0,0,1,3.787-7.938c.6-.83,1.154-1.692,1.73-2.539m62.492-5.402a9.6756,9.6756,0,0,0-5.294,5.28,19.0636,19.0636,0,0,1-5.189,7.088c-.981.847-1.83,1.846-2.825,2.865a2.8105,2.8105,0,0,0,.49.139c3.442.038,8.022-3.619,8.698-6.999a15.257,15.257,0,0,1,3.425-7.286,10.5686,10.5686,0,0,0,.695-1.087m-45.359,22.727c.089.092.177.184.266.275a9.7429,9.7429,0,0,0,.914-.409c2.589-1.491,5.191-2.96,7.744-4.508a10.491,10.491,0,0,0,2.311-1.878,8.5366,8.5366,0,0,0,2.647-5.921,10.6709,10.6709,0,0,0-2.195,1.575c-1.159,1.095-2.207,2.31-3.404,3.358-2.37,2.077-4.823,4.06-7.21,6.118a8.5324,8.5324,0,0,0-1.073,1.39m-6.232-22.949a9.96,9.96,0,0,0,4.429-3.697q2.007-3.0525,3.776-6.255c.261-.472.018-1.221.007-1.842a4.8209,4.8209,0,0,0-1.537.565c-3.467,2.976-4.562,7.391-6.675,11.229M61.0515,131.42c.069.076.138.153.207.229,1.109-.523,2.239-1.008,3.324-1.579a14.5737,14.5737,0,0,0,5.709-4.997,1.892,1.892,0,0,0-.37-2.457c-.809-.452-1.349.121-1.836.666q-3.195,3.5775-6.369,7.173a9.5864,9.5864,0,0,0-.665.965m53.435-4.742q.19.14.381.277c3.781-3.049,6.674-6.966,10.102-10.409-1.854-.96-2.775-.812-3.899.693-1.982,2.655-3.929,5.337-5.867,8.026a9.96,9.96,0,0,0-.717,1.413m31.057-5.956c3.119-1.445,6.703-7.49,5.987-9.962a17.6585,17.6585,0,0,0-5.987,9.962m16.136,3.275c-1.62,1.615-3.392,3.13-4.108,5.55,2.134.115,3.441-1.101,4.689-2.399,1.351-1.406,1.226-2.1-.581-3.151" transform="translate(-0.0005 0.0001)"/><path class="cls-5" d="M149.52,68.5746a15.5171,15.5171,0,0,1-1.152,1.059c-6.819,4.951-18.866,3.735-24.69-2.439-2.731-2.896-3.429-6.367-3.217-10.185.537-9.681,6.241-16.912,15.549-19.625a10.5283,10.5283,0,0,1,1.132-.164c-.75.97-1.314,1.717-1.896,2.45a19.9768,19.9768,0,0,0-4.119,17.552c.656,2.964,2.685,4.956,4.737,6.895a14.4082,14.4082,0,0,0,9.646,3.971c1.252.047,2.496.296,4.01.486" transform="translate(-0.0005 0.0001)"/><path class="cls-5" d="M156.3862,40.6677c-.012,2.376-2.665,5.023-6.633,5.543-3.537.462-5.337-.45-7.111-3.603a7.1814,7.1814,0,0,1,1.814-8.881,7.3233,7.3233,0,0,1,9.36.413c1.627,1.444,2.601,3.212,2.57,6.528m-2.398-1.669c-.032-2.11-2.627-4.184-5.214-4.167a4.2007,4.2007,0,0,0-4.052,4.071c.057,2.302,2.162,4.805,4.034,4.798,2.478-.009,5.265-2.514,5.232-4.702" transform="translate(-0.0005 0.0001)"/><path class="cls-5" d="M33.2421,75.7418c1.1.212,2.058.438,3.029.576,2.067.295,2.423.601,2.92,2.731-2.432,1.219-4.754-.136-7.264-.354-.977,2.232-1.945,4.498-2.971,6.737-.198.432-.566.981-.957,1.082a1.8635,1.8635,0,0,1-1.523-.355,1.65,1.65,0,0,1-.083-1.418c.789-2.085,1.666-4.136,2.541-6.271-1.898-.436-3.723-.852-5.545-1.277a8.89,8.89,0,0,1-1.15-.329,1.2011,1.2011,0,0,1-.809-1.524,1.1172,1.1172,0,0,1,1.36-1.027c1.934.286,3.863.612,5.792.935s1.965.27,2.923-1.406c1.123-1.966,2.321-3.889,3.514-5.876,1.497,1.44,1.567,1.979.646,3.565-.781,1.344-1.551,2.695-2.423,4.211" transform="translate(-0.0005 0.0001)"/><path class="cls-5" d="M115.3252,27.026c1.563,1.364,1.677,1.936.869,3.337-.813,1.411-1.644,2.812-2.58,4.411,1.153.221,2.15.469,3.161.594,1.936.24,2.39.646,2.791,3.005a32.79,32.79,0,0,1-3.378.055,18.7981,18.7981,0,0,1-2.925-.602.9341.9341,0,0,0-1.278.653c-.861,2.06-1.83,4.075-2.682,6.139-.402.974-.955,1.275-1.948.913-1.079-.394-.806-1.145-.524-1.858.802-2.03,1.645-4.044,2.52-6.181-2.054-.467-4.033-.877-5.986-1.385a2.4561,2.4561,0,0,1-1.442-.888c-.587-1.026.312-2.07,1.564-1.879,1.893.29,3.78.622,5.666.956,1.504.266,2.038-.013,2.796-1.374,1.08-1.938,2.203-3.852,3.376-5.896" transform="translate(-0.0005 0.0001)"/><path class="cls-5" d="M181.01,77.8353c1.514,1.287,1.63,1.952.762,3.438-.803,1.374-1.602,2.751-2.504,4.301,1.107.179,2.068.387,3.04.48,1.873.179,2.567.813,2.872,2.842a5.9712,5.9712,0,0,1-4.281.146c-3.543-.963-3.155-.288-4.125,2.161-.587,1.482-1.285,2.921-1.896,4.394-.421,1.017-1.191.954-1.988.667-.88-.317-.763-.996-.476-1.686.86-2.059,1.719-4.119,2.625-6.289-1.818-.418-3.556-.818-5.294-1.219-.272-.063-.543-.131-.814-.197-.927-.224-1.732-.588-1.474-1.761.248-1.124,1.137-1.084,2.003-.947,1.892.301,3.788.591,5.666.963a1.85,1.85,0,0,0,2.235-1.09c1.162-2.083,2.414-4.116,3.649-6.203" transform="translate(-0.0005 0.0001)"/><path class="cls-5" d="M38.7878,44.5579c1.229.344,2.206.631,3.19.89.849.224,1.709.405,2.559.626,2.052.531,2.357,1.015,1.976,3.397-2.752-.725-5.494-1.401-8.203-2.187a2.3514,2.3514,0,0,0-2.513.547c-1.233,1.137-2.523,2.213-3.788,3.315-.091.078-.175.218-.272.227-.717.066-1.436.106-2.155.154a5.7785,5.7785,0,0,1,.231-2.207c.407-.73,1.266-1.194,1.852-1.844.958-1.06.81-1.845-.476-2.432a17.5082,17.5082,0,0,0-2.701-.957c-1.065-.288-1.595-.962-1.831-2.318a8.5505,8.5505,0,0,1,2.278-.096,36.05,36.05,0,0,1,4.451,1.377,2.9266,2.9266,0,0,0,3.648-.799,23.0078,23.0078,0,0,1,2.463-2.273,1.0393,1.0393,0,0,1,1.732.173c.476.671,1.01,1.322.16,2.085-.796.715-1.596,1.425-2.601,2.322" transform="translate(-0.0005 0.0001)"/><path class="cls-5" d="M30.5915,60.53a6.5415,6.5415,0,0,1-9.519,6.08c-2.241-1.148-2.716-3.31-2.852-5.452-.275-4.31.815-6.195,6.226-6.912,3.391-.45,6.145,2.538,6.145,6.284m-6.63,3.933a3.87,3.87,0,0,0,4.106-3.892,2.9661,2.9661,0,0,0-3.203-3.096c-2.617.003-4.404,1.581-4.391,3.876.01,1.874,1.382,3.098,3.488,3.112" transform="translate(-0.0005 0.0001)"/><path class="cls-5" d="M81.2633,31.5276c.158-3.857,1.204-5.49,4.133-6.45,3.416-1.12,6.393-.34,8.416,2.206a6.3641,6.3641,0,0,1-3.467,10.163,8.8868,8.8868,0,0,1-5.181-.25c-3.276-1.179-4.34-2.842-3.901-5.669m6.935,3.593a17.1684,17.1684,0,0,0,2.786-.911,3.7174,3.7174,0,0,0,1.731-4.124,3.5338,3.5338,0,0,0-2.85-3.024,5.7221,5.7221,0,0,0-5.626,1.874,3.4241,3.4241,0,0,0,1.551,5.697c.678.209,1.397.288,2.408.488" transform="translate(-0.0005 0.0001)"/><path class="cls-5" d="M177.9832,53.81c.683,1.322,1.35,2.54,1.952,3.791a53.8779,53.8779,0,0,1,4.151,11.953c.162.747.515,1.746-.495,2.072-1,.322-1.291-.615-1.601-1.377-1.761-4.32-3.555-8.626-5.309-12.948-.716-1.764-.496-2.347,1.302-3.491" transform="translate(-0.0005 0.0001)"/><path class="cls-5" d="M42.3343,35.3483c1.403-1.842,2.603-3.692,4.076-5.29,2.375-2.579,4.897-5.027,7.441-7.441.411-.39,1.592-.651,1.843-.399.712.713.05,1.385-.498,2.029-2.409,2.828-4.769,5.699-7.157,8.546-.616.735-1.249,1.456-1.908,2.152-1.21,1.279-1.855,1.37-3.797.403" transform="translate(-0.0005 0.0001)"/><path class="cls-5" d="M177.2758,75.3734a7.0517,7.0517,0,0,1-1.245-1.529c-1.852-4.373-3.647-8.77-5.443-13.167-.686-1.679-.407-2.36,1.496-3.404,1.191,2.661,2.497,5.259,3.524,7.963.945,2.49,1.639,5.081,2.336,7.656a7.9463,7.9463,0,0,1-.04,2.237c-.209.082-.419.163-.628.244" transform="translate(-0.0005 0.0001)"/><path class="cls-5" d="M130.404,14.5935c1.283.678,2.489,1.278,3.659,1.942a52.7012,52.7012,0,0,1,10.239,7.426c.593.559,1.517,1.228.807,2.07-.688.815-1.495.058-2.207-.396-3.059-1.948-6.139-3.862-9.202-5.803-.875-.555-1.738-1.132-2.573-1.744-1.365-1.002-1.514-1.668-.723-3.495" transform="translate(-0.0005 0.0001)"/><path class="cls-5" d="M70.0475,41.7843c1.621.927,1.978,1.685,1.333,3.093q-3.135,6.8385-6.404,13.616c-.19.391-.952.504-1.448.747-.156-.447-.491-.918-.432-1.333a10.5835,10.5835,0,0,1,.724-2.633q2.394-5.601,4.896-11.158a26.378,26.378,0,0,1,1.331-2.332" transform="translate(-0.0005 0.0001)"/><path class="cls-5" d="M15.09,67.2977c1.684,1.005,1.99,1.672,1.37,3.214q-2.7405,6.8265-5.586,13.61c-.198.47-.805.766-1.498,1.391a6.3442,6.3442,0,0,1-.389-1.853,19.368,19.368,0,0,1,.859-3.713c1.289-3.476,2.673-6.917,4.056-10.358.309-.768.762-1.479,1.188-2.291" transform="translate(-0.0005 0.0001)"/><path class="cls-5" d="M73.5317,58.1973c-.118-.497-.411-.997-.289-1.357a32.2935,32.2935,0,0,1,1.333-3.067q2.39-5.217,4.789-10.428c.319-.694.649-1.304,1.614-.787.841.452,1.344.924.866,1.969-1.493,3.261-2.824,6.602-4.464,9.785a18.43,18.43,0,0,1-3.018,3.496c-.121.134-.351.17-.831.389" transform="translate(-0.0005 0.0001)"/><path class="cls-5" d="M183.6135,120.0594c-4.217-.409-8.145-.722-12.048-1.223-.836-.107-1.584-.898-2.372-1.375.039-.132.077-.265.116-.398,1.428-.242,2.852-.508,4.284-.719,2.128-.314,4.26-.599,6.393-.878,1.828-.239,2.471.138,3.039,1.883.255.782.356,1.613.588,2.71" transform="translate(-0.0005 0.0001)"/><path class="cls-5" d="M169.828,68.9759c-.172.158-.469.677-.849.746-4.426.799-8.358,2.821-12.288,4.859a1.7891,1.7891,0,0,1-2.197-.632c-.33-.82.211-1.187.816-1.61a35.3829,35.3829,0,0,1,12.532-5.135c1.121-.261,1.96.356,1.986,1.772" transform="translate(-0.0005 0.0001)"/><path class="cls-5" d="M7.66,99.53c-1.386-.021-1.907-1.071-1.265-2.062,2.087-3.222,4.298-6.341,7.479-8.618.809-.578,1.599-1.182,2.405-1.765.829-.599,1.207.085,1.609.605.51.661.179,1.108-.353,1.617-2.182,2.087-4.353,4.188-6.452,6.357-.91.94-1.611,2.079-2.457,3.086a5.2569,5.2569,0,0,1-.966.78" transform="translate(-0.0005 0.0001)"/><path class="cls-5" d="M136.1924,30.2638a5.8474,5.8474,0,0,1-1.902.112,14.609,14.609,0,0,1-3.746-1.434c-2.774-1.721-5.436-3.623-8.142-5.454a5.7423,5.7423,0,0,1-.581-.418,1.3445,1.3445,0,0,1-.275-2.001c.524-.725,1.165-.56,1.789-.168,1.079.678,2.148,1.373,3.212,2.075,2.793,1.844,5.593,3.677,8.361,5.558a10.2552,10.2552,0,0,1,1.392,1.381c-.036.116-.072.233-.108.349" transform="translate(-0.0005 0.0001)"/><path class="cls-5" d="M12.7341,104.4915c2.676-3.317,5.29-6.629,8.005-9.856a4.4531,4.4531,0,0,1,2.069-1.051,1.2822,1.2822,0,0,1,1.085.448,1.1792,1.1792,0,0,1-.091,1.069c-.552.826-1.203,1.586-1.826,2.364-1.944,2.425-3.858,4.876-5.851,7.26-1.458,1.745-1.865,1.696-3.391-.234" transform="translate(-0.0005 0.0001)"/><path class="cls-5" d="M110.1569,73.5536c2.638.393,4.885-.581,7.146-1.651a2.2979,2.2979,0,0,1,2.057.185c1.482,1.365,2.779,2.93,4.277,4.562-1.286,0-2.382.058-3.47-.012-2.788-.177-5.571-.414-8.357-.622-1.805-.135-1.999-.392-1.653-2.462" transform="translate(-0.0005 0.0001)"/><path class="cls-5" d="M158.0356,81.4956c3.755-1.836,7.458-3.695,11.214-5.441a4.7354,4.7354,0,0,1,2.317-.161,1.2215,1.2215,0,0,1,.84.803,1.2343,1.2343,0,0,1-.514,1.044c-3.92,1.958-7.849,3.901-11.822,5.751-1.281.597-1.813.033-2.035-1.996" transform="translate(-0.0005 0.0001)"/><path class="cls-5" d="M107.0662,9.8108c1.826,1.272,1.979,1.807,1.116,3.383-2.009,3.672-4.017,7.346-6.095,10.98-.236.413-.913.574-1.386.852-.168-.5169-.604-1.133-.458-1.535a65.2025,65.2025,0,0,1,2.843-6.955c1.156-2.298,2.613-4.444,3.98-6.725" transform="translate(-0.0005 0.0001)"/><path class="cls-5" d="M188.7976,92.98c1.446,1.963,1.318,2.636-.701,3.69q-4.2435,2.2155-8.515,4.379a2.4569,2.4569,0,0,1-1.219.422,2.0069,2.0069,0,0,1-1.378-.664,1.9673,1.9673,0,0,1,.101-1.521,2.127,2.127,0,0,1,.998-.81c3.54-1.832,7.092-3.642,10.714-5.496" transform="translate(-0.0005 0.0001)"/><path class="cls-5" d="M49.2955,66.2281c-.514-.336-.955-.594-1.364-.896-1.227-.907-1.528-1.577-.794-2.854,1.53-2.661,3.197-5.245,4.867-7.823a1.4212,1.4212,0,0,1,2.032-.382,1.3013,1.3013,0,0,1,.417,1.895c-1.615,3.246-3.282,6.466-4.932,9.695-.054.106-.125.203-.226.365" transform="translate(-0.0005 0.0001)"/><path class="cls-5" d="M65.8523,25.9247c0-4.294-.019-8.487.014-12.68.008-.974.665-1.389,1.607-1.38,1,.011,1.332.646,1.307,1.501-.107,3.554-.193,7.111-.391,10.661-.113,2.019-.563,2.27-2.537,1.898" transform="translate(-0.0005 0.0001)"/><path class="cls-5" d="M64.8238,42.9542c-4.186.211-8.33.443-12.476.609a1.3911,1.3911,0,0,1-1.633-1.493c.004-1.032.646-1.365,1.561-1.409,3.629-.177,7.257-.378,10.887-.533,1.524-.064,1.864.514,1.661,2.826" transform="translate(-0.0005 0.0001)"/><path class="cls-5" d="M81.9556,20.3067c-.334-2.385.164-2.973,2.424-2.874,3.142.138,6.283.312,9.423.499a2.1482,2.1482,0,0,1,1.232.35c.414.369.938.949.91,1.407-.051.83-.741,1.253-1.631,1.209-1.908-.094-3.818-.173-5.727-.265-2.219-.106-4.438-.218-6.631-.326" transform="translate(-0.0005 0.0001)"/><path class="cls-5" d="M155.7258,64.5774a9.9622,9.9622,0,0,1-1.237-1.784,20.42,20.42,0,0,0-4.187-5.928,5.0042,5.0042,0,0,1-1.213-1.745,1.9159,1.9159,0,0,1,.404-1.657,1.6387,1.6387,0,0,1,1.596.052,24.7894,24.7894,0,0,1,6.324,7.265c.592,1.15.591,2.005-.518,2.77a13.5454,13.5454,0,0,0-1.169,1.027" transform="translate(-0.0005 0.0001)"/><path class="cls-5" d="M110.6314,24.04c-.114-.464-.375-.909-.275-1.248a10.0512,10.0512,0,0,1,.894-1.815c1.708-3.192,3.443-6.372,5.12-9.581.512-.978,1.119-1.075,2.035-.602,1.01.522.675,1.163.302,1.881-1.393,2.686-2.747,5.392-4.162,8.065a7.2521,7.2521,0,0,1-3.914,3.3" transform="translate(-0.0005 0.0001)"/><path class="cls-5" d="M188.4187,113.2173c-1.181-.018-1.774-.67-1.651-1.612a9.7526,9.7526,0,0,1,.507-1.837c.819-2.416,1.672-4.82,2.479-7.24.3-.9.61-1.691,1.808-1.371a1.7718,1.7718,0,0,1,1.155,2.207c-1.024,3.017-2.147,6.001-3.31,8.968-.17.431-.766.695-.988.885" transform="translate(-0.0005 0.0001)"/><path class="cls-5" d="M88.4384,8.5125c.279,0,.633-.11.823.02.616.423,1.561.867,1.657,1.427.132.773-.657,1.346-1.558,1.476-2.682.386-5.362.791-8.042,1.19-.355.053-.711.1-1.061.178a1.18,1.18,0,0,1-1.561-.718,1.4346,1.4346,0,0,1,.525-1.892,1.5634,1.5634,0,0,1,.529-.267q4.323-.84,8.651-1.656c.012.08.025.161.037.242" transform="translate(-0.0005 0.0001)"/><path class="cls-5" d="M78.0185,19.9347c-.731,2.756-1.503,5.719-2.317,8.67a2.3518,2.3518,0,0,1-.657.982,1.228,1.228,0,0,1-2.16-.693,6.0889,6.0889,0,0,1,.222-1.994c.54-2.486,1.117-4.964,1.679-7.444.009-.039.013-.079.023-.118.254-.937.62-1.821,1.805-1.685,1.19.137,1.057,1.211,1.405,2.282" transform="translate(-0.0005 0.0001)"/><path class="cls-5" d="M58.5092,30.9757c2.706.465,5.415.913,8.114,1.415a1.5092,1.5092,0,0,1,.972.636,2.4558,2.4558,0,0,1,.396,1.661,1.7137,1.7137,0,0,1-1.432.691c-1.624-.142-3.23-.474-4.845-.715-1.378-.207-2.76-.379-4.138-.585-.88-.131-1.802-.235-1.825-1.456-.022-1.241.882-1.354,1.782-1.464.317-.038.637-.045.955-.066l.021-.117" transform="translate(-0.0005 0.0001)"/><path class="cls-5" d="M180.4341,111.9121l-16.138-.997c-.008-.164-.017-.327-.026-.491.627-.143,1.25-.305,1.88-.428,2.659-.518,5.315-1.054,7.982-1.529a5.8816,5.8816,0,0,1,6.302,3.445" transform="translate(-0.0005 0.0001)"/><path class="cls-5" d="M160,51.3067a4.2916,4.2916,0,0,1,.878.515,21.93,21.93,0,0,1,5.808,8.236c.138.346.129,1.082-.026,1.151a3.1146,3.1146,0,0,1-1.527.169,1.353,1.353,0,0,1-.737-.569c-1.805-2.388-3.614-4.774-5.372-7.196a1.3737,1.3737,0,0,1,.976-2.306" transform="translate(-0.0005 0.0001)"/><path class="cls-5" d="M37.6165,64.3613a21.5427,21.5427,0,0,1,4.709-9.934,1.8742,1.8742,0,0,1,1.642-.386c.782.247.823,1.063.486,1.719-1.439,2.799-2.894,5.592-4.415,8.347-.596,1.077-1.511.749-2.422.254" transform="translate(-0.0005 0.0001)"/><path class="cls-5" d="M160.8925,43.9225c-1.453-.039-2.217-1.267-1.378-2.147a58.5154,58.5154,0,0,1,5.625-5.117c.389-.313,1.473-.075,2.056.242.771.419.897,1.19.119,1.865-1.808,1.568-3.606,3.147-5.437,4.689a3.6621,3.6621,0,0,1-.985.468" transform="translate(-0.0005 0.0001)"/><path class="cls-5" d="M131.5946,86.8552c-4.68.141-9.141.275-13.602.409-.845.025-1.256-.371-1.198-1.357q3.825-.516,7.652-1.033c1.184-.161,2.362-.384,3.551-.477,1.683-.133,2.741.788,3.597,2.458" transform="translate(-0.0005 0.0001)"/><path class="cls-5" d="M165.943,51.3187c-.346-.277-.952-.532-1.116-.958a1.7088,1.7088,0,0,1,.228-1.513q2.5635-2.5125,5.306-4.841a1.6589,1.6589,0,0,1,2.553.528,1.1177,1.1177,0,0,1-.071,1.045c-1.98,1.848-4.006,3.646-6.035,5.44a2.9957,2.9957,0,0,1-.865.299" transform="translate(-0.0005 0.0001)"/><path class="cls-5" d="M104.33,62.0507c-.09-1.818.294-2.392,1.831-2.917,2.861-.976,4.8-.384,6.616,2.004.38.5.791.978,1.403,1.73-3.434-.285-6.607-.548-9.85-.817" transform="translate(-0.0005 0.0001)"/><path class="cls-5" d="M126.5866,81.2637a4.1387,4.1387,0,0,1-.646.112c-3.823-.019-7.647-.05-11.47-.066-.78-.004-1.329-.238-1.379-1.271.352-.069.72-.162,1.093-.212,2.88-.389,5.762-.755,8.64-1.156,2.297-.32,2.372-.295,3.362,1.786.116.243.239.482.4.807" transform="translate(-0.0005 0.0001)"/><path class="cls-5" d="M162.1287,34.0065c-1.11.916-1.799.95-2.663.053q-3.273-3.399-6.467-6.874a4.897,4.897,0,0,1-.625-1.424c.084-.098.169-.196.253-.293a5.8471,5.8471,0,0,1,1.445.501,32.4133,32.4133,0,0,1,8.057,8.037" transform="translate(-0.0005 0.0001)"/><path class="cls-5" d="M184.4005,125.4306c.157.344.486.711.445,1.029-.294,2.282-.663,4.554-1.051,7.107-1.896-1.76-3.599-3.34-5.403-5.014,1.656-.628,3.196-1.136,4.663-1.807.548-.251.922-.881,1.376-1.338l-.03.023" transform="translate(-0.0005 0.0001)"/><path class="cls-5" d="M187.48,77.0113c.494.518.914.752.994,1.071.943,3.765,2.156,7.489,1.997,11.44-1.475.321-1.907.1-2.112-1.272q-.705-4.72-1.282-9.458a6.2857,6.2857,0,0,1,.403-1.781" transform="translate(-0.0005 0.0001)"/><path class="cls-5" d="M106.99,66.5456c2.876-.311,5.752-.621,8.734-.943.228,1.163.438,2.235.693,3.536-2.779-.249-5.395-.404-7.981-.773-.623-.089-1.145-.885-1.713-1.356.089-.155.178-.309.267-.464" transform="translate(-0.0005 0.0001)"/><path class="cls-5" d="M158.0285,92.43a54.5755,54.5755,0,0,1-5.552-1.685c-.516-.213-.86-1.255-.924-1.95-.027-.295.833-.768,1.362-.984a3.8389,3.8389,0,0,1,1.421-.087,2.8419,2.8419,0,0,1,3.2,2.424c.189.647.289,1.32.493,2.282" transform="translate(-0.0005 0.0001)"/><path class="cls-5" d="M156.1179,97.6482c.471-1.561.946-1.894,2.288-1.692,1.418.214,2.841.409,4.245.694a4.395,4.395,0,0,1,3.203,2.663c-3.31-.566-6.471-1.107-9.736-1.665" transform="translate(-0.0005 0.0001)"/><path class="cls-5" d="M184.4307,125.4077c-2.705-.438-5.41-.871-8.113-1.316-.646-.106-1.286-.25-1.929-.377-.001-.1-.001-.2-.002-.3.844-.115,1.685-.261,2.533-.341,1.824-.17,3.651-.307,5.477-.457,2.007-.166,2.719.834,2.004,2.814l.03-.023" transform="translate(-0.0005 0.0001)"/><path class="cls-5" d="M119.9106,91.7323c2.993-.832,5.985-1.664,9.042-2.514a3.7176,3.7176,0,0,1-3.327,3.227c-1.894.064-3.798-.155-5.697-.251l-.018-.462" transform="translate(-0.0005 0.0001)"/><path class="cls-5" d="M105.9478,55.7445c-2.531.766-6.137-1.011-6.934-3.397,2.564.69,5.734-.105,6.934,3.397" transform="translate(-0.0005 0.0001)"/><path class="cls-5" d="M169.2064,105.064c-2.548,1.639-6.87,1.133-8.752-1.056,2.983.329,5.904-.729,8.752,1.056" transform="translate(-0.0005 0.0001)"/><path class="cls-5" d="M71.0426,78.9044c-.857-.525-1.632-.999-2.624-1.606,1.638-.603,3.081-1.134,4.524-1.665q.1515.159.303.317c-.723.97-1.446,1.939-2.203,2.954" transform="translate(-0.0005 0.0001)"/><path class="cls-5" d="M67.68,72.32c1.335-1.162,1.92-1.098,3.215.397-1.163-.144-2.088-.258-3.215-.397" transform="translate(-0.0005 0.0001)"/><path class="cls-5" d="M97.6531,46.1641l1.953,1.458c-1.491.8-1.997.433-1.953-1.458" transform="translate(-0.0005 0.0001)"/><path class="cls-5" d="M122.5068,96.0193c-.534,1.451-.942,1.604-2.038.74.704-.256,1.311-.476,2.038-.74" transform="translate(-0.0005 0.0001)"/><path class="cls-4" d="M89.67,66.2746c1.734,1.061,1.861,1.632.749,3.04-.792,1.003-1.635,1.965-2.454,2.946a7.2255,7.2255,0,0,0-1.663,5.093,5.2155,5.2155,0,0,1-.892,3.342c-2.952,3.339-5.811,6.823-9.791,9.066-.197.111-.398.215-.597.322-.114-.075-.227-.149-.34-.224a9.8022,9.8022,0,0,1,.799-1.436c2.036-2.565,4.076-5.128,6.169-7.646,1.595-1.918,2.89-3.916,2.729-6.564a2.0844,2.0844,0,0,1,.406-1.221c1.594-2.24,3.229-4.45,4.885-6.718" transform="translate(-0.0005 0.0001)"/><path class="cls-4" d="M53.6086,103.0681a8.1049,8.1049,0,0,1-2.185,4.988,22.78,22.78,0,0,1-1.991,2.07,16.6657,16.6657,0,0,0-5.212,7.719,7.6037,7.6037,0,0,1-2.275,3.139c-1.934,1.72-4.045,3.24-6.089,4.836a4.2,4.2,0,0,1-.58.326c-.105-.062-.21-.124-.316-.187a7.0385,7.0385,0,0,1,.671-1.438c1.171-1.514,2.503-2.914,3.585-4.487,1.392-2.024,2.516-4.232,3.918-6.248a30.0713,30.0713,0,0,1,3.464-4.057c2.281-2.276,4.667-4.447,7.01-6.661" transform="translate(-0.0005 0.0001)"/><path class="cls-4" d="M51.4021,90.0786a9.5041,9.5041,0,0,1-.375,2.24,21.4307,21.4307,0,0,1-1.717,3.142,21.733,21.733,0,0,0-3.36,8.116,3.959,3.959,0,0,1-2.013,2.697q-4.5045,2.832-9.015,5.657a4.8133,4.8133,0,0,1-.761.315c-.097-.232-.173-.333-.15-.37,1.935-2.987,3.841-6.033,7.123-7.742a7.8382,7.8382,0,0,0,3.201-3.398c1.907-3.354,3.965-6.621,5.976-9.915a7.11,7.11,0,0,1,.734-.864c.119.041.238.081.357.122" transform="translate(-0.0005 0.0001)"/><path class="cls-4" d="M30.7129,114.05c-2.531,4.71-4.96,9.334-7.496,13.898a11.0552,11.0552,0,0,1-5.243,4.341,9.1972,9.1972,0,0,1,.417-1.174c2.699-5.071,5.395-10.144,8.127-15.198,1.021-1.889,2.096-2.361,4.195-1.867" transform="translate(-0.0005 0.0001)"/><path class="cls-4" d="M92.1244,103.6792a2.61,2.61,0,0,1-.365,3.278,25.4356,25.4356,0,0,1-7.362,5.868c-2.314,1.122-3.876,2.982-5.488,4.957-.88-.333-.62-1.09-.311-1.613a15.3117,15.3117,0,0,1,2.731-4.031c3.459-2.937,7.133-5.62,10.795-8.459" transform="translate(-0.0005 0.0001)"/><path class="cls-4" d="M75.6543,99.8024c-.575.847-1.13,1.71-1.73,2.539a20.5684,20.5684,0,0,0-3.787,7.939,3.5351,3.5351,0,0,1-.342.892c-1.423,2.783-5.949,6.232-9.364,7.013,1.606-1.756,3.03-3.396,4.543-4.95a20.2057,20.2057,0,0,0,5.022-8.048,9.6065,9.6065,0,0,1,4.929-5.482,2.4528,2.4528,0,0,1,.519-.153c.07.083.14.167.21.25" transform="translate(-0.0005 0.0001)"/><path class="cls-4" d="M138.1468,94.4a10.5286,10.5286,0,0,1-.696,1.087,15.2555,15.2555,0,0,0-3.424,7.286c-.677,3.38-5.256,7.037-8.698,6.999a2.6946,2.6946,0,0,1-.49-.139c.995-1.018,1.844-2.018,2.825-2.865a19.0636,19.0636,0,0,0,5.189-7.088,9.6724,9.6724,0,0,1,5.294-5.28" transform="translate(-0.0005 0.0001)"/><path class="cls-4" d="M92.7879,117.1276a8.4771,8.4771,0,0,1,1.073-1.39c2.387-2.058,4.839-4.041,7.21-6.118,1.196-1.048,2.245-2.263,3.403-3.357a10.6914,10.6914,0,0,1,2.195-1.576,8.536,8.536,0,0,1-2.646,5.921,10.491,10.491,0,0,1-2.311,1.878c-2.554,1.548-5.156,3.017-7.744,4.508a9.6533,9.6533,0,0,1-.915.41c-.088-.092-.177-.184-.265-.276" transform="translate(-0.0005 0.0001)"/><path class="cls-4" d="M86.5553,94.1785c2.113-3.838,3.208-8.253,6.676-11.229a4.815,4.815,0,0,1,1.536-.565c.011.622.254,1.37-.006,1.842q-1.764,3.198-3.777,6.255a9.96,9.96,0,0,1-4.429,3.697" transform="translate(-0.0005 0.0001)"/><path class="cls-4" d="M61.0519,131.42a9.4244,9.4244,0,0,1,.665-.965q3.1725-3.597,6.368-7.173c.487-.545,1.028-1.117,1.837-.665a1.8915,1.8915,0,0,1,.37,2.457,14.5854,14.5854,0,0,1-5.71,4.997c-1.084.571-2.214,1.055-3.323,1.578-.069-.076-.138-.153-.207-.229" transform="translate(-0.0005 0.0001)"/><path class="cls-4" d="M114.4867,126.6779a9.96,9.96,0,0,1,.717-1.413c1.937-2.689,3.884-5.371,5.867-8.026,1.124-1.505,2.045-1.654,3.899-.693-3.428,3.443-6.321,7.36-10.103,10.409-.126-.092-.253-.185-.38-.277" transform="translate(-0.0005 0.0001)"/><path class="cls-4" d="M145.5433,120.7221a17.6585,17.6585,0,0,1,5.987-9.962c.716,2.472-2.868,8.517-5.987,9.962" transform="translate(-0.0005 0.0001)"/><path class="cls-4" d="M161.68,123.9967c1.807,1.051,1.932,1.745.581,3.151-1.248,1.298-2.555,2.514-4.689,2.399.716-2.42,2.488-3.935,4.108-5.55" transform="translate(-0.0005 0.0001)"/><path class="cls-4" d="M153.9882,38.9987c.033,2.188-2.754,4.693-5.232,4.702-1.872.007-3.977-2.496-4.034-4.798a4.2007,4.2007,0,0,1,4.052-4.071c2.587-.017,5.182,2.057,5.214,4.167" transform="translate(-0.0005 0.0001)"/><path class="cls-4" d="M23.9615,64.4629c-2.106-.014-3.478-1.238-3.488-3.112-.013-2.295,1.774-3.873,4.391-3.876a2.9661,2.9661,0,0,1,3.203,3.096,3.87,3.87,0,0,1-4.106,3.892" transform="translate(-0.0005 0.0001)"/><path class="cls-4" d="M88.1983,35.1206c-1.011-.2-1.73-.279-2.408-.488a3.4241,3.4241,0,0,1-1.551-5.697,5.7221,5.7221,0,0,1,5.626-1.874,3.5338,3.5338,0,0,1,2.85,3.024,3.7174,3.7174,0,0,1-1.731,4.124,17.1684,17.1684,0,0,1-2.786.911" transform="translate(-0.0005 0.0001)"/><path class="cls-5" d="M97.9445,158.8036c1.862.25,3.665.449,5.457.749,1.193.199,1.453.626,1.459,1.966,0,.178.005.357-.006.535-.166,2.723-.52,3.142-2.847,3.189-1.772.036-3.545.007-5.286.007-.873-1.492-.735-2.072.644-2.243,1.305-.162,2.631-.09,3.947-.137.706-.025,1.411-.084,2.189-.133.04-.471.072-.853.126-1.499-1.681,0-3.257.06-4.828-.015-1.892-.09-2.902-1.811-2.365-3.89.322-1.246.742-1.669,1.87-1.62,2.171.095,4.341.247,6.508.425.224.018.427.373.639.571-.191.226-.371.63-.577.649-1.158.106-2.322.108-3.484.168-.908.047-1.816.121-2.724.194-.44.035-.798.191-.722,1.084" transform="translate(-0.0005 0.0001)"/><path class="cls-5" d="M50.4176,165.0671c-.823-1.481-.766-3.156-.852-4.788-.025-.469.053-.945.028-1.413-.098-1.769.24-2.377,1.77-2.603,1.448-.213,2.916-.253,4.377-.338.552-.032,1.108.017,1.661.04,1.323.055,1.78.385,1.948,1.887a14.4379,14.4379,0,0,1-.192,5.451c-.244.907-.694,1.333-1.361,1.4-2.445.243-4.883.826-7.379.364m8.011-7.803c-2.242.289-4.429.564-6.614.858-.622.084-.839.568-.796,1.258.066,1.051.128,2.102.197,3.25,1.883,0,3.694.034,5.502-.02.583-.017,1.032-.396,1.13-1.191.163-1.326.367-2.646.581-4.155" transform="translate(-0.0005 0.0001)"/><path class="cls-5" d="M85.7133,160.3c1.658-.167,3.113-.315,4.569-.458.403-.039.807-.065,1.211-.093.877-.062,1.335.42,1.375,1.713-2.226.462-4.558-.229-6.873.482.081.522.16,1.026.249,1.596,1.812,0,3.572-.006,5.331.002a2.3979,2.3979,0,0,1,2.149.646c-.224.276-.397.669-.65.761a4.409,4.409,0,0,1-1.355.158c-1.709.06-3.419.102-5.129.154-.92.027-1.376-.231-1.551-1.261-.355-2.078-.613-4.181-.859-6.282-.081-.683.104-1.352.807-1.471a18.336,18.336,0,0,1,7.451-.047c-.32,1.188-.974,1.217-1.704,1.204-1.763-.031-3.528-.01-5.427-.01.152,1.086.264,1.887.406,2.906" transform="translate(-0.0005 0.0001)"/><path class="cls-5" d="M120.2107,160.4378c1.658-.167,3.113-.315,4.569-.458.403-.039.807-.065,1.211-.093.877-.062,1.335.42,1.375,1.713-2.226.462-4.558-.229-6.873.482.081.522.16,1.026.249,1.596,1.812,0,3.572-.006,5.331.002a2.3979,2.3979,0,0,1,2.149.646c-.224.276-.397.669-.65.761a4.409,4.409,0,0,1-1.355.158c-1.709.06-3.419.102-5.129.154-.92.027-1.376-.231-1.551-1.261-.355-2.078-.613-4.181-.859-6.282-.081-.683.104-1.352.807-1.471a18.336,18.336,0,0,1,7.451-.047c-.32,1.188-.974,1.217-1.704,1.204-1.763-.031-3.528-.01-5.427-.01.152,1.086.264,1.888.406,2.906" transform="translate(-0.0005 0.0001)"/><path class="cls-5" d="M152.853,160.4378c1.658-.167,3.113-.315,4.569-.458.403-.039.807-.065,1.211-.093.877-.062,1.335.42,1.375,1.713-2.226.462-4.558-.229-6.873.482.081.522.16,1.026.249,1.596,1.812,0,3.572-.006,5.331.002a2.3979,2.3979,0,0,1,2.149.646c-.224.276-.397.669-.65.761a4.409,4.409,0,0,1-1.355.158c-1.709.06-3.419.102-5.129.154-.92.027-1.376-.231-1.551-1.261-.355-2.078-.613-4.181-.859-6.282-.081-.683.104-1.352.807-1.471a18.336,18.336,0,0,1,7.451-.047c-.32,1.188-.974,1.217-1.704,1.204-1.763-.031-3.528-.01-5.427-.01.152,1.086.264,1.888.406,2.906" transform="translate(-0.0005 0.0001)"/><path class="cls-5" d="M72.377,165.7131c-.617-.27-.95-.322-1.16-.537-.165-.168-.163-.547-.259-.82-.753-2.131-.886-2.233-2.904-2.162-.556.02-1.111.105-1.667.128s-1.112.005-1.69.005c-.445.9-.878,1.776-1.332,2.697-.965-.738-.441-1.506-.357-2.225-.771-.435-1.453-.924-1.009-2.167.62-.062,1.218-.123,1.899-.192.39-.984.811-1.982,1.183-3.004a1.45,1.45,0,0,1,1.378-1.13c1.098-.059,2.19-.24,3.287-.333.992-.083,1.503.407,1.626,1.588.194,1.872.333,3.753.531,5.624.073.681.248,1.347.474,2.528m-2.961-8.059c-.717.089-1.353.136-1.98.253-1.756.325-1.777.364-2.016,2.65.719-.062,1.413-.175,2.107-.166.727.01,1.453.137,2.352.231-.169-1.083-.301-1.928-.463-2.968" transform="translate(-0.0005 0.0001)"/><path class="cls-5" d="M141.806,158.5457c.228,1.235.364,2.101.55,2.952.283,1.3.655,1.609,1.789,1.683,1.563.102,3.123.24,4.685.362.151.012.352-.043.445.049.243.242.602.545.605.829.004.267-.377.762-.608.778a62.8078,62.8078,0,0,1-6.312.22,2.0245,2.0245,0,0,1-1.429-1.304,30.2408,30.2408,0,0,1-.776-5.215c-.095-1.559.272-2.04,1.625-2.207a40.2339,40.2339,0,0,1,5.137-.225,4.956,4.956,0,0,1,1.584.622,1.2705,1.2705,0,0,1-1.546.943,32.846,32.846,0,0,0-3.618-.046,11.51,11.51,0,0,0-2.131.559" transform="translate(-0.0005 0.0001)"/><path class="cls-5" d="M108.4473,158.3883c.251,1.235.401,2.101.606,2.952.311,1.3.722,1.609,1.971,1.683,1.722.102,3.441.24,5.162.362.167.012.387-.043.49.049.267.242.663.545.667.829a1.0452,1.0452,0,0,1-.67.778c-2.316.142-4.639.29-6.955.22a2.1672,2.1672,0,0,1-1.574-1.304,27.62,27.62,0,0,1-.855-5.215c-.105-1.559.299-2.04,1.791-2.207a48.7933,48.7933,0,0,1,5.66-.225,5.8066,5.8066,0,0,1,1.744.622c-.382.962-1.001.976-1.703.943a39.86,39.86,0,0,0-3.986-.046,13.71,13.71,0,0,0-2.348.559" transform="translate(-0.0005 0.0001)"/><path class="cls-5" d="M38.9574,158.172c.251,1.235.401,2.101.606,2.952.311,1.3.722,1.609,1.971,1.683,1.722.102,3.441.24,5.162.362.167.012.387-.043.49.049.267.242.663.545.667.829a1.0452,1.0452,0,0,1-.67.778c-2.316.142-4.639.29-6.955.22a2.1672,2.1672,0,0,1-1.574-1.304,27.62,27.62,0,0,1-.855-5.215c-.105-1.559.299-2.04,1.791-2.207a48.7933,48.7933,0,0,1,5.66-.225,5.8066,5.8066,0,0,1,1.744.622c-.382.962-1.001.976-1.703.943a39.86,39.86,0,0,0-3.986-.046,13.71,13.71,0,0,0-2.348.559" transform="translate(-0.0005 0.0001)"/><path class="cls-5" d="M131.8368,160.3826c.035,1.478.063,2.63.087,3.782a2.632,2.632,0,0,1-.026.912c-.092.248-.396.606-.558.58a1.3762,1.3762,0,0,1-.761-.556,1.3985,1.3985,0,0,1-.096-.717c-.041-2.104-.092-4.209-.099-6.314a8.76,8.76,0,0,1,.331-1.56,45.2771,45.2771,0,0,0,6.342,6.148c.168-1.706.316-3.213.464-4.72a5.4731,5.4731,0,0,1,.152-1.277.9507.9507,0,0,1,.668-.458c.144-.025.42.239.482.432a3.6973,3.6973,0,0,1,.131,1.091c.004,1.794-.016,3.59-.017,5.384,0,.615.12,1.246-.597,1.572a1.7528,1.7528,0,0,1-2.1-.102c-1.21-1.112-2.396-2.253-3.59-3.383-.201-.191-.393-.392-.813-.814" transform="translate(-0.0005 0.0001)"/><path class="cls-5" d="M75.713,155.6589c1.364.428,1.352.433,1.342,1.76-.014,1.876-.003,3.751-.003,5.876,1.13-.079,2.218-.18,3.308-.224.803-.032,1.631-.046,2.022,1.205-.253.194-.478.509-.725.534a44.78,44.78,0,0,1-4.938.357c-1.267-.014-1.67-.808-1.592-2.382.082-1.644.069-3.295.171-4.937a16.9734,16.9734,0,0,1,.415-2.189" transform="translate(-0.0005 0.0001)"/><path class="cls-5" d="M119.489,181.55c-6.975-1.135-11.442-.268-17.273-.648-1.082-.071-2.181-.159-3.281-.248-2.07.049-4.196.063-6.402.023q-2.625.0915-5.234.193a22.5711,22.5711,0,0,1-4.347.163q-3.843.147-7.74.26,1.758,1.038,3.65,2.076c14.225,1.159,41.881,1.632,43.183.734-.906-.906-1.708-1.705-2.556-2.553" transform="translate(-0.0005 0.0001)"/><path class="cls-5" d="M129.2749,172.7452c-3.494-.041-6.871-.107-10.063-.112-.329,0-.65-.003-.979-.004-14.971.681-30.27,1.272-49.041.624-4.129.077-8.396.157-12.771.239a2.5578,2.5578,0,0,0,.361,1.215,105.9547,105.9547,0,0,0,22.456,2.35c16.926-.107,34.278-.075,51.307-.149,3.952-.018,7.309-.232,11.061-.36-4.704-1.451-8.254-2.546-12.331-3.803" transform="translate(-0.0005 0.0001)"/><path class="cls-5" d="M9.6616,118.0708c-.445.02-1.046.047-1.638.074-.244-.529-.469-.792-.456-1.021.151-2.643.319-5.283.529-7.917.053-.66.454-1.227,1.207-1.064.835.181,1.004.816.932,1.625-.227,2.573-.364,5.161-.574,8.303" transform="translate(-0.0005 0.0001)"/></g></g></g></g></svg>